<svg xmlns="http://www.w3.org/2000/svg" width="15.001" height="18.335" viewBox="0 0 15.001 18.335">
  <g id="archivo_tabla" transform="translate(0.833 0.833)">
    <path id="Trazado_1456" data-name="Trazado 1456" d="M13.343,3.814h1.667a1.667,1.667,0,0,1,1.667,1.667V17.149a1.667,1.667,0,0,1-1.667,1.667h-10a1.667,1.667,0,0,1-1.667-1.667V5.481A1.667,1.667,0,0,1,5.009,3.814H6.675" transform="translate(-3.342 -2.148)" fill="none" stroke="#3d3d3d" stroke-linecap="round" stroke-linejoin="round" stroke-width="1.667"/>
    <path id="Trazado_1457" data-name="Trazado 1457" d="M12.51,2.148h-5a.833.833,0,0,0-.834.833V4.648a.833.833,0,0,0,.834.833h5a.834.834,0,0,0,.833-.833V2.981A.834.834,0,0,0,12.51,2.148Z" transform="translate(-3.342 -2.148)" fill="none" stroke="#3d3d3d" stroke-linecap="round" stroke-linejoin="round" stroke-width="1.667"/>
  </g>
</svg>
