<svg xmlns="http://www.w3.org/2000/svg" width="43.2" height="54" viewBox="0 0 43.2 54">
  <g id="Grupo_1935" data-name="Grupo 1935" transform="translate(-4 -2)">
    <path id="Trazado_375" data-name="Trazado 375" d="M47.2,12.8C47.2,6.946,37.31,2,25.6,2S4,6.946,4,12.8v5.4C4,24.054,13.89,29,25.6,29s21.6-4.946,21.6-10.8ZM25.6,47.9C13.89,47.9,4,42.954,4,37.1v8.1C4,51.054,13.89,56,25.6,56s21.6-4.946,21.6-10.8V37.1C47.2,42.954,37.31,47.9,25.6,47.9Z" fill="#1d2345"/>
    <path id="Trazado_376" data-name="Trazado 376" d="M47.2,10c0,5.854-9.89,10.8-21.6,10.8S4,15.854,4,10v8.1c0,5.854,9.89,10.8,21.6,10.8s21.6-4.946,21.6-10.8Z" transform="translate(0 13.6)" fill="#1d2345"/>
  </g>
</svg>
