<svg xmlns="http://www.w3.org/2000/svg" xmlns:xlink="http://www.w3.org/1999/xlink" width="23.43" height="23.43" viewBox="0 0 23.43 23.43">
  <defs>
    <clipPath id="clip-path">
      <rect id="Rectángulo_1512" data-name="Rectángulo 1512" width="23.43" height="23.43" fill="#77a2cd"/>
    </clipPath>
  </defs>
  <g id="Grupo_3191" data-name="Grupo 3191" transform="translate(0 0)">
    <g id="fi_arrow-up-circle" transform="translate(23.43 23.43) rotate(180)" clip-path="url(#clip-path)">
      <path id="Trazado_1529" data-name="Trazado 1529" d="M6.247,3.123,3.123,0,0,3.123" transform="translate(8.203 7.81)" fill="none" stroke="#77a2cd" stroke-linecap="round" stroke-linejoin="round" stroke-width="1.667"/>
      <path id="Trazado_1530" data-name="Trazado 1530" d="M0,6.247V0" transform="translate(11.326 8.592)" fill="none" stroke="#77a2cd" stroke-linecap="round" stroke-linejoin="round" stroke-width="1.667"/>
    </g>
    <path id="Vector" d="M21.172,16.977a1.953,1.953,0,0,1-1.952,1.952H3.6a1.953,1.953,0,0,1-1.952-1.952V3.31A1.952,1.952,0,0,1,3.6,1.357H8.481l1.952,2.929H19.22a1.952,1.952,0,0,1,1.952,1.952Z" transform="translate(0.305 -0.186)" fill="none" stroke="#77a2cd" stroke-linecap="round" stroke-linejoin="round" stroke-width="1.667"/>
  </g>
</svg>
