<svg xmlns="http://www.w3.org/2000/svg" width="47.384" height="47.384" viewBox="0 0 47.384 47.384">
  <path id="Trazado_347" data-name="Trazado 347" d="M5.632,24.059H21.427a2.632,2.632,0,0,0,2.632-2.632V5.632A2.632,2.632,0,0,0,21.427,3H5.632A2.632,2.632,0,0,0,3,5.632V21.427A2.632,2.632,0,0,0,5.632,24.059ZM8.265,8.265h10.53v10.53H8.265ZM47.751,3H31.957a2.632,2.632,0,0,0-2.632,2.632V21.427a2.632,2.632,0,0,0,2.632,2.632H47.751a2.632,2.632,0,0,0,2.632-2.632V5.632A2.632,2.632,0,0,0,47.751,3ZM45.119,18.795H34.589V8.265h10.53ZM21.427,50.384a2.632,2.632,0,0,0,2.632-2.632V31.957a2.632,2.632,0,0,0-2.632-2.632H5.632A2.632,2.632,0,0,0,3,31.957V47.751a2.632,2.632,0,0,0,2.632,2.632ZM8.265,34.589h10.53v10.53H8.265Zm34.221-2.632H37.221v5.265H31.957v5.265h5.265v5.265h5.265V42.486h5.265V37.221H42.486Z" transform="translate(-3 -3)" fill="#1d2345"/>
</svg>
