<svg id="Grupo_1510" data-name="Grupo 1510" xmlns="http://www.w3.org/2000/svg" xmlns:xlink="http://www.w3.org/1999/xlink" width="18" height="18.066" viewBox="0 0 18 18.066">
  <defs>
    <clipPath id="clip-path">
      <rect id="Rectángulo_57" data-name="Rectángulo 57" width="18" height="18.066" fill="#1d2345"/>
    </clipPath>
  </defs>
  <g id="Grupo_159" data-name="Grupo 159" clip-path="url(#clip-path)">
    <path id="Trazado_71" data-name="Trazado 71" d="M8.347,32.726q-3.47,0-6.941,0A1.281,1.281,0,0,1,0,31.339q-.006-7,0-14.007a1.261,1.261,0,0,1,1.345-1.359c2.871,0,5.743,0,8.614-.009.3,0,.355.091.351.366-.011.877,0,.877-.894.877-2.6,0-5.2.007-7.8-.008-.33,0-.395.1-.394.405q.014,6.717,0,13.435c0,.358.113.413.435.413q6.716-.015,13.432,0c.313,0,.4-.07.4-.4-.014-2.75,0-5.5-.017-8.249,0-.333.1-.4.4-.39.868.018.868.005.868.86q0,3.961,0,7.922c0,1.07-.462,1.526-1.544,1.526H8.347" transform="translate(0 -14.66)" fill="#1d2345"/>
    <path id="Trazado_72" data-name="Trazado 72" d="M89.464,25.939a1.438,1.438,0,0,0,.14.236c.8.8,1.586,1.607,2.4,2.391.23.222.064.309-.065.439q-2.7,2.7-5.4,5.4c-.23.229-.456.607-.709.628s-.47-.394-.7-.619c-.6-.591-1.188-1.2-1.793-1.785-.175-.17-.222-.266-.018-.469q2.971-2.944,5.919-5.911a2.991,2.991,0,0,0,.223-.3" transform="translate(-76.389 -23.819)" fill="#1d2345"/>
    <path id="Trazado_73" data-name="Trazado 73" d="M176.03,2.193a1.353,1.353,0,0,1-.393.93l-.374.376c-.5.5-.5.5-.98.015-.692-.692-1.378-1.39-2.077-2.075-.138-.135-.155-.2,0-.338.263-.235.5-.5.757-.742A1.23,1.23,0,0,1,174.626.3c.4.346.757.74,1.123,1.124a1.25,1.25,0,0,1,.281.771" transform="translate(-158.03 0)" fill="#1d2345"/>
    <path id="Trazado_74" data-name="Trazado 74" d="M54.4,121.123c.28-.871.527-1.709.824-2.528a9.231,9.231,0,0,1,.314-1.248c.112-.214.183-.279.388-.067.775.8,1.565,1.583,2.36,2.362.15.147.155.232-.032.318a1.579,1.579,0,0,1-.375.148c-1.178.2-2.267.7-3.479,1.016" transform="translate(-49.956 -107.574)" fill="#1d2345"/>
  </g>
</svg>
