<svg xmlns="http://www.w3.org/2000/svg" width="52.648" height="52.648" viewBox="0 0 52.648 52.648">
  <g id="Grupo_1825" data-name="Grupo 1825" transform="translate(0)">
    <path id="Trazado_345" data-name="Trazado 345" d="M42.854,2H11.265A5.27,5.27,0,0,0,6,7.265V38.854a5.27,5.27,0,0,0,5.265,5.265H42.854a5.27,5.27,0,0,0,5.265-5.265V7.265A5.27,5.27,0,0,0,42.854,2ZM11.265,38.854V7.265H42.854l.005,31.589Z" transform="translate(4.53 -2)" fill="#1d2345"/>
    <path id="Trazado_346" data-name="Trazado 346" d="M7.265,10.679H2V42.268a5.27,5.27,0,0,0,5.265,5.265H38.854V42.268H7.265ZM30.78,19.942,26.237,15.4l-3.722,3.722,8.619,8.619L46.143,9.734,42.094,6.359Z" transform="translate(-2 5.116)" fill="#1d2345"/>
  </g>
</svg>
