<svg width="1440" height="1024" viewBox="0 0 1440 1024" fill="none" xmlns="http://www.w3.org/2000/svg">
<g clip-path="url(#clip0_1_2)">
<rect width="1440" height="1024" fill="white"/>
<g clip-path="url(#clip1_1_2)">
<path d="M1488 0H-48V1024H1488V0Z" fill="url(#paint0_linear_1_2)"/>
<g opacity="0.42">
<path d="M900.675 202.609C902.009 202.609 903.091 201.527 903.091 200.192C903.091 198.857 902.009 197.775 900.675 197.775C899.34 197.775 898.258 198.857 898.258 200.192C898.258 201.527 899.34 202.609 900.675 202.609Z" fill="white"/>
<path d="M619.689 291.492C621.024 291.492 622.106 290.41 622.106 289.075C622.106 287.741 621.024 286.659 619.689 286.659C618.354 286.659 617.272 287.741 617.272 289.075C617.272 290.41 618.354 291.492 619.689 291.492Z" fill="white"/>
<path d="M938.378 424.428C939.713 424.428 940.795 423.346 940.795 422.011C940.795 420.676 939.713 419.594 938.378 419.594C937.044 419.594 935.962 420.676 935.962 422.011C935.962 423.346 937.044 424.428 938.378 424.428Z" fill="white"/>
<path d="M1008.97 539.341C1010.31 539.341 1011.39 538.259 1011.39 536.924C1011.39 535.59 1010.31 534.508 1008.97 534.508C1007.64 534.508 1006.56 535.59 1006.56 536.924C1006.56 538.259 1007.64 539.341 1008.97 539.341Z" fill="white"/>
<path d="M869.524 371.855C869.524 373.187 868.439 374.272 867.108 374.272C865.777 374.272 864.691 373.187 864.691 371.855C864.691 370.524 865.777 369.439 867.108 369.439C868.459 369.439 869.524 370.524 869.524 371.855Z" fill="white"/>
<path d="M1138.22 353.198C1139.56 353.198 1140.64 352.116 1140.64 350.781C1140.64 349.447 1139.56 348.365 1138.22 348.365C1136.89 348.365 1135.81 349.447 1135.81 350.781C1135.81 352.116 1136.89 353.198 1138.22 353.198Z" fill="white"/>
<path d="M805.77 134.41C805.77 135.741 804.685 136.827 803.354 136.827C802.022 136.827 800.937 135.741 800.937 134.41C800.937 133.079 802.022 131.994 803.354 131.994C804.685 131.994 805.77 133.079 805.77 134.41Z" fill="white"/>
<path d="M651.31 179.118C651.31 180.449 650.225 181.535 648.893 181.535C647.562 181.535 646.477 180.449 646.477 179.118C646.477 177.787 647.562 176.701 648.893 176.701C650.225 176.722 651.31 177.787 651.31 179.118Z" fill="white"/>
<path d="M571.172 183.542C572.506 183.542 573.589 182.46 573.589 181.125C573.589 179.79 572.506 178.708 571.172 178.708C569.837 178.708 568.755 179.79 568.755 181.125C568.755 182.46 569.837 183.542 571.172 183.542Z" fill="white"/>
<path d="M530.929 316.232C530.929 317.563 529.843 318.648 528.512 318.648C527.181 318.648 526.095 317.563 526.095 316.232C526.095 314.9 527.181 313.815 528.512 313.815C529.843 313.815 530.929 314.9 530.929 316.232Z" fill="white"/>
<path d="M578.34 392.827C579.674 392.827 580.756 391.745 580.756 390.41C580.756 389.076 579.674 387.994 578.34 387.994C577.005 387.994 575.923 389.076 575.923 390.41C575.923 391.745 577.005 392.827 578.34 392.827Z" fill="white"/>
<path d="M407.291 568.299C407.291 569.631 406.205 570.716 404.874 570.716C403.543 570.716 402.458 569.631 402.458 568.299C402.458 566.968 403.543 565.883 404.874 565.883C406.226 565.883 407.291 566.968 407.291 568.299Z" fill="white"/>
<path d="M424.699 521.421C424.699 522.752 423.613 523.837 422.282 523.837C420.951 523.837 419.866 522.752 419.866 521.421C419.866 520.09 420.951 519.004 422.282 519.004C423.613 519.004 424.699 520.09 424.699 521.421Z" fill="white"/>
<path d="M326.661 784.425C326.661 785.756 325.576 786.842 324.244 786.842C322.913 786.842 321.828 785.756 321.828 784.425C321.828 783.094 322.913 782.008 324.244 782.008C325.576 782.008 326.661 783.094 326.661 784.425Z" fill="white"/>
<path d="M365.184 705.27C365.184 706.601 364.099 707.686 362.767 707.686C361.436 707.686 360.351 706.601 360.351 705.27C360.351 703.939 361.436 702.853 362.767 702.853C364.099 702.853 365.184 703.939 365.184 705.27Z" fill="white"/>
<path d="M390.231 931.553C391.566 931.553 392.648 930.471 392.648 929.137C392.648 927.802 391.566 926.72 390.231 926.72C388.896 926.72 387.814 927.802 387.814 929.137C387.814 930.471 388.896 931.553 390.231 931.553Z" fill="white"/>
<path d="M305.731 981.135C305.731 982.467 304.645 983.552 303.314 983.552C301.983 983.552 300.897 982.467 300.897 981.135C300.897 979.804 301.983 978.719 303.314 978.719C304.645 978.719 305.731 979.804 305.731 981.135Z" fill="white"/>
<path d="M724.547 956.641C724.547 957.972 723.461 959.058 722.13 959.058C720.799 959.058 719.713 957.972 719.713 956.641C719.713 955.31 720.799 954.225 722.13 954.225C723.461 954.245 724.547 955.31 724.547 956.641Z" fill="white"/>
<path d="M885.069 937.472C885.069 938.803 883.983 939.889 882.652 939.889C881.321 939.889 880.236 938.803 880.236 937.472C880.236 936.141 881.321 935.055 882.652 935.055C884.004 935.055 885.069 936.141 885.069 937.472Z" fill="white"/>
<path d="M921.912 843.018C921.912 844.349 920.827 845.435 919.496 845.435C918.164 845.435 917.079 844.349 917.079 843.018C917.079 841.687 918.164 840.602 919.496 840.602C920.827 840.602 921.912 841.687 921.912 843.018Z" fill="white"/>
<path d="M747.689 820.019C747.689 821.35 746.604 822.436 745.272 822.436C743.941 822.436 742.856 821.35 742.856 820.019C742.856 818.688 743.941 817.603 745.272 817.603C746.604 817.603 747.689 818.688 747.689 820.019Z" fill="white"/>
<path d="M732.104 763.576C732.104 764.908 731.018 765.993 729.687 765.993C728.356 765.993 727.27 764.908 727.27 763.576C727.27 762.245 728.356 761.16 729.687 761.16C731.039 761.16 732.104 762.245 732.104 763.576Z" fill="white"/>
<path d="M694.953 765.563C694.953 766.894 693.868 767.98 692.536 767.98C691.205 767.98 690.12 766.894 690.12 765.563C690.12 764.232 691.205 763.146 692.536 763.146C693.868 763.146 694.953 764.232 694.953 765.563Z" fill="white"/>
<path d="M1147.72 796.815C1149.06 796.815 1150.14 795.733 1150.14 794.399C1150.14 793.064 1149.06 791.982 1147.72 791.982C1146.39 791.982 1145.31 793.064 1145.31 794.399C1145.31 795.733 1146.39 796.815 1147.72 796.815Z" fill="white"/>
<path d="M1047.27 779.612C1048.61 779.612 1049.69 778.53 1049.69 777.196C1049.69 775.861 1048.61 774.779 1047.27 774.779C1045.94 774.779 1044.85 775.861 1044.85 777.196C1044.85 778.53 1045.94 779.612 1047.27 779.612Z" fill="white"/>
<path d="M1156.14 699.617C1156.14 700.948 1155.06 702.034 1153.73 702.034C1152.39 702.034 1151.31 700.948 1151.31 699.617C1151.31 698.286 1152.39 697.201 1153.73 697.201C1155.06 697.201 1156.14 698.286 1156.14 699.617Z" fill="white"/>
<path d="M1181.11 587.899C1182.44 587.899 1183.52 586.817 1183.52 585.482C1183.52 584.148 1182.44 583.066 1181.11 583.066C1179.77 583.066 1178.69 584.148 1178.69 585.482C1178.69 586.817 1179.77 587.899 1181.11 587.899Z" fill="white"/>
<path d="M1128.94 551.035C1130.28 551.035 1131.36 549.953 1131.36 548.618C1131.36 547.284 1130.28 546.202 1128.94 546.202C1127.61 546.202 1126.53 547.284 1126.53 548.618C1126.53 549.953 1127.61 551.035 1128.94 551.035Z" fill="white"/>
<path d="M1151.17 448.164C1152.5 448.164 1153.58 447.082 1153.58 445.747C1153.58 444.413 1152.5 443.331 1151.17 443.331C1149.83 443.331 1148.75 444.413 1148.75 445.747C1148.75 447.082 1149.83 448.164 1151.17 448.164Z" fill="white"/>
<path d="M1164.46 448.205C1165.79 448.205 1166.87 447.123 1166.87 445.788C1166.87 444.453 1165.79 443.372 1164.46 443.372C1163.12 443.372 1162.04 444.453 1162.04 445.788C1162.04 447.123 1163.12 448.205 1164.46 448.205Z" fill="white"/>
<path d="M875.259 264.54C876.594 264.54 877.676 263.458 877.676 262.124C877.676 260.789 876.594 259.707 875.259 259.707C873.924 259.707 872.842 260.789 872.842 262.124C872.842 263.458 873.924 264.54 875.259 264.54Z" fill="white"/>
<path d="M693.478 342.036C694.813 342.036 695.895 340.955 695.895 339.62C695.895 338.285 694.813 337.203 693.478 337.203C692.144 337.203 691.062 338.285 691.062 339.62C691.062 340.955 692.144 342.036 693.478 342.036Z" fill="white"/>
<path d="M818.365 370.852C819.7 370.852 820.782 369.77 820.782 368.435C820.782 367.101 819.7 366.019 818.365 366.019C817.031 366.019 815.949 367.101 815.949 368.435C815.949 369.77 817.031 370.852 818.365 370.852Z" fill="white"/>
<path d="M392.033 370.586C392.033 371.917 390.948 373.002 389.617 373.002C388.285 373.002 387.2 371.917 387.2 370.586C387.2 369.254 388.285 368.169 389.617 368.169C390.968 368.189 392.033 369.254 392.033 370.586Z" fill="white"/>
<path d="M316.134 481.321C317.469 481.321 318.551 480.239 318.551 478.904C318.551 477.57 317.469 476.488 316.134 476.488C314.8 476.488 313.718 477.57 313.718 478.904C313.718 480.239 314.8 481.321 316.134 481.321Z" fill="white"/>
<path d="M289.592 560.312C289.592 561.644 288.507 562.729 287.176 562.729C285.844 562.729 284.759 561.644 284.759 560.312C284.759 558.981 285.844 557.896 287.176 557.896C288.527 557.896 289.592 558.981 289.592 560.312Z" fill="white"/>
<path d="M307.123 320.43C307.123 321.761 306.038 322.847 304.707 322.847C303.375 322.847 302.29 321.761 302.29 320.43C302.29 319.099 303.375 318.013 304.707 318.013C306.058 318.034 307.123 319.099 307.123 320.43Z" fill="white"/>
<path d="M320.865 133.222C320.865 134.554 319.78 135.639 318.449 135.639C317.117 135.639 316.032 134.554 316.032 133.222C316.032 131.891 317.117 130.806 318.449 130.806C319.78 130.806 320.865 131.891 320.865 133.222Z" fill="white"/>
<path d="M384.333 120.013C385.667 120.013 386.749 118.931 386.749 117.596C386.749 116.261 385.667 115.18 384.333 115.18C382.998 115.18 381.916 116.261 381.916 117.596C381.916 118.931 382.998 120.013 384.333 120.013Z" fill="white"/>
<path d="M697.677 105.492C697.677 106.824 696.591 107.909 695.26 107.909C693.929 107.909 692.844 106.824 692.844 105.492C692.844 104.161 693.929 103.076 695.26 103.076C696.612 103.076 697.677 104.161 697.677 105.492Z" fill="white"/>
<path d="M600.847 130.56C600.847 131.891 599.762 132.977 598.431 132.977C597.1 132.977 596.014 131.891 596.014 130.56C596.014 129.229 597.1 128.143 598.431 128.143C599.762 128.143 600.847 129.229 600.847 130.56Z" fill="white"/>
<path d="M879.13 103.956C880.464 103.956 881.546 102.875 881.546 101.54C881.546 100.205 880.464 99.1232 879.13 99.1232C877.795 99.1232 876.713 100.205 876.713 101.54C876.713 102.875 877.795 103.956 879.13 103.956Z" fill="white"/>
<path d="M856.213 176.968C856.213 178.299 855.127 179.384 853.796 179.384C852.465 179.384 851.379 178.299 851.379 176.968C851.379 175.636 852.465 174.551 853.796 174.551C855.127 174.551 856.213 175.636 856.213 176.968Z" fill="white"/>
<path d="M809.068 258.744C810.402 258.744 811.484 257.662 811.484 256.328C811.484 254.993 810.402 253.911 809.068 253.911C807.733 253.911 806.651 254.993 806.651 256.328C806.651 257.662 807.733 258.744 809.068 258.744Z" fill="white"/>
<path d="M645.473 349.348C645.473 350.679 644.388 351.764 643.057 351.764C641.725 351.764 640.64 350.679 640.64 349.348C640.64 348.017 641.725 346.931 643.057 346.931C644.388 346.931 645.473 348.017 645.473 349.348Z" fill="white"/>
<path d="M587.638 385.946C588.972 385.946 590.054 384.864 590.054 383.529C590.054 382.194 588.972 381.112 587.638 381.112C586.303 381.112 585.221 382.194 585.221 383.529C585.221 384.864 586.303 385.946 587.638 385.946Z" fill="white"/>
<path d="M503.526 491.008C504.861 491.008 505.943 489.926 505.943 488.591C505.943 487.257 504.861 486.175 503.526 486.175C502.192 486.175 501.11 487.257 501.11 488.591C501.11 489.926 502.192 491.008 503.526 491.008Z" fill="white"/>
<path d="M488.187 541.614C489.522 541.614 490.603 540.532 490.603 539.197C490.603 537.863 489.522 536.781 488.187 536.781C486.852 536.781 485.77 537.863 485.77 539.197C485.77 540.532 486.852 541.614 488.187 541.614Z" fill="white"/>
<path d="M503.67 622.961C505.004 622.961 506.086 621.879 506.086 620.544C506.086 619.209 505.004 618.127 503.67 618.127C502.335 618.127 501.253 619.209 501.253 620.544C501.253 621.879 502.335 622.961 503.67 622.961Z" fill="white"/>
<path d="M531.297 682.475C531.297 683.807 530.212 684.892 528.881 684.892C527.549 684.892 526.464 683.807 526.464 682.475C526.464 681.144 527.549 680.059 528.881 680.059C530.212 680.079 531.297 681.144 531.297 682.475Z" fill="white"/>
<path d="M661.796 721.162C663.13 721.162 664.212 720.08 664.212 718.746C664.212 717.411 663.13 716.329 661.796 716.329C660.461 716.329 659.379 717.411 659.379 718.746C659.379 720.08 660.461 721.162 661.796 721.162Z" fill="white"/>
<path d="M766.367 736.666C767.701 736.666 768.783 735.584 768.783 734.249C768.783 732.914 767.701 731.832 766.367 731.832C765.032 731.832 763.95 732.914 763.95 734.249C763.95 735.584 765.032 736.666 766.367 736.666Z" fill="white"/>
<path d="M807.818 744.366C807.818 745.697 806.733 746.783 805.402 746.783C804.07 746.783 802.985 745.697 802.985 744.366C802.985 743.035 804.07 741.949 805.402 741.949C806.733 741.949 807.818 743.035 807.818 744.366Z" fill="white"/>
<path d="M925.394 710.246C926.729 710.246 927.811 709.164 927.811 707.83C927.811 706.495 926.729 705.413 925.394 705.413C924.059 705.413 922.977 706.495 922.977 707.83C922.977 709.164 924.059 710.246 925.394 710.246Z" fill="white"/>
<path d="M935.429 634.368C935.429 635.699 934.344 636.785 933.013 636.785C931.681 636.785 930.596 635.699 930.596 634.368C930.596 633.037 931.681 631.951 933.013 631.951C934.344 631.951 935.429 633.037 935.429 634.368Z" fill="white"/>
<path d="M907.167 497.091C908.501 497.091 909.583 496.009 909.583 494.674C909.583 493.339 908.501 492.257 907.167 492.257C905.832 492.257 904.75 493.339 904.75 494.674C904.75 496.009 905.832 497.091 907.167 497.091Z" fill="white"/>
<path d="M876.488 467.313C876.488 468.644 875.402 469.729 874.071 469.729C872.74 469.729 871.654 468.644 871.654 467.313C871.654 465.981 872.74 464.896 874.071 464.896C875.402 464.916 876.488 465.981 876.488 467.313Z" fill="white"/>
<path d="M874.583 411.464C875.918 411.464 877 410.382 877 409.047C877 407.712 875.918 406.63 874.583 406.63C873.248 406.63 872.166 407.712 872.166 409.047C872.166 410.382 873.248 411.464 874.583 411.464Z" fill="white"/>
<path d="M566.011 430.776C566.011 432.108 564.925 433.193 563.594 433.193C562.263 433.193 561.178 432.108 561.178 430.776C561.178 429.445 562.263 428.36 563.594 428.36C564.925 428.38 566.011 429.445 566.011 430.776Z" fill="white"/>
<path d="M554.604 471.552C554.604 472.883 553.518 473.969 552.187 473.969C550.856 473.969 549.77 472.883 549.77 471.552C549.77 470.221 550.856 469.135 552.187 469.135C553.518 469.135 554.604 470.221 554.604 471.552Z" fill="white"/>
<path d="M556.693 574.013C556.693 575.345 555.607 576.43 554.276 576.43C552.945 576.43 551.859 575.345 551.859 574.013C551.859 572.682 552.945 571.597 554.276 571.597C555.627 571.597 556.693 572.682 556.693 574.013Z" fill="white"/>
<path d="M845.338 682.947C846.672 682.947 847.754 681.865 847.754 680.53C847.754 679.195 846.672 678.113 845.338 678.113C844.003 678.113 842.921 679.195 842.921 680.53C842.921 681.865 844.003 682.947 845.338 682.947Z" fill="white"/>
<path d="M872.863 653.251C872.863 654.582 871.777 655.667 870.446 655.667C869.115 655.667 868.029 654.582 868.029 653.251C868.029 651.919 869.115 650.834 870.446 650.834C871.777 650.854 872.863 651.919 872.863 653.251Z" fill="white"/>
<path d="M895.841 638.095C897.176 638.095 898.258 637.013 898.258 635.679C898.258 634.344 897.176 633.262 895.841 633.262C894.507 633.262 893.425 634.344 893.425 635.679C893.425 637.013 894.507 638.095 895.841 638.095Z" fill="white"/>
<path d="M950.871 608.747C950.871 610.079 949.786 611.164 948.454 611.164C947.123 611.164 946.038 610.079 946.038 608.747C946.038 607.416 947.123 606.331 948.454 606.331C949.786 606.351 950.871 607.416 950.871 608.747Z" fill="white"/>
<path d="M983.373 558.469C983.373 559.8 982.287 560.886 980.956 560.886C979.625 560.886 978.54 559.8 978.54 558.469C978.54 557.138 979.625 556.053 980.956 556.053C982.308 556.073 983.373 557.138 983.373 558.469Z" fill="white"/>
<path d="M993.162 510.116C994.497 510.116 995.579 509.034 995.579 507.699C995.579 506.365 994.497 505.283 993.162 505.283C991.828 505.283 990.746 506.365 990.746 507.699C990.746 509.034 991.828 510.116 993.162 510.116Z" fill="white"/>
<path d="M999.941 478.188C999.941 479.519 998.856 480.604 997.524 480.604C996.193 480.604 995.108 479.519 995.108 478.188C995.108 476.856 996.193 475.771 997.524 475.771C998.876 475.791 999.941 476.856 999.941 478.188Z" fill="white"/>
<path d="M946.796 476.856C946.796 478.188 945.71 479.273 944.379 479.273C943.048 479.273 941.962 478.188 941.962 476.856C941.962 475.525 943.048 474.44 944.379 474.44C945.731 474.46 946.796 475.525 946.796 476.856Z" fill="white"/>
<path d="M967.48 423.629C968.815 423.629 969.897 422.547 969.897 421.212C969.897 419.877 968.815 418.796 967.48 418.796C966.146 418.796 965.064 419.877 965.064 421.212C965.064 422.547 966.146 423.629 967.48 423.629Z" fill="white"/>
<path d="M977.659 426.455C977.659 427.786 976.573 428.872 975.242 428.872C973.911 428.872 972.826 427.786 972.826 426.455C972.826 425.124 973.911 424.038 975.242 424.038C976.594 424.038 977.659 425.124 977.659 426.455Z" fill="white"/>
<path d="M1043.09 536.883C1043.09 538.214 1042.01 539.3 1040.68 539.3C1039.34 539.3 1038.26 538.214 1038.26 536.883C1038.26 535.552 1039.34 534.467 1040.68 534.467C1042.01 534.467 1043.09 535.552 1043.09 536.883Z" fill="white"/>
<path d="M1013.13 592.015C1014.46 592.015 1015.55 590.933 1015.55 589.599C1015.55 588.264 1014.46 587.182 1013.13 587.182C1011.8 587.182 1010.71 588.264 1010.71 589.599C1010.71 590.933 1011.8 592.015 1013.13 592.015Z" fill="white"/>
<path d="M1011.33 586.588C1011.33 587.919 1010.24 589.005 1008.91 589.005C1007.58 589.005 1006.49 587.919 1006.49 586.588C1006.49 585.257 1007.58 584.172 1008.91 584.172C1010.26 584.172 1011.33 585.257 1011.33 586.588Z" fill="white"/>
<path d="M937.026 762.511C938.361 762.511 939.443 761.429 939.443 760.095C939.443 758.76 938.361 757.678 937.026 757.678C935.692 757.678 934.61 758.76 934.61 760.095C934.61 761.429 935.692 762.511 937.026 762.511Z" fill="white"/>
</g>
<path d="M579.302 270.684C580.637 270.684 581.719 269.602 581.719 268.268C581.719 266.933 580.637 265.851 579.302 265.851C577.968 265.851 576.886 266.933 576.886 268.268C576.886 269.602 577.968 270.684 579.302 270.684Z" fill="white"/>
<path d="M715.351 313.139C715.351 314.47 714.266 315.556 712.934 315.556C711.603 315.556 710.518 314.47 710.518 313.139C710.518 311.808 711.603 310.723 712.934 310.723C714.266 310.723 715.351 311.808 715.351 313.139Z" fill="white"/>
<path d="M561.935 369.603C563.27 369.603 564.352 368.521 564.352 367.186C564.352 365.851 563.27 364.769 561.935 364.769C560.601 364.769 559.519 365.851 559.519 367.186C559.519 368.521 560.601 369.603 561.935 369.603Z" fill="white"/>
<path d="M587.699 326.451C587.699 327.782 586.614 328.868 585.283 328.868C583.951 328.868 582.866 327.782 582.866 326.451C582.866 325.12 583.951 324.035 585.283 324.035C586.614 324.035 587.699 325.12 587.699 326.451Z" fill="white"/>
<path d="M854.287 388.301C854.287 389.632 853.202 390.717 851.871 390.717C850.54 390.717 849.454 389.632 849.454 388.301C849.454 386.97 850.54 385.884 851.871 385.884C853.202 385.884 854.287 386.97 854.287 388.301Z" fill="white"/>
<path d="M554.399 448.635C555.733 448.635 556.815 447.553 556.815 446.218C556.815 444.884 555.733 443.802 554.399 443.802C553.064 443.802 551.982 444.884 551.982 446.218C551.982 447.553 553.064 448.635 554.399 448.635Z" fill="white"/>
<path d="M547.251 532.869C547.251 534.2 546.166 535.286 544.835 535.286C543.503 535.286 542.418 534.2 542.418 532.869C542.418 531.538 543.503 530.452 544.835 530.452C546.166 530.452 547.251 531.538 547.251 532.869Z" fill="white"/>
<path d="M888.96 504.259C888.96 505.59 887.875 506.675 886.543 506.675C885.212 506.675 884.127 505.59 884.127 504.259C884.127 502.927 885.212 501.842 886.543 501.842C887.875 501.842 888.96 502.927 888.96 504.259Z" fill="white"/>
<path d="M911.898 438.907C913.232 438.907 914.314 437.825 914.314 436.49C914.314 435.156 913.232 434.074 911.898 434.074C910.563 434.074 909.481 435.156 909.481 436.49C909.481 437.825 910.563 438.907 911.898 438.907Z" fill="white"/>
<path d="M811.853 316.805C811.853 318.136 810.767 319.222 809.436 319.222C808.105 319.222 807.02 318.136 807.02 316.805C807.02 315.474 808.105 314.388 809.436 314.388C810.767 314.409 811.853 315.474 811.853 316.805Z" fill="white"/>
<path d="M853.939 249.569C855.274 249.569 856.356 248.487 856.356 247.153C856.356 245.818 855.274 244.736 853.939 244.736C852.605 244.736 851.523 245.818 851.523 247.153C851.523 248.487 852.605 249.569 853.939 249.569Z" fill="white"/>
<path d="M674.207 222.228C675.541 222.228 676.623 221.147 676.623 219.812C676.623 218.477 675.541 217.395 674.207 217.395C672.872 217.395 671.79 218.477 671.79 219.812C671.79 221.147 672.872 222.228 674.207 222.228Z" fill="white"/>
<path d="M676.603 264.663C676.603 265.994 675.517 267.08 674.186 267.08C672.855 267.08 671.77 265.994 671.77 264.663C671.77 263.332 672.855 262.246 674.186 262.246C675.517 262.267 676.603 263.332 676.603 264.663Z" fill="white"/>
<path d="M1000.56 572.088C1001.89 572.088 1002.97 571.006 1002.97 569.672C1002.97 568.337 1001.89 567.255 1000.56 567.255C999.221 567.255 998.139 568.337 998.139 569.672C998.139 571.006 999.221 572.088 1000.56 572.088Z" fill="white"/>
<path d="M964.306 700.867C964.306 702.198 963.22 703.283 961.889 703.283C960.558 703.283 959.473 702.198 959.473 700.867C959.473 699.535 960.558 698.45 961.889 698.45C963.22 698.45 964.306 699.535 964.306 700.867Z" fill="white"/>
<path d="M965.78 801.833C967.115 801.833 968.197 800.751 968.197 799.416C968.197 798.082 967.115 797 965.78 797C964.446 797 963.364 798.082 963.364 799.416C963.364 800.751 964.446 801.833 965.78 801.833Z" fill="white"/>
<path d="M794.65 880.722C794.65 882.053 793.564 883.139 792.233 883.139C790.902 883.139 789.816 882.053 789.816 880.722C789.816 879.391 790.902 878.305 792.233 878.305C793.564 878.305 794.65 879.391 794.65 880.722Z" fill="white"/>
<path d="M718.423 892.908C719.758 892.908 720.84 891.826 720.84 890.491C720.84 889.156 719.758 888.074 718.423 888.074C717.088 888.074 716.006 889.156 716.006 890.491C716.006 891.826 717.088 892.908 718.423 892.908Z" fill="white"/>
<path d="M683.402 828.969C684.737 828.969 685.819 827.887 685.819 826.552C685.819 825.218 684.737 824.136 683.402 824.136C682.068 824.136 680.986 825.218 680.986 826.552C680.986 827.887 682.068 828.969 683.402 828.969Z" fill="white"/>
<path d="M765.24 817.336C766.575 817.336 767.657 816.254 767.657 814.92C767.657 813.585 766.575 812.503 765.24 812.503C763.906 812.503 762.824 813.585 762.824 814.92C762.824 816.254 763.906 817.336 765.24 817.336Z" fill="white"/>
<path d="M752.215 769.966C752.215 771.297 751.13 772.383 749.798 772.383C748.467 772.383 747.382 771.297 747.382 769.966C747.382 768.635 748.467 767.549 749.798 767.549C751.13 767.549 752.215 768.635 752.215 769.966Z" fill="white"/>
<path d="M714.388 780.309C715.723 780.309 716.805 779.227 716.805 777.892C716.805 776.557 715.723 775.475 714.388 775.475C713.054 775.475 711.972 776.557 711.972 777.892C711.972 779.227 713.054 780.309 714.388 780.309Z" fill="white"/>
<path d="M386.381 697.549C387.715 697.549 388.797 696.467 388.797 695.132C388.797 693.798 387.715 692.716 386.381 692.716C385.046 692.716 383.964 693.798 383.964 695.132C383.964 696.467 385.046 697.549 386.381 697.549Z" fill="white"/>
<path d="M440.612 751.78C441.947 751.78 443.028 750.698 443.028 749.363C443.028 748.029 441.947 746.947 440.612 746.947C439.277 746.947 438.195 748.029 438.195 749.363C438.195 750.698 439.277 751.78 440.612 751.78Z" fill="white"/>
<path d="M607.032 695.132C607.032 696.463 605.947 697.549 604.616 697.549C603.284 697.549 602.199 696.463 602.199 695.132C602.199 693.801 603.284 692.716 604.616 692.716C605.947 692.736 607.032 693.801 607.032 695.132Z" fill="white"/>
<path d="M540.943 576.246C542.278 576.246 543.36 575.164 543.36 573.829C543.36 572.494 542.278 571.413 540.943 571.413C539.609 571.413 538.527 572.494 538.527 573.829C538.527 575.164 539.609 576.246 540.943 576.246Z" fill="white"/>
<path d="M429.266 569.631C429.266 570.962 428.18 572.047 426.849 572.047C425.518 572.047 424.433 570.962 424.433 569.631C424.433 568.3 425.518 567.214 426.849 567.214C428.201 567.235 429.266 568.32 429.266 569.631Z" fill="white"/>
<path d="M235.238 97.8739C235.238 99.2051 234.153 100.291 232.822 100.291C231.491 100.291 230.405 99.2051 230.405 97.8739C230.405 96.5427 231.491 95.4573 232.822 95.4573C234.153 95.4778 235.238 96.5427 235.238 97.8739Z" fill="white"/>
<path d="M368.891 142.746C368.891 144.077 367.805 145.162 366.474 145.162C365.143 145.162 364.058 144.077 364.058 142.746C364.058 141.414 365.143 140.329 366.474 140.329C367.805 140.329 368.891 141.414 368.891 142.746Z" fill="white"/>
<path d="M215.475 199.209C216.81 199.209 217.892 198.127 217.892 196.792C217.892 195.458 216.81 194.376 215.475 194.376C214.141 194.376 213.059 195.458 213.059 196.792C213.059 198.127 214.141 199.209 215.475 199.209Z" fill="white"/>
<path d="M238.822 158.474C240.157 158.474 241.239 157.392 241.239 156.058C241.239 154.723 240.157 153.641 238.822 153.641C237.488 153.641 236.406 154.723 236.406 156.058C236.406 157.392 237.488 158.474 238.822 158.474Z" fill="white"/>
<path d="M507.827 217.907C507.827 219.238 506.742 220.324 505.411 220.324C504.079 220.324 502.994 219.238 502.994 217.907C502.994 216.576 504.079 215.491 505.411 215.491C506.742 215.491 507.827 216.576 507.827 217.907Z" fill="white"/>
<path d="M207.939 278.241C209.273 278.241 210.355 277.159 210.355 275.825C210.355 274.49 209.273 273.408 207.939 273.408C206.604 273.408 205.522 274.49 205.522 275.825C205.522 277.159 206.604 278.241 207.939 278.241Z" fill="white"/>
<path d="M198.374 364.892C199.709 364.892 200.791 363.81 200.791 362.476C200.791 361.141 199.709 360.059 198.374 360.059C197.04 360.059 195.958 361.141 195.958 362.476C195.958 363.81 197.04 364.892 198.374 364.892Z" fill="white"/>
<path d="M542.5 333.865C542.5 335.196 541.414 336.282 540.083 336.282C538.752 336.282 537.667 335.196 537.667 333.865C537.667 332.534 538.752 331.448 540.083 331.448C541.414 331.448 542.5 332.534 542.5 333.865Z" fill="white"/>
<path d="M567.834 266.097C567.834 267.428 566.748 268.513 565.417 268.513C564.086 268.513 563 267.428 563 266.097C563 264.765 564.086 263.68 565.417 263.68C566.748 263.7 567.834 264.765 567.834 266.097Z" fill="white"/>
<path d="M465.393 146.432C465.393 147.763 464.307 148.849 462.976 148.849C461.645 148.849 460.559 147.763 460.559 146.432C460.559 145.101 461.645 144.015 462.976 144.015C464.307 144.015 465.393 145.101 465.393 146.432Z" fill="white"/>
<path d="M509.875 76.759C509.875 78.0902 508.79 79.1757 507.459 79.1757C506.127 79.1757 505.042 78.0902 505.042 76.759C505.042 75.4278 506.127 74.3424 507.459 74.3424C508.81 74.3424 509.875 75.4278 509.875 76.759Z" fill="white"/>
<path d="M330.143 49.4387C330.143 50.7699 329.057 51.8553 327.726 51.8553C326.395 51.8553 325.309 50.7699 325.309 49.4387C325.309 48.1075 326.395 47.0221 327.726 47.0221C329.078 47.0221 330.143 48.1075 330.143 49.4387Z" fill="white"/>
<path d="M330.143 94.2899C330.143 95.6211 329.057 96.7065 327.726 96.7065C326.395 96.7065 325.309 95.6211 325.309 94.2899C325.309 92.9587 326.395 91.8733 327.726 91.8733C329.057 91.8733 330.143 92.9587 330.143 94.2899Z" fill="white"/>
<path d="M654.095 401.715C655.43 401.715 656.512 400.633 656.512 399.299C656.512 397.964 655.43 396.882 654.095 396.882C652.761 396.882 651.679 397.964 651.679 399.299C651.679 400.633 652.761 401.715 654.095 401.715Z" fill="white"/>
<path d="M617.825 530.473C617.825 531.804 616.74 532.89 615.409 532.89C614.077 532.89 612.992 531.804 612.992 530.473C612.992 529.142 614.077 528.056 615.409 528.056C616.76 528.056 617.825 529.142 617.825 530.473Z" fill="white"/>
<path d="M621.717 629.023C621.717 630.354 620.631 631.439 619.3 631.439C617.969 631.439 616.883 630.354 616.883 629.023C616.883 627.692 617.969 626.606 619.3 626.606C620.631 626.627 621.717 627.692 621.717 629.023Z" fill="white"/>
<path d="M445.773 712.745C447.108 712.745 448.189 711.663 448.189 710.328C448.189 708.994 447.108 707.912 445.773 707.912C444.438 707.912 443.356 708.994 443.356 710.328C443.356 711.663 444.438 712.745 445.773 712.745Z" fill="white"/>
<path d="M371.963 722.514C373.298 722.514 374.38 721.432 374.38 720.097C374.38 718.763 373.298 717.681 371.963 717.681C370.628 717.681 369.546 718.763 369.546 720.097C369.546 721.432 370.628 722.514 371.963 722.514Z" fill="white"/>
<path d="M339.338 656.179C339.338 657.51 338.253 658.596 336.922 658.596C335.59 658.596 334.505 657.51 334.505 656.179C334.505 654.848 335.59 653.763 336.922 653.763C338.273 653.763 339.338 654.848 339.338 656.179Z" fill="white"/>
<path d="M421.197 644.526C421.197 645.857 420.111 646.943 418.78 646.943C417.449 646.943 416.364 645.857 416.364 644.526C416.364 643.195 417.449 642.109 418.78 642.109C420.111 642.13 421.197 643.195 421.197 644.526Z" fill="white"/>
<path d="M405.734 599.572C405.734 600.904 404.649 601.989 403.318 601.989C401.987 601.989 400.901 600.904 400.901 599.572C400.901 598.241 401.987 597.156 403.318 597.156C404.669 597.176 405.734 598.241 405.734 599.572Z" fill="white"/>
<path d="M370.324 607.498C370.324 608.829 369.239 609.915 367.908 609.915C366.577 609.915 365.491 608.829 365.491 607.498C365.491 606.167 366.577 605.082 367.908 605.082C369.239 605.082 370.324 606.167 370.324 607.498Z" fill="white"/>
<path d="M42.3373 524.739C42.3373 526.07 41.2518 527.155 39.9206 527.155C38.5894 527.155 37.504 526.07 37.504 524.739C37.504 523.407 38.5894 522.322 39.9206 522.322C41.2518 522.322 42.3373 523.407 42.3373 524.739Z" fill="white"/>
<path d="M94.1312 581.386C95.4659 581.386 96.5479 580.304 96.5479 578.97C96.5479 577.635 95.4659 576.553 94.1312 576.553C92.7965 576.553 91.7146 577.635 91.7146 578.97C91.7146 580.304 92.7965 581.386 94.1312 581.386Z" fill="white"/>
<path d="M260.552 524.759C260.552 526.09 259.466 527.176 258.135 527.176C256.804 527.176 255.718 526.09 255.718 524.759C255.718 523.428 256.804 522.342 258.135 522.342C259.487 522.342 260.552 523.428 260.552 524.759Z" fill="white"/>
<path d="M194.483 405.873C195.818 405.873 196.9 404.791 196.9 403.456C196.9 402.121 195.818 401.039 194.483 401.039C193.149 401.039 192.067 402.121 192.067 403.456C192.067 404.791 193.149 405.873 194.483 405.873Z" fill="white"/>
<path d="M82.8058 399.258C82.8058 400.589 81.7203 401.674 80.3891 401.674C79.0579 401.674 77.9725 400.589 77.9725 399.258C77.9725 397.926 79.0579 396.841 80.3891 396.841C81.7203 396.841 82.8058 397.926 82.8058 399.258Z" fill="white"/>
<path d="M950.359 333.926C950.359 335.258 949.274 336.343 947.942 336.343C946.611 336.343 945.526 335.258 945.526 333.926C945.526 332.595 946.611 331.51 947.942 331.51C949.294 331.53 950.359 332.595 950.359 333.926Z" fill="white"/>
<path d="M1084.01 378.798C1084.01 380.129 1082.93 381.215 1081.59 381.215C1080.26 381.215 1079.18 380.129 1079.18 378.798C1079.18 377.467 1080.26 376.381 1081.59 376.381C1082.93 376.381 1084.01 377.467 1084.01 378.798Z" fill="white"/>
<path d="M932.992 432.845C932.992 434.176 931.907 435.261 930.575 435.261C929.244 435.261 928.159 434.176 928.159 432.845C928.159 431.514 929.244 430.428 930.575 430.428C931.927 430.428 932.992 431.514 932.992 432.845Z" fill="white"/>
<path d="M956.36 392.11C956.36 393.441 955.274 394.527 953.943 394.527C952.612 394.527 951.526 393.441 951.526 392.11C951.526 390.779 952.612 389.693 953.943 389.693C955.274 389.693 956.36 390.779 956.36 392.11Z" fill="white"/>
<path d="M1220.53 456.376C1221.87 456.376 1222.95 455.294 1222.95 453.96C1222.95 452.625 1221.87 451.543 1220.53 451.543C1219.2 451.543 1218.11 452.625 1218.11 453.96C1218.11 455.294 1219.2 456.376 1220.53 456.376Z" fill="white"/>
<path d="M925.476 511.877C925.476 513.208 924.39 514.294 923.059 514.294C921.728 514.294 920.643 513.208 920.643 511.877C920.643 510.546 921.728 509.46 923.059 509.46C924.39 509.46 925.476 510.546 925.476 511.877Z" fill="white"/>
<path d="M915.912 598.528C915.912 599.859 914.826 600.945 913.495 600.945C912.164 600.945 911.078 599.859 911.078 598.528C911.078 597.197 912.164 596.111 913.495 596.111C914.826 596.111 915.912 597.197 915.912 598.528Z" fill="white"/>
<path d="M1257.62 569.917C1257.62 571.249 1256.54 572.334 1255.2 572.334C1253.87 572.334 1252.79 571.249 1252.79 569.917C1252.79 568.586 1253.87 567.501 1255.2 567.501C1256.54 567.501 1257.62 568.586 1257.62 569.917Z" fill="white"/>
<path d="M1280.56 504.566C1281.89 504.566 1282.97 503.484 1282.97 502.149C1282.97 500.814 1281.89 499.732 1280.56 499.732C1279.22 499.732 1278.14 500.814 1278.14 502.149C1278.14 503.484 1279.22 504.566 1280.56 504.566Z" fill="white"/>
<path d="M1178.1 384.901C1179.43 384.901 1180.51 383.819 1180.51 382.484C1180.51 381.15 1179.43 380.068 1178.1 380.068C1176.76 380.068 1175.68 381.15 1175.68 382.484C1175.68 383.819 1176.76 384.901 1178.1 384.901Z" fill="white"/>
<path d="M1222.6 315.228C1223.93 315.228 1225.02 314.146 1225.02 312.812C1225.02 311.477 1223.93 310.395 1222.6 310.395C1221.26 310.395 1220.18 311.477 1220.18 312.812C1220.18 314.146 1221.26 315.228 1222.6 315.228Z" fill="white"/>
<path d="M1045.28 285.491C1045.28 286.822 1044.2 287.908 1042.87 287.908C1041.54 287.908 1040.45 286.822 1040.45 285.491C1040.45 284.16 1041.54 283.075 1042.87 283.075C1044.2 283.075 1045.28 284.16 1045.28 285.491Z" fill="white"/>
<path d="M1045.26 330.342C1045.26 331.674 1044.18 332.759 1042.85 332.759C1041.52 332.759 1040.43 331.674 1040.43 330.342C1040.43 329.011 1041.52 327.926 1042.85 327.926C1044.18 327.926 1045.26 329.011 1045.26 330.342Z" fill="white"/>
<path d="M1369.22 637.768C1370.55 637.768 1371.63 636.686 1371.63 635.351C1371.63 634.016 1370.55 632.934 1369.22 632.934C1367.88 632.934 1366.8 634.016 1366.8 635.351C1366.8 636.686 1367.88 637.768 1369.22 637.768Z" fill="white"/>
<path d="M1332.97 766.525C1332.97 767.857 1331.88 768.942 1330.55 768.942C1329.22 768.942 1328.13 767.857 1328.13 766.525C1328.13 765.194 1329.22 764.109 1330.55 764.109C1331.88 764.109 1332.97 765.194 1332.97 766.525Z" fill="white"/>
<path d="M1334.44 867.492C1335.78 867.492 1336.86 866.41 1336.86 865.075C1336.86 863.74 1335.78 862.659 1334.44 862.659C1333.11 862.659 1332.02 863.74 1332.02 865.075C1332.02 866.41 1333.11 867.492 1334.44 867.492Z" fill="white"/>
<path d="M1163.31 946.381C1163.31 947.712 1162.22 948.797 1160.89 948.797C1159.56 948.797 1158.48 947.712 1158.48 946.381C1158.48 945.05 1159.56 943.964 1160.89 943.964C1162.22 943.985 1163.31 945.05 1163.31 946.381Z" fill="white"/>
<path d="M1089.5 956.15C1089.5 957.481 1088.41 958.566 1087.08 958.566C1085.75 958.566 1084.67 957.481 1084.67 956.15C1084.67 954.819 1085.75 953.733 1087.08 953.733C1088.41 953.754 1089.5 954.819 1089.5 956.15Z" fill="white"/>
<path d="M1052.06 894.648C1053.4 894.648 1054.48 893.566 1054.48 892.232C1054.48 890.897 1053.4 889.815 1052.06 889.815C1050.73 889.815 1049.65 890.897 1049.65 892.232C1049.65 893.566 1050.73 894.648 1052.06 894.648Z" fill="white"/>
<path d="M1133.9 882.995C1135.24 882.995 1136.32 881.913 1136.32 880.579C1136.32 879.244 1135.24 878.162 1133.9 878.162C1132.57 878.162 1131.48 879.244 1131.48 880.579C1131.48 881.913 1132.57 882.995 1133.9 882.995Z" fill="white"/>
<path d="M1120.88 835.625C1120.88 836.956 1119.79 838.042 1118.46 838.042C1117.13 838.042 1116.04 836.956 1116.04 835.625C1116.04 834.294 1117.13 833.208 1118.46 833.208C1119.79 833.229 1120.88 834.294 1120.88 835.625Z" fill="white"/>
<path d="M1083.05 845.967C1084.38 845.967 1085.47 844.885 1085.47 843.551C1085.47 842.216 1084.38 841.134 1083.05 841.134C1081.71 841.134 1080.63 842.216 1080.63 843.551C1080.63 844.885 1081.71 845.967 1083.05 845.967Z" fill="white"/>
<path d="M755.041 763.208C756.376 763.208 757.458 762.126 757.458 760.791C757.458 759.456 756.376 758.374 755.041 758.374C753.707 758.374 752.625 759.456 752.625 760.791C752.625 762.126 753.707 763.208 755.041 763.208Z" fill="white"/>
<path d="M811.669 815.022C811.669 816.353 810.583 817.439 809.252 817.439C807.921 817.439 806.835 816.353 806.835 815.022C806.835 813.691 807.921 812.605 809.252 812.605C810.604 812.605 811.669 813.691 811.669 815.022Z" fill="white"/>
<path d="M975.693 760.791C975.693 762.122 974.607 763.208 973.276 763.208C971.945 763.208 970.859 762.122 970.859 760.791C970.859 759.46 971.945 758.374 973.276 758.374C974.607 758.395 975.693 759.48 975.693 760.791Z" fill="white"/>
<path d="M909.604 641.925C910.938 641.925 912.021 640.843 912.021 639.508C912.021 638.174 910.938 637.092 909.604 637.092C908.269 637.092 907.187 638.174 907.187 639.508C907.187 640.843 908.269 641.925 909.604 641.925Z" fill="white"/>
<path d="M797.926 635.31C797.926 636.641 796.841 637.727 795.51 637.727C794.179 637.727 793.093 636.641 793.093 635.31C793.093 633.979 794.179 632.893 795.51 632.893C796.861 632.893 797.926 633.979 797.926 635.31Z" fill="white"/>
<path d="M606.766 362.127C606.766 363.459 605.681 364.544 604.349 364.544C603.018 364.544 601.933 363.459 601.933 362.127C601.933 360.796 603.018 359.711 604.349 359.711C605.681 359.731 606.766 360.796 606.766 362.127Z" fill="white"/>
<path d="M657.618 316.989C657.618 318.321 656.532 319.406 655.201 319.406C653.87 319.406 652.785 318.321 652.785 316.989C652.785 315.658 653.87 314.573 655.201 314.573C656.532 314.593 657.618 315.658 657.618 316.989Z" fill="white"/>
<path d="M620.324 346.522C621.658 346.522 622.741 345.44 622.741 344.105C622.741 342.77 621.658 341.688 620.324 341.688C618.989 341.688 617.907 342.77 617.907 344.105C617.907 345.44 618.989 346.522 620.324 346.522Z" fill="white"/>
<path d="M738.596 301.568C738.596 302.899 737.51 303.985 736.179 303.985C734.848 303.985 733.763 302.899 733.763 301.568C733.763 300.237 734.848 299.151 736.179 299.151C737.51 299.172 738.596 300.237 738.596 301.568Z" fill="white"/>
<path d="M790.758 346.235C790.758 347.566 789.673 348.652 788.342 348.652C787.011 348.652 785.925 347.566 785.925 346.235C785.925 344.904 787.011 343.818 788.342 343.818C789.693 343.818 790.758 344.904 790.758 346.235Z" fill="white"/>
<path d="M599.373 241.603C599.373 242.934 598.287 244.019 596.956 244.019C595.625 244.019 594.539 242.934 594.539 241.603C594.539 240.271 595.625 239.186 596.956 239.186C598.308 239.206 599.373 240.271 599.373 241.603Z" fill="white"/>
<path d="M484.951 336.978C486.286 336.978 487.368 335.896 487.368 334.561C487.368 333.227 486.286 332.145 484.951 332.145C483.616 332.145 482.534 333.227 482.534 334.561C482.534 335.896 483.616 336.978 484.951 336.978Z" fill="white"/>
<path d="M940.733 883.917C940.733 885.248 939.648 886.333 938.317 886.333C936.986 886.333 935.9 885.248 935.9 883.917C935.9 882.586 936.986 881.5 938.317 881.5C939.648 881.5 940.733 882.586 940.733 883.917Z" fill="white"/>
<path opacity="0.5" d="M167.409 312.033C235.567 312.033 290.821 256.78 290.821 188.621C290.821 120.462 235.567 65.2083 167.409 65.2083C99.2498 65.2083 43.9962 120.462 43.9962 188.621C43.9962 256.78 99.2498 312.033 167.409 312.033Z" fill="url(#paint1_linear_1_2)"/>
<path opacity="0.5" d="M1489.5 0V404.439C1462.09 411.689 1433.3 415.539 1403.6 415.539C1218.38 415.539 1068.22 265.38 1068.22 80.1587C1068.22 52.5312 1071.56 25.6819 1077.87 0H1489.5V0Z" fill="url(#paint2_linear_1_2)"/>
<path opacity="0.5" d="M278.021 948.388C357.321 948.388 421.606 884.103 421.606 804.803C421.606 725.503 357.321 661.217 278.021 661.217C198.721 661.217 134.436 725.503 134.436 804.803C134.436 884.103 198.721 948.388 278.021 948.388Z" fill="url(#paint3_linear_1_2)"/>
<path opacity="0.5" d="M1157.72 928.399C1197.63 928.399 1229.99 896.041 1229.99 856.125C1229.99 816.21 1197.63 783.852 1157.72 783.852C1117.8 783.852 1085.45 816.21 1085.45 856.125C1085.45 896.041 1117.8 928.399 1157.72 928.399Z" fill="url(#paint4_linear_1_2)"/>
<path d="M981.317 657.703C977.858 651.104 963.805 645.793 957.525 644.593C923.965 638.181 888.813 639.076 854.81 639.184C817.781 639.302 782.452 645.233 745.737 647.977C726.642 649.403 706.457 646.836 687.323 646.177C655.807 645.085 624.291 643.797 592.794 642.331C565.632 641.063 537.437 643.905 513.478 658.893C510.756 660.595 508.004 662.65 506.766 665.709C498.983 684.907 595.988 682.497 608.626 682.832C672.376 684.494 736.165 685.35 799.925 683.629C847.331 682.34 896.733 682.419 943.747 675.731C954.144 674.246 968.296 673.715 977.278 667.597C982.221 664.204 982.938 660.811 981.317 657.703Z" fill="#E7F5FE"/>
<path d="M940.052 395.62C940.691 395.62 941.349 395.63 942.018 395.649" stroke="#D2E8F9" stroke-miterlimit="10"/>
<path d="M945.939 395.866C962.763 397.203 984.54 404.176 982.093 419.008C978.33 441.815 877.02 433.406 852.825 433.642C804.16 434.114 754.984 434.301 707.273 444.952C695.667 447.539 679.059 453.253 680.316 468.075C680.759 473.248 683.805 477.929 687.677 481.43C701.612 494.019 721.021 495.229 739.044 497.442C766.305 500.786 895.967 496.331 938.352 510.237C946.695 512.981 957.132 516.512 957.476 528.442C958.36 558.783 883.064 557.288 860.48 557.868C800.2 559.402 739.85 558.793 679.56 557.603C630.846 556.639 581.975 555.793 533.329 552.646C515.198 551.475 485.549 551.121 471.712 537.5C463.978 529.888 462.966 516.04 475.191 508.959C483.81 503.972 509.085 506.156 518.814 505.32C548.719 502.743 539.029 484.342 514.304 482.542" stroke="#D2E8F9" stroke-miterlimit="10" stroke-dasharray="4 4"/>
<path d="M512.348 482.434C511.699 482.414 511.051 482.394 510.383 482.394" stroke="#D2E8F9" stroke-miterlimit="10"/>
<path d="M935.797 417.178C935.571 417.178 935.355 417.139 935.139 417.07L902.718 405.721C902.04 405.484 901.539 404.894 901.401 404.196C901.264 403.488 901.519 402.76 902.07 402.298L928.102 379.874C928.643 379.402 929.399 379.264 930.077 379.5C930.756 379.736 931.257 380.327 931.394 381.025L937.782 414.798C937.92 415.506 937.664 416.234 937.114 416.696C936.74 417.011 936.269 417.178 935.797 417.178ZM904.448 403.606L935.08 414.336L929.046 382.421L904.448 403.606Z" fill="#B5DDF7"/>
<path d="M921.714 403.39C921.105 403.173 920.761 402.514 920.948 401.895L924.161 390.604C924.476 389.562 925.596 388.991 926.618 389.355C927.64 389.719 928.161 390.86 927.758 391.863L923.238 402.691C923.012 403.301 922.334 403.606 921.714 403.39Z" fill="#B5DDF7"/>
<path d="M921.95 406.468C921.724 407.117 921.017 407.451 920.368 407.225C919.719 406.999 919.385 406.291 919.611 405.642C919.837 404.993 920.545 404.658 921.194 404.885C921.842 405.121 922.176 405.829 921.95 406.468Z" fill="#B5DDF7"/>
<path d="M505.115 471.576C505.027 471.694 504.909 471.802 504.781 471.89L485.235 484.853C484.822 485.128 484.301 485.158 483.859 484.942C483.416 484.725 483.131 484.283 483.102 483.791L481.657 460.374C481.628 459.882 481.864 459.41 482.267 459.144C482.679 458.869 483.2 458.839 483.643 459.056L504.634 469.51C505.076 469.727 505.361 470.169 505.39 470.661C505.41 470.995 505.312 471.32 505.115 471.576ZM484.812 483.043L503.277 470.789L483.446 460.905L484.812 483.043Z" fill="#B5DDF7"/>
<path d="M491.809 473.553C491.436 473.798 490.944 473.71 490.679 473.346L485.873 466.943C485.441 466.344 485.588 465.498 486.207 465.085C486.827 464.672 487.662 464.868 488.045 465.498L492.065 472.422C492.291 472.815 492.182 473.307 491.809 473.553Z" fill="#B5DDF7"/>
<path d="M493.578 474.693C493.833 475.087 493.725 475.608 493.342 475.864C492.949 476.12 492.428 476.011 492.173 475.628C491.917 475.234 492.025 474.713 492.408 474.457C492.802 474.202 493.322 474.31 493.578 474.693Z" fill="#B5DDF7"/>
<path d="M525.595 526.003C526.768 526.003 527.718 525.052 527.718 523.878C527.718 522.705 526.768 521.754 525.595 521.754C524.423 521.754 523.473 522.705 523.473 523.878C523.473 525.052 524.423 526.003 525.595 526.003Z" stroke="#D2E8F9" stroke-miterlimit="10"/>
<path d="M841.062 486.643C842.234 486.643 843.184 485.692 843.184 484.519C843.184 483.345 842.234 482.394 841.062 482.394C839.889 482.394 838.939 483.345 838.939 484.519C838.939 485.692 839.889 486.643 841.062 486.643Z" stroke="#D2E8F9" stroke-miterlimit="10"/>
<path d="M673.693 427.043C674.865 427.043 675.816 426.092 675.816 424.918C675.816 423.745 674.865 422.794 673.693 422.794C672.52 422.794 671.57 423.745 671.57 424.918C671.57 426.092 672.52 427.043 673.693 427.043Z" stroke="#D2E8F9" stroke-miterlimit="10"/>
<path d="M671.138 588.799C672.31 588.799 673.26 587.848 673.26 586.675C673.26 585.502 672.31 584.551 671.138 584.551C669.965 584.551 669.015 585.502 669.015 586.675C669.015 587.848 669.965 588.799 671.138 588.799Z" stroke="#D2E8F9" stroke-miterlimit="10"/>
<path d="M720.667 461.436V466.245" stroke="#D2E8F9" stroke-miterlimit="10" stroke-linecap="round" stroke-linejoin="round"/>
<path d="M723.075 463.836H718.269" stroke="#D2E8F9" stroke-miterlimit="10" stroke-linecap="round" stroke-linejoin="round"/>
<path d="M806.961 399.957V404.767" stroke="#D2E8F9" stroke-miterlimit="10" stroke-linecap="round" stroke-linejoin="round"/>
<path d="M809.369 402.357H804.563" stroke="#D2E8F9" stroke-miterlimit="10" stroke-linecap="round" stroke-linejoin="round"/>
<path d="M940.475 529.75V534.569" stroke="#D2E8F9" stroke-miterlimit="10" stroke-linecap="round" stroke-linejoin="round"/>
<path d="M942.882 532.159H938.067" stroke="#D2E8F9" stroke-miterlimit="10" stroke-linecap="round" stroke-linejoin="round"/>
<path d="M763.829 667.312C763.829 667.312 754.876 671.128 754.886 673.046C754.886 674.138 767.19 672.574 767.937 671.827C769.126 670.636 767.455 667.47 767.455 667.47L763.829 667.312Z" fill="#26387A"/>
<path d="M763.259 661.972L763.829 667.479C763.829 667.479 764.124 668.374 765.382 668.473C766.63 668.571 767.455 667.479 767.455 667.479L767.013 660.585" fill="#FFB288"/>
<path d="M778.884 535.68C782.137 548.81 780.928 555.478 776.162 565.372C773.273 598.664 771.258 631.827 767.367 664.293L763.259 664.529C753.923 632.919 745.324 585.672 746.425 542.486" fill="#26387A"/>
<path d="M776.86 540.185C778.049 543.234 778.344 546.666 778.246 549.912C778.088 554.888 776.064 559.402 774.757 564.123C773.008 570.418 772.88 576.692 772.398 583.154C771.651 593.255 770.885 603.365 770.118 613.466C768.86 629.939 767.593 646.413 766.325 662.896C766.286 663.388 766.246 663.87 766.207 664.362" stroke="#0061A6" stroke-width="0.5" stroke-miterlimit="10"/>
<path d="M799.522 668.591C799.522 668.591 790.569 672.407 790.579 674.325C790.579 675.416 802.883 673.853 803.629 673.105C804.819 671.915 803.148 668.748 803.148 668.748L799.522 668.591Z" fill="#26387A"/>
<path d="M798.942 663.25L799.512 668.758C799.512 668.758 799.807 669.653 801.065 669.751C802.313 669.85 803.138 668.758 803.138 668.758L802.696 661.864" fill="#FFB288"/>
<path d="M808.651 534.569C812.769 547.453 812.002 554.18 807.895 564.379C807.216 597.789 804.917 632.683 803.187 665.326H798.962C787.552 634.404 775.327 586.675 773.568 543.499" fill="#26387A"/>
<path d="M806.607 539.9C806.607 539.9 811.383 551.072 803.315 566.769C802.381 581.58 801.91 665.326 801.91 665.326" stroke="#0061A6" stroke-width="0.5" stroke-miterlimit="10"/>
<path d="M794.805 543.44C795.62 544.709 796.917 545.604 798.303 546.165C799.689 546.725 801.182 546.971 802.666 547.158C804.435 547.374 806.214 547.522 807.983 547.433" stroke="#0061A6" stroke-width="0.5" stroke-miterlimit="10"/>
<path d="M795.384 545.535C796.908 546.922 798.853 547.768 800.848 548.23C802.843 548.692 804.907 548.781 806.961 548.81" stroke="#0061A6" stroke-width="0.5" stroke-miterlimit="10"/>
<path d="M759.8 472.304C745.57 497.088 730.249 519.541 721.159 546.646L718.456 545.211C719.144 520.043 727.301 483.456 738.003 460.669" fill="#FFB288"/>
<path d="M752.842 446.418C752.842 446.418 748.439 447.657 743.26 451.099C738.386 454.345 734.701 459.174 732.195 464.465C729.689 469.756 728.313 475.52 727.429 481.312C727.429 481.312 733.384 484.292 740.214 485.148C747.044 486.004 754.306 485.148 754.306 485.148" fill="#D9F0FF"/>
<path d="M742.228 461.072C740.715 487.882 741.865 515.46 742.553 541.532C742.553 541.532 751.889 544.02 774.59 544.02C797.193 544.02 812.002 537.126 812.002 537.126C807.619 510.326 804.141 477.447 793.409 455.387C793.409 455.387 781.302 442.317 769.362 441.786C766.964 441.677 764.566 442.553 762.276 443.625C760.596 444.411 752.852 446.3 752.852 446.3L742.228 461.072Z" fill="#D9F0FF"/>
<path d="M742.101 463.462C741.511 468.615 741.511 484.528 741.511 484.528" stroke="#94C1F2" stroke-width="0.5" stroke-miterlimit="10"/>
<path d="M764.674 549.971C802.588 545.761 818.488 593.855 827.127 612.512C847.538 656.612 924.525 651.694 959.618 651.694C1005.57 651.694 1025.74 667.194 1004.29 675.318" stroke="#B4E8FD" stroke-width="5" stroke-miterlimit="10" stroke-linecap="round" stroke-linejoin="round"/>
<path d="M777.744 552.144C777.744 571.667 762.984 583.439 750.365 583.439H729.669V520.839H750.365C762.984 520.839 777.744 532.622 777.744 552.144Z" fill="#FDAE2B"/>
<path d="M767.082 552.144C767.082 571.214 755.8 586.675 741.875 586.675H719.046V517.604H741.875C755.79 517.604 767.082 533.064 767.082 552.144Z" fill="#EF8417"/>
<path opacity="0.5" d="M772.133 533.271C767.2 540.008 762.374 546.823 757.706 553.747C758.365 553.619 758.994 553.295 759.475 552.823C759.475 553.344 758.65 554.239 759.377 554.573C760.104 554.908 760.881 554.052 761.647 554.288C762.365 554.121 763.033 553.226 763.554 552.705C763.318 553.236 763.269 553.629 763.229 553.915C768.271 551.957 772.772 547.256 776.693 543.47C775.73 539.624 774.148 536.211 772.133 533.271Z" fill="#FDAE2B"/>
<path d="M720.667 586.675C734.589 586.675 745.874 571.215 745.874 552.144C745.874 533.074 734.589 517.614 720.667 517.614C706.746 517.614 695.46 533.074 695.46 552.144C695.46 571.215 706.746 586.675 720.667 586.675Z" fill="#FFC840"/>
<path d="M722.78 564.379C722.78 567.211 720.844 569.513 718.456 569.513C716.068 569.513 714.132 567.211 714.132 564.379C714.132 561.546 716.068 559.245 718.456 559.245C720.844 559.245 722.78 561.546 722.78 564.379Z" fill="#EF8417"/>
<path d="M722.78 539.9C722.78 542.732 720.844 545.033 718.456 545.033C716.068 545.033 714.132 542.732 714.132 539.9C714.132 537.067 716.068 534.766 718.456 534.766C720.844 534.766 722.78 537.067 722.78 539.9Z" fill="#EF8417"/>
<path d="M800.308 480.85C800.308 480.85 801.91 497.166 794.618 510.729C788.387 522.324 776.005 537.343 766.001 545.614L763.593 545.024C767.072 531.658 778.059 507.916 778.747 499.015C779.435 490.115 779.268 479.798 779.435 474.841" fill="#FFB288"/>
<path d="M769.362 441.776C769.362 441.776 782.776 442.69 790.559 449.27C801.674 458.662 803.315 477.054 803.315 481.322C799.954 484.951 792.613 485.138 787.267 485.138C781.921 485.138 778.01 482.571 778.01 482.571L776.919 462.282" fill="#D9F0FF"/>
<path d="M764.576 543.047C763.053 543.194 761.569 543.942 760.291 544.945C759.112 545.86 757.667 547.404 757.824 548.102C757.982 548.84 759.908 547.423 760.144 547.709C760.38 547.994 756.842 553.334 757.51 553.737C758.178 554.141 761.176 549.302 761.176 549.302C761.176 549.302 758.257 554.465 759.387 554.583C760.33 554.682 762.915 549.784 762.915 549.784C762.915 549.784 760.723 554.151 761.47 554.318C762.217 554.485 764.251 550.128 764.251 550.128C764.251 550.128 762.6 553.846 763.229 553.915C763.554 553.944 765.185 552.095 765.863 549.853C766.531 547.65 767.318 545.732 766.708 544.011" fill="#FFB288"/>
<path d="M778.57 464.426V482.916" stroke="#94C1F2" stroke-width="0.5" stroke-miterlimit="10"/>
<path d="M741.56 424.722C741.491 425.518 741.462 426.325 741.462 427.131C741.472 428.872 741.698 430.701 742.7 432.128C743.388 433.111 744.43 433.839 745.58 434.154C746.395 434.38 747.466 434.281 747.82 433.514C747.948 433.239 747.948 432.934 747.948 432.629C747.938 429.649 747.358 426.669 746.248 423.905" fill="#26387A"/>
<path d="M761.804 426.404C760.655 421.909 757.038 415.624 751.142 416.893C747.447 417.69 744.037 420.207 742.946 423.738C741.649 427.957 743.752 432.855 746.277 436.298C747.211 437.566 748.312 438.776 749.746 439.523C753.156 441.284 757.756 439.838 760.075 436.907C762.394 433.977 762.709 429.954 761.804 426.404Z" fill="#FFB288"/>
<path d="M753.54 438.147L755.466 445.188L752.842 446.428C752.842 446.428 754.837 449.083 758.797 448.513C766.836 447.352 769.362 441.776 769.362 441.776L764.821 441.304L759.8 432.737" fill="#FFB288"/>
<path d="M765.726 421.506C765.165 418.418 762.964 415.801 760.291 414.169C755.535 411.277 748.764 411.041 744.528 415.024C742.12 417.296 737.777 425.332 742.966 426.925C744.587 427.426 746.248 426.433 747.663 425.499C749.098 424.535 750.533 423.581 751.967 422.617C752.478 422.273 753.029 421.919 753.648 421.889C754.66 421.85 755.505 422.725 755.869 423.679C756.232 424.623 756.262 425.666 756.498 426.649C756.665 427.348 756.969 428.066 757.579 428.449C758.178 428.833 759.131 428.725 759.446 428.076C759.662 427.623 759.505 427.102 759.495 426.6C759.485 426.099 759.77 425.489 760.262 425.518C760.438 425.528 760.606 425.617 760.743 425.725C761.991 426.699 761.588 428.656 762.001 430.19C762.06 430.397 761.637 433.495 761.775 433.652C765.745 432.727 766.128 423.719 765.726 421.506Z" fill="#26387A"/>
<path d="M759.81 425.922C759.721 425.351 760.262 424.83 760.832 424.771C761.402 424.712 761.962 424.997 762.394 425.371C763.141 426 763.691 426.915 763.701 427.899C763.711 428.666 763.406 429.403 762.994 430.052C762.709 430.485 762.345 430.908 761.844 431.065C761.205 431.262 760.497 430.977 760.036 430.485" fill="#FFB288"/>
<path d="M617.255 667.116C617.255 667.116 625.883 668.561 626.129 670.45C626.266 671.541 614.031 672.83 613.196 672.19C611.869 671.168 613.501 667.332 613.501 667.332L617.255 667.116Z" fill="#26387A"/>
<path d="M616.567 661.814L617.274 667.273C617.274 667.273 617.097 668.197 615.869 668.453C614.641 668.709 613.687 667.735 613.687 667.735L612.675 660.919" fill="#FFB288"/>
<path d="M584.294 537.362C582.751 550.797 582.662 557.258 588.667 566.464C591.507 579.466 595.88 592.773 599.172 606.079C597.747 621.973 607.712 647.298 613.068 665.375L616.94 664.716C622.149 632.172 624.065 582.259 619.397 538.572" fill="#26387A"/>
<path d="M586.819 555.567C586.819 555.567 601.668 602.755 601.668 605.322C601.668 607.889 602.071 616.691 602.73 622.406C603.939 632.87 613.412 663.713 613.412 663.713" stroke="#0061A6" stroke-width="0.5" stroke-miterlimit="10"/>
<path d="M612.95 666.103L612.351 663.752L617.343 663.565L617.412 665.739L612.95 666.103Z" fill="#0061A6"/>
<path d="M550.114 667.381C550.114 667.381 556.866 672.269 556.266 673.98C555.922 674.964 544.935 670.892 544.503 669.997C543.805 668.561 546.812 665.975 546.812 665.975L550.114 667.381Z" fill="#26387A"/>
<path d="M551.775 662.572L550.065 667.529C550.065 667.529 549.525 668.237 548.365 667.942C547.206 667.647 546.803 666.407 546.803 666.407L548.817 660.162" fill="#FFB288"/>
<path d="M555.284 534.569C551.166 547.453 551.932 554.18 556.04 564.379C556.286 576.584 556.414 588.937 556.551 601.28C547.864 623.045 546.488 642.567 547.589 663.3L551.775 664.853C551.775 664.853 576.727 621.334 581.306 604.132C586.564 584.403 589.551 563.297 590.367 543.499" fill="#26387A"/>
<path d="M556.315 537.362C556.315 537.362 551.775 550.659 557.731 563.464C557.731 567.044 559.775 596.776 558.969 601.368C558.576 603.572 554.507 614.085 551.775 624.314C548.758 635.634 548.129 662.316 548.129 662.316" stroke="#0061A6" stroke-width="0.5" stroke-miterlimit="10"/>
<path d="M546.803 663.29L547.471 660.497L552.827 662.985L551.775 665.385L546.803 663.29Z" fill="#0061A6"/>
<path d="M625.057 435.078L621.697 432.206C621.697 432.206 621.697 427.181 621.697 426.256C621.697 425.332 620.448 419.794 619.318 419.794C618.188 419.794 617.933 418.408 617.372 418.978C616.812 419.539 617.834 425.794 617.372 426.256C616.911 426.718 616.311 423.286 615.889 423.709C615.466 424.132 615.427 426.649 615.427 427.938C615.427 429.226 616.459 431.596 617.481 432.619C618.503 433.642 623.013 438.52 623.013 438.52L625.057 435.078Z" fill="#EF9467"/>
<path d="M623.377 433.17L620.566 436.366C620.566 436.366 631.661 451.07 635.18 455.987C631.976 454.866 627.367 452.043 624.714 450.303C619.495 446.88 614.257 445.061 610.641 445.061C602.956 445.061 606.975 470.425 615.898 474.133C632.811 476.68 651.778 475.067 654.677 469.117C658.971 460.305 634.177 439.523 623.377 433.17Z" fill="#D9F0FF"/>
<path d="M635.18 455.997C635.18 455.997 637.292 461.908 641.056 463.845" stroke="#94C1F2" stroke-width="0.5" stroke-miterlimit="10"/>
<path d="M571.793 451.778C551.628 474.448 551.932 513.414 551.932 539.909C551.932 539.909 566.742 550.02 589.345 550.02C612.036 550.02 621.382 544.443 621.382 544.443C622.06 517.604 617.274 506.028 621.706 461.633C621.706 461.633 614.493 445.061 610.641 445.061C606.798 445.061 591.743 443.576 591.743 443.576L571.793 451.778Z" fill="#D9F0FF"/>
<path d="M620.586 474.733C620.586 474.733 621.048 466.983 622.925 465.094" stroke="#94C1F2" stroke-width="0.5" stroke-miterlimit="10"/>
<path d="M598.406 426.581C599.153 422.007 602.415 415.477 608.39 416.214C612.144 416.677 615.053 419.273 617.156 422.312C618.955 424.918 618.277 427.407 615.712 434.006C614.896 435.353 613.127 437.763 611.761 438.628C608.518 440.684 603.811 439.651 601.246 436.927C598.681 434.213 597.816 430.2 598.406 426.581Z" fill="#FFB288"/>
<path d="M599.202 426.03C600.067 425.902 599.212 425.341 599.585 426.128C599.831 426.63 599.9 426.777 600.391 426.935C600.872 427.092 600.882 427.535 601.275 427.83C601.894 428.292 602.425 427.662 602.69 427.131C603.182 426.138 603.162 424.948 603.044 423.876C602.956 423.03 602.671 421.702 603.496 421.112C604.174 420.63 605.658 421.329 606.356 421.525C607.427 421.84 608.489 422.184 609.56 422.509C612.135 423.296 614.857 423.984 617.559 423.62C619.928 423.306 622.375 422.066 623.505 419.873C624.861 417.237 622.149 413.805 619.377 413.795C618.65 413.795 617.962 414.09 617.255 414.238C616.989 414.297 616.714 414.326 616.459 414.247C615.859 414.07 615.584 413.392 615.25 412.861C614.228 411.267 612.469 410.776 610.66 410.972C608.607 411.199 606.857 412.182 604.902 412.713C603.87 412.998 602.975 412.733 601.934 412.762C600.863 412.792 599.772 413.5 599.3 414.484C598.465 413.608 596.598 415.752 596.126 416.323C594.082 418.811 593.433 422.401 593.384 425.548C593.335 428.302 593.797 432.305 596.804 433.406C598.081 433.878 598.877 434.124 598.936 432.954C598.376 431.744 598.249 429.334 598.131 428.321C598.013 427.308 598.317 426.108 599.251 425.705" fill="#26387A"/>
<path d="M609.019 437.507L608.361 444.421L610.631 445.061C610.631 445.061 609.432 448.168 605.472 448.69C597.423 449.762 591.733 443.576 591.733 443.576L594.416 443.054L598.484 430.22" fill="#FFB288"/>
<path d="M600.548 425.981C600.587 425.41 600.008 424.928 599.428 424.918C598.858 424.909 598.327 425.243 597.924 425.646C595.674 427.889 598.504 433.357 600.725 430.534" fill="#FFB288"/>
<path d="M615.722 433.888C615.358 434.734 613.933 435.078 613.147 435.157C609.363 435.58 606.219 433.131 602.592 432.678C601.875 432.59 601.059 432.531 600.519 433.013C600.008 433.475 599.959 434.242 599.949 434.931C599.929 435.776 599.919 436.632 599.998 437.478C600.067 438.206 600.204 438.953 600.578 439.582C602.219 442.307 607.673 442.769 610.444 442.602C611.565 442.533 612.724 442.317 613.599 441.658C614.847 440.714 615.112 439.071 615.584 437.625C616.174 435.835 615.722 433.888 615.722 433.888Z" fill="#26387A"/>
<path d="M613.039 436.868C612.921 436.789 612.783 436.72 612.636 436.72C610.867 436.72 609.884 436.298 608.508 436.189C608.272 436.17 608.027 436.16 607.811 436.229C607.319 436.376 607.034 436.888 606.936 437.379C606.838 437.881 607.083 438.265 607.535 438.481C608.351 438.884 609.275 439.032 610.189 439.061C610.985 439.081 612.017 439.15 612.675 438.619C613.039 438.314 613.589 437.271 613.039 436.868Z" fill="#FFB288"/>
<path d="M596.381 536.91C552.326 534.608 526.676 557.357 508.466 598.802C484.822 652.589 451.782 656.887 436.904 656.592" stroke="#B4E8FD" stroke-width="5" stroke-miterlimit="10" stroke-linecap="round" stroke-linejoin="round"/>
<path d="M579.478 540.5C581.1 559.953 596.784 570.457 609.363 569.414L629.981 567.693L624.782 505.31L604.165 507.031C591.595 508.083 577.857 521.056 579.478 540.5Z" fill="#FDAE2B"/>
<path d="M590.112 539.614C591.694 558.625 604.224 573.093 618.1 571.932L640.85 570.034L635.111 501.209L612.361 503.107C598.484 504.267 588.529 520.613 590.112 539.614Z" fill="#EF8417"/>
<path d="M639.208 570.159C653.081 569.002 663.043 552.657 661.46 533.653C659.876 514.649 647.346 500.182 633.473 501.34C619.601 502.497 609.638 518.842 611.222 537.846C612.805 556.85 625.335 571.317 639.208 570.159Z" fill="#FFC840"/>
<path d="M635.278 548.132C635.514 550.954 637.636 553.088 640.015 552.882C642.393 552.685 644.132 550.236 643.896 547.404C643.661 544.581 641.538 542.447 639.16 542.653C636.772 542.85 635.042 545.299 635.278 548.132Z" fill="#FDAE2B"/>
<path d="M633.244 523.731C633.479 526.554 635.602 528.688 637.98 528.481C640.359 528.284 642.098 525.836 641.862 523.003C641.626 520.171 639.504 518.046 637.125 518.253C634.747 518.459 633.008 520.908 633.244 523.731Z" fill="#FDAE2B"/>
<path d="M638.265 526.937C640.86 526.721 670.43 524.252 670.43 524.252C672.396 524.085 673.85 522.344 673.683 520.367C673.516 518.381 671.796 516.905 669.831 517.073C669.831 517.073 640.133 519.551 637.666 519.758C635.199 519.954 635.671 527.153 638.265 526.937Z" fill="#E2E8ED"/>
<path d="M640.29 551.328C642.884 551.112 672.455 548.643 672.455 548.643C674.42 548.476 675.874 546.735 675.707 544.758C675.54 542.771 673.821 541.296 671.855 541.463C671.855 541.463 642.157 543.942 639.69 544.148C637.233 544.345 637.705 551.544 640.29 551.328Z" fill="#E2E8ED"/>
<path d="M561.052 480.85C561.052 480.85 559.45 497.167 566.742 510.729C572.973 522.324 585.355 537.343 595.359 545.614L597.757 545.024C594.278 531.658 583.291 507.916 582.603 499.015C581.916 490.115 582.083 479.798 581.916 474.841" fill="#FFB288"/>
<path d="M591.743 443.576C591.743 443.576 577.611 444.392 569.474 450.539C555.421 461.16 558.173 489.702 562.271 503.648C566.359 517.604 586.043 538.533 592.401 543.047C593.443 543.047 596.509 542.791 596.391 540.391C592.873 529.514 582.849 500.904 582.849 500.904L584.431 462.301" fill="#D9F0FF"/>
<path d="M596.784 543.047C598.308 543.194 599.791 543.942 601.069 544.945C602.248 545.86 603.693 547.404 603.536 548.102C603.378 548.84 601.452 547.423 601.216 547.709C600.981 547.994 604.518 553.334 603.85 553.737C603.182 554.141 600.185 549.302 600.185 549.302C600.185 549.302 603.103 554.465 601.973 554.583C601.03 554.682 598.445 549.784 598.445 549.784C598.445 549.784 600.637 554.151 599.89 554.318C599.143 554.485 597.109 550.128 597.109 550.128C597.109 550.128 598.76 553.846 598.131 553.915C597.806 553.944 596.175 552.095 595.497 549.853C594.829 547.65 594.042 545.732 594.652 544.011" fill="#FFB288"/>
<path d="M586.819 512.263C584.569 505.772 582.859 500.894 582.859 500.894L585.827 468.497" stroke="#94C1F2" stroke-width="0.5" stroke-miterlimit="10"/>
<path d="M559.038 476.365C558.959 485.148 560.011 495.976 562.261 503.648C564.226 510.365 569.808 518.695 575.783 526.032" stroke="#94C1F2" stroke-width="0.5" stroke-miterlimit="10"/>
<path d="M861.365 428.656L863.635 427.102C863.635 427.102 864.687 422.155 865.266 421.27C865.885 420.326 867.055 418.388 868.382 417.493C868.932 417.119 871.467 415.683 872.106 416.323C872.421 416.637 871.349 419.499 870.868 419.991C870.386 420.483 868.942 422.676 869.158 423.365C869.384 424.053 870.583 422.548 870.868 422.263C871.153 421.978 871.536 421.624 871.664 421.997C871.89 422.607 870.612 426.059 869.61 427.053C868.608 428.056 866.986 429 865.856 429L862.328 432.118" fill="#FFB288"/>
<path d="M888.734 412.359C892.488 414.572 894.817 418.752 895.721 422.932C895.878 423.679 896.016 424.486 896.537 425.056C896.95 425.509 897.539 425.735 898.09 425.99C901.205 427.436 903.593 430.259 904.684 433.495C905.155 434.881 904.782 436.829 905.332 438.009C906.001 439.455 908.457 439.779 909.774 440.222C913.725 441.53 916.624 445.513 916.673 449.673C916.712 453.833 913.892 457.876 909.971 459.272C911.022 460.747 911.18 462.744 910.688 464.495C910.197 466.245 909.135 467.779 907.937 469.147C902.964 474.782 895.289 477.792 887.791 477.467C885.629 477.378 883.457 477.015 881.462 476.198C879.192 475.274 877.197 473.779 875.29 472.245C872.981 470.396 870.681 468.37 869.443 465.685C868.195 463 868.283 459.489 870.386 457.413C867.949 457.925 865.355 456.597 863.989 454.522C862.623 452.447 862.367 449.762 862.918 447.342C863.468 444.913 864.746 442.71 866.229 440.723C867.271 439.327 868.48 437.911 868.696 436.18C869.07 433.288 867.458 430.701 867.035 427.83C866.387 423.355 866.583 419.509 870.416 417.129C871.644 413.943 873.128 411.484 876.656 410.54C880.833 409.428 885 410.156 888.734 412.359Z" fill="#26387A"/>
<path d="M879.526 446.369C866.76 443.025 852.137 448.306 848.884 448.296C853.346 443.831 861.532 433.888 864.362 430.456C864.362 428.095 862.927 427.436 862.927 427.436C862.927 427.436 827.903 445.562 831.421 457.404C835.097 469.756 869.413 463.698 872.155 467.248" fill="#B6E9FE"/>
<path d="M882.032 561.409C881.992 562.451 877.423 584.964 877.079 587.373C876.096 594.405 879.811 601.457 879.447 612.364C879.005 625.622 873.374 661.244 872.656 662.827C871.939 664.411 868.509 662.955 868.509 662.955C868.509 662.955 858.603 615.167 858.053 595.605C857.591 579.495 859.93 544.63 859.93 544.63" fill="#FFB288"/>
<path d="M873.02 663.437C873.02 663.437 873.6 664.647 873.57 665.198C873.502 666.683 873.453 667.696 873.453 667.696L872.804 667.735L872.578 666.525C872.578 666.525 870.868 666.83 869.119 667.971C868.274 668.522 864.028 668.473 863.38 668.129C862.652 667.745 862.859 667.047 863.104 666.761C863.35 666.476 867.939 664.47 867.939 664.47" fill="#26387A"/>
<path d="M868.519 662.955C868.146 663.85 864.519 665.827 864.854 666.093C865.188 666.358 867.301 666.368 869.64 665.591C871.772 664.883 872.981 664.086 873.05 663.526L872.647 662.021" fill="#FFB288"/>
<path d="M913.813 562.343C913.803 563.386 909.922 586.026 909.656 588.445C908.89 595.507 912.821 602.44 912.791 613.347C912.752 626.615 908.212 662.395 907.543 663.998C906.875 665.601 903.396 664.254 903.396 664.254C903.396 664.254 892.046 616.79 890.886 597.257C889.933 581.167 891.21 546.253 891.21 546.253" fill="#FFB288"/>
<path d="M907.907 664.598C907.907 664.598 908.516 665.788 908.506 666.339C908.477 667.824 908.457 668.837 908.457 668.837L907.819 668.896L907.563 667.696C907.563 667.696 905.863 668.05 904.153 669.25C903.327 669.83 899.082 669.909 898.414 669.584C897.667 669.22 897.864 668.512 898.099 668.227C898.335 667.932 902.866 665.788 902.866 665.788" fill="#26387A"/>
<path d="M903.396 664.254C903.052 665.158 899.485 667.253 899.829 667.509C900.173 667.765 902.276 667.715 904.595 666.86C906.708 666.083 907.887 665.257 907.937 664.696L907.484 663.211" fill="#FFB288"/>
<path d="M902.266 504.464C902.266 504.464 912.418 511.113 916.28 527.075C921.498 548.594 913.813 590.737 913.813 590.737C913.813 590.737 897.923 595.389 880.626 595.241C863.34 595.094 853.1 589.252 853.061 588.199C853.031 587.157 850.486 555.252 853.994 533.605C857.935 509.313 867.979 502.763 867.979 502.763" fill="#2858AD"/>
<path d="M888.508 445.956C890.08 445.365 894.159 446.801 901.804 449.732C905.165 453.371 906.629 461.328 907.357 468.379C905.372 485.542 903.16 494.904 904.232 500.697C904.487 502.064 905.745 503.107 905.539 505.025C905.126 508.978 898.65 509.578 886.356 510.975C874.062 512.371 862.996 506.785 863.664 505.034C864.333 503.284 866.426 501.759 866.76 500.609C867.094 499.448 868.097 484.755 866.77 483.004C865.443 481.253 862.014 476.238 862.014 471.35C862.014 464.465 865.797 461.377 868.274 457.6C872.401 451.296 875.536 447.342 879.536 446.359C885.923 444.785 888.508 445.956 888.508 445.956Z" fill="#B6E9FE"/>
<path d="M867.821 454.66C867.821 454.66 868.274 457.61 866.76 460.079C866.298 460.836 863.507 463.678 862.957 465.498" stroke="#6CB1EF" stroke-width="0.5" stroke-miterlimit="10"/>
<path d="M885.56 437.586C888.911 434.252 889.442 427.918 887.918 423.65C886.199 418.831 879.349 415.231 874.622 418.241C865.365 424.151 874.769 448.316 885.56 437.586Z" fill="#FFB288"/>
<path d="M879.182 436.996L879.359 447.293C879.359 447.293 878.975 449.585 882.995 449.722C888.508 449.919 888.508 445.956 888.508 445.956L885.314 435.344" fill="#FFB288"/>
<path d="M883.349 413.687C882.218 412.939 881 412.91 879.83 413.598C879.113 414.021 878.612 414.729 877.845 415.074C877.305 415.32 876.656 415.359 876.086 415.506C873.413 416.234 870.878 418.28 869.748 420.827C868.617 423.394 868.981 427.564 871.094 429.393C871.005 427.407 871.595 424.555 872.656 422.883C873.207 421.997 874.091 421.132 875.123 421.25C876.283 421.378 876.912 422.627 877.757 423.443C879.025 424.682 880.852 424.928 882.523 425.184C884.42 425.469 885.884 425.804 886.818 427.662C887.221 428.469 887.447 429.364 887.663 430.239C887.918 431.282 888.184 432.334 888.243 433.406C888.282 434.075 888.243 434.763 888.449 435.393C888.872 436.661 890.159 437.429 891.427 437.861C892.4 438.186 894.041 438.491 894.65 437.389C895.161 436.465 895.603 435.167 895.77 434.134C896.35 430.672 895.259 427.092 893.392 424.122C891.348 420.866 888.429 418.683 885.805 415.969C885 415.133 884.213 414.257 883.349 413.687Z" fill="#26387A"/>
<path d="M885.933 429.541C886.14 428.754 886.719 427.957 887.525 427.83C890.149 427.436 889.746 431.351 888.734 432.727C888.144 433.524 886.621 434.576 885.933 432.354" fill="#FFB288"/>
<path d="M913.735 509.716L912.496 512.352C912.496 512.352 907.848 513.463 907.357 514.279C906.58 515.578 905.411 517.368 905.411 518.381C905.411 519.403 905.509 523.869 906.787 523.869C907.583 523.869 909.46 520.22 909.843 519.708C910.757 518.508 914.432 517.633 914.432 514.456L916.683 509.706" fill="#FFB288"/>
<path d="M888.508 445.818C888.508 445.818 899.367 443.054 907.848 448.404C914.442 452.565 931.404 473.277 931.404 485.138C931.404 493.134 915.543 512.942 915.543 512.942L912.909 511.054C912.909 511.054 914.442 495.485 919.051 486.909C915.651 483.506 902.394 472.933 899.062 469.599" fill="#B6E9FE"/>
<path d="M897.333 468.517C899.701 470.622 905.951 475.657 905.951 475.657" stroke="#6CB1EF" stroke-width="0.5" stroke-miterlimit="10"/>
<path d="M577.297 427.476L564.177 416.903C564.177 416.903 570.074 395.109 562.271 387.496C558.114 383.444 552.866 380.681 547.441 378.625C535.373 374.042 520.957 372.999 510.206 380.14C502.275 385.411 497.45 394.44 495.288 403.714C493.391 411.887 493.548 421.171 498.649 427.83C500.939 430.819 504.083 433.062 507.415 434.813C517.792 440.251 545.24 442.307 557.141 434.321C560.443 432.108 560.148 429.118 561.534 424.446L577.297 427.476Z" fill="#E7F5FE"/>
<path d="M517.214 408.723C517.214 411.269 516.576 413.247 515.299 414.659C514.03 416.071 512.23 416.777 509.898 416.777C507.538 416.777 505.724 416.078 504.454 414.68C503.192 413.276 502.561 411.283 502.561 408.702C502.561 406.121 503.196 404.139 504.465 402.755C505.741 401.372 507.56 400.68 509.92 400.68C512.244 400.68 514.041 401.383 515.31 402.787C516.579 404.192 517.214 406.171 517.214 408.723ZM505.278 408.723C505.278 410.648 505.666 412.11 506.444 413.108C507.221 414.099 508.372 414.595 509.898 414.595C511.417 414.595 512.561 414.103 513.331 413.119C514.109 412.135 514.497 410.67 514.497 408.723C514.497 406.805 514.112 405.351 513.342 404.36C512.579 403.369 511.438 402.873 509.92 402.873C508.387 402.873 507.228 403.369 506.444 404.36C505.666 405.351 505.278 406.805 505.278 408.723ZM530.797 410.627C530.797 412.559 530.301 414.067 529.31 415.151C528.319 416.235 526.939 416.777 525.171 416.777C524.066 416.777 523.089 416.527 522.24 416.028C521.392 415.529 520.74 414.812 520.283 413.878C519.827 412.944 519.599 411.86 519.599 410.627C519.599 408.709 520.091 407.212 521.075 406.135C522.059 405.058 523.445 404.52 525.235 404.52C526.946 404.52 528.301 405.073 529.299 406.178C530.297 407.276 530.797 408.759 530.797 410.627ZM522.187 410.627C522.187 413.358 523.196 414.723 525.214 414.723C527.21 414.723 528.208 413.358 528.208 410.627C528.208 407.925 527.203 406.573 525.192 406.573C524.137 406.573 523.371 406.923 522.893 407.622C522.422 408.32 522.187 409.322 522.187 410.627ZM539.695 416.777C538.198 416.777 537.035 416.238 536.208 415.162H536.059C536.158 416.16 536.208 416.766 536.208 416.98V421.825H533.695V404.734H535.727C535.784 404.955 535.902 405.483 536.08 406.317H536.208C536.993 405.119 538.169 404.52 539.738 404.52C541.214 404.52 542.362 405.055 543.182 406.124C544.009 407.194 544.422 408.695 544.422 410.627C544.422 412.559 544.002 414.067 543.16 415.151C542.326 416.235 541.171 416.777 539.695 416.777ZM539.085 406.573C538.087 406.573 537.356 406.866 536.893 407.45C536.436 408.035 536.208 408.969 536.208 410.253V410.627C536.208 412.067 536.436 413.112 536.893 413.761C537.349 414.402 538.094 414.723 539.128 414.723C539.998 414.723 540.668 414.367 541.139 413.654C541.609 412.941 541.845 411.925 541.845 410.606C541.845 409.279 541.609 408.278 541.139 407.6C540.675 406.916 539.991 406.573 539.085 406.573ZM555.288 413.194C555.288 414.349 554.868 415.237 554.026 415.857C553.185 416.47 551.98 416.777 550.411 416.777C548.836 416.777 547.57 416.538 546.615 416.06V413.889C548.005 414.531 549.299 414.852 550.497 414.852C552.044 414.852 552.818 414.385 552.818 413.45C552.818 413.151 552.732 412.901 552.561 412.702C552.39 412.502 552.108 412.295 551.716 412.082C551.324 411.868 550.779 411.625 550.08 411.354C548.718 410.827 547.795 410.299 547.31 409.771C546.832 409.244 546.593 408.559 546.593 407.718C546.593 406.705 547 405.921 547.813 405.365C548.633 404.802 549.745 404.52 551.149 404.52C552.54 404.52 553.855 404.802 555.096 405.365L554.283 407.258C553.007 406.73 551.934 406.467 551.064 406.467C549.738 406.467 549.075 406.844 549.075 407.6C549.075 407.971 549.246 408.285 549.588 408.541C549.937 408.798 550.693 409.151 551.855 409.6C552.832 409.978 553.542 410.324 553.984 410.638C554.426 410.951 554.754 411.315 554.968 411.729C555.182 412.135 555.288 412.623 555.288 413.194ZM505.235 441.814H503.374L502.818 430.926H505.781L505.235 441.814ZM502.69 445.226C502.69 444.698 502.829 444.299 503.107 444.028C503.385 443.75 503.781 443.611 504.294 443.611C504.8 443.611 505.189 443.754 505.46 444.039C505.731 444.324 505.866 444.72 505.866 445.226C505.866 445.732 505.727 446.135 505.449 446.434C505.178 446.727 504.793 446.873 504.294 446.873C503.788 446.873 503.392 446.73 503.107 446.445C502.829 446.16 502.69 445.754 502.69 445.226Z" fill="#94C1F2"/>
</g>
</g>
<defs>
<linearGradient id="paint0_linear_1_2" x1="-48" y1="512" x2="1488" y2="512" gradientUnits="userSpaceOnUse">
<stop stop-color="#04074A"/>
<stop offset="1" stop-color="#2A246D"/>
</linearGradient>
<linearGradient id="paint1_linear_1_2" x1="235.79" y1="233.74" x2="-65.3967" y2="35.0402" gradientUnits="userSpaceOnUse">
<stop stop-color="white"/>
<stop offset="0.8902" stop-color="#1D262D" stop-opacity="0"/>
</linearGradient>
<linearGradient id="paint2_linear_1_2" x1="1204.48" y1="303.806" x2="1507.76" y2="-85.227" gradientUnits="userSpaceOnUse">
<stop stop-color="white"/>
<stop offset="0.8902" stop-color="#1D262D" stop-opacity="0"/>
</linearGradient>
<linearGradient id="paint3_linear_1_2" x1="388.463" y1="736.574" x2="104.01" y2="912.265" gradientUnits="userSpaceOnUse">
<stop stop-color="white"/>
<stop offset="0.8902" stop-color="#1D262D" stop-opacity="0"/>
</linearGradient>
<linearGradient id="paint4_linear_1_2" x1="1132.21" y1="826.563" x2="1241.67" y2="953.452" gradientUnits="userSpaceOnUse">
<stop stop-color="white"/>
<stop offset="0.8902" stop-color="#1D262D" stop-opacity="0"/>
</linearGradient>
<clipPath id="clip0_1_2">
<rect width="1440" height="1024" fill="white"/>
</clipPath>
<clipPath id="clip1_1_2">
<rect width="1536" height="1024" fill="white" transform="translate(-48)"/>
</clipPath>
</defs>
</svg>
