<svg xmlns="http://www.w3.org/2000/svg" xmlns:xlink="http://www.w3.org/1999/xlink" width="2719" height="294" viewBox="0 0 2719 294">
  <defs>
    <clipPath id="clip-path">
      <rect id="Rectángulo_1674" data-name="Rectángulo 1674" width="163.168" height="122.691" fill="none"/>
    </clipPath>
  </defs>
  <g id="Grupo_3369" data-name="Grupo 3369" transform="translate(-7050 -13518)">
    <path id="Rectángulo_1675" data-name="Rectángulo 1675" d="M0,0H2719a0,0,0,0,1,0,0V278a16,16,0,0,1-16,16H16A16,16,0,0,1,0,278V0A0,0,0,0,1,0,0Z" transform="translate(7050 13518)" fill="#fff"/>
    <g id="Grupo_39" data-name="Grupo 39" transform="translate(7900.264 13600.721)">
      <g id="Grupo_9" data-name="Grupo 9" transform="translate(69.32 0)">
        <g id="Grupo_8" data-name="Grupo 8" transform="translate(0 0)">
          <path id="Trazado_26" data-name="Trazado 26" d="M182.629,171.762a11.875,11.875,0,1,1-11.7,11.891,11.488,11.488,0,0,1,11.7-11.891Zm0,19.445a7.6,7.6,0,1,0-7.1-7.583,7.034,7.034,0,0,0,7.1,7.581Z" transform="translate(-170.923 -171.736)" fill="#383d42"/>
          <path id="Trazado_27" data-name="Trazado 27" d="M257.535,176.689v18.574h-4.468V176.689h-7.2v-4.21h18.864v4.21Z" transform="translate(-195.56 -171.971)" fill="#383d42"/>
          <path id="Trazado_28" data-name="Trazado 28" d="M316.931,195.263V172.479h4.5v22.784Z" transform="translate(-218.934 -171.971)" fill="#383d42"/>
          <path id="Trazado_29" data-name="Trazado 29" d="M367.694,183.666a11.5,11.5,0,0,1,11.6-11.891,10.032,10.032,0,0,1,10.444,7.552l-4.178,1.318a5.958,5.958,0,0,0-6.268-4.6,7.588,7.588,0,0,0,.066,15.138,6.331,6.331,0,0,0,6.394-4.66l4.144,1.253a10.362,10.362,0,0,1-10.541,7.744,11.377,11.377,0,0,1-11.662-11.857Z" transform="translate(-235.634 -171.75)" fill="#383d42"/>
        </g>
      </g>
      <path id="Trazado_30" data-name="Trazado 30" d="M67.923,263.116l2.835-5.008a1.556,1.556,0,0,1,2.051-.362,18.045,18.045,0,0,0,8.562,3.312,3.78,3.78,0,0,0,4.163-3.618c0-2.532-2.114-4.466-6.213-6.1-5.2-2.051-11.705-6.1-11.705-13.34,0-5.974,4.644-12.006,13.937-12.006a22.438,22.438,0,0,1,12.91,4.522,1.526,1.526,0,0,1,.364,1.931l-3.08,4.646c-.421.665-1.506,1.207-2.048.785-.543-.3-4.947-3.618-8.628-3.618a3.5,3.5,0,0,0-3.8,3.077c0,2.232,1.809,3.923,6.575,5.851,4.7,1.87,12.187,5.551,12.187,13.756,0,6.213-5.37,12.49-14.244,12.49a19.163,19.163,0,0,1-13.566-4.646C67.623,264.2,67.442,263.961,67.923,263.116Z" transform="translate(-67.616 -189.587)" fill="#383d42"/>
      <path id="Trazado_31" data-name="Trazado 31" d="M227.836,228.045a1.146,1.146,0,0,1,1.149-1.146H253.96a1.144,1.144,0,0,1,1.146,1.146v6.575a1.144,1.144,0,0,1-1.146,1.149H237.251v8.687h13.756a1.189,1.189,0,0,1,1.149,1.146v6.575a1.189,1.189,0,0,1-1.149,1.146H237.251v14.66a1.187,1.187,0,0,1-1.146,1.146h-7.12a1.146,1.146,0,0,1-1.149-1.146Z" transform="translate(-120.309 -189.872)" fill="#383d42"/>
      <path id="Trazado_32" data-name="Trazado 32" d="M177.723,247.7a21.629,21.629,0,0,0-21.78-21.658h-.07V235.7h.07a12.038,12.038,0,1,1-12,12.173h-9.655a21.716,21.716,0,0,0,43.432-.167Z" transform="translate(-89.543 -189.59)" fill="#383d42"/>
      <path id="Trazado_33" data-name="Trazado 33" d="M385.361,228.045a1.144,1.144,0,0,1,1.146-1.146h24.978a1.146,1.146,0,0,1,1.146,1.146v6.575a1.146,1.146,0,0,1-1.146,1.149H394.774v8.687h13.749a1.187,1.187,0,0,1,1.146,1.146v6.575a1.187,1.187,0,0,1-1.146,1.146H394.767v14.66a1.188,1.188,0,0,1-1.149,1.146H386.5a1.144,1.144,0,0,1-1.146-1.146Z" transform="translate(-172.124 -189.872)" fill="#383d42"/>
      <path id="Trazado_34" data-name="Trazado 34" d="M463.835,244.849h-.059l-10.315,22.988a2.247,2.247,0,0,1-2.173,1.447h-6.645a1.065,1.065,0,0,1-1.027-1.567l18.884-40.6a1.225,1.225,0,0,1,1.027-.662h.6a1.221,1.221,0,0,1,1.024.662l18.884,40.6a1.065,1.065,0,0,1-1.025,1.567h-6.7c-1.083,0-1.567-.362-2.11-1.508Z" transform="translate(-191.249 -189.722)" fill="#006ebd"/>
      <path id="Trazado_35" data-name="Trazado 35" d="M313.524,226v9.655a12.067,12.067,0,1,1-12,12.338h-9.652A21.686,21.686,0,1,0,313.524,226Z" transform="translate(-141.368 -189.574)" fill="#383d42"/>
      <g id="Grupo_11" data-name="Grupo 11" transform="translate(58.264 95.05)">
        <g id="Grupo_10" data-name="Grupo 10" transform="translate(0)">
          <path id="Trazado_36" data-name="Trazado 36" d="M154.447,320.876a6.93,6.93,0,0,1,6.966-7.219,6.026,6.026,0,0,1,6.225,4.486l-2.2.741a3.844,3.844,0,0,0-4.02-3.023,5,5,0,0,0,.02,9.969,4.129,4.129,0,0,0,4.117-3.043l2.146.7a6.207,6.207,0,0,1-6.263,4.585,6.851,6.851,0,0,1-6.987-7.2Z" transform="translate(-154.438 -313.462)" fill="#383d42"/>
          <path id="Trazado_37" data-name="Trazado 37" d="M183.026,324.459l2.44-.371c.545-.079.7-.35.7-.678,0-.8-.547-1.443-1.8-1.443a1.831,1.831,0,0,0-1.951,1.716l-2.069-.468a3.722,3.722,0,0,1,4-3.1c2.926,0,4.038,1.657,4.038,3.55v4.721a8.61,8.61,0,0,0,.118,1.522H186.4a5.3,5.3,0,0,1-.1-1.21,3.317,3.317,0,0,1-2.926,1.5,2.98,2.98,0,0,1-3.22-2.869A2.924,2.924,0,0,1,183.026,324.459Zm3.141,1.5v-.43l-2.487.371c-.7.117-1.268.506-1.268,1.289a1.257,1.257,0,0,0,1.386,1.23,2.161,2.161,0,0,0,2.372-2.46Z" transform="translate(-162.892 -315.582)" fill="#383d42"/>
          <path id="Trazado_38" data-name="Trazado 38" d="M200.082,333.646V320.437h2.184v1.289a3.414,3.414,0,0,1,3.025-1.5,4.425,4.425,0,0,1,4.389,4.956,4.538,4.538,0,0,1-4.468,4.995,3.437,3.437,0,0,1-2.887-1.307v4.78Zm4.78-11.414a3,3,0,1,0,2.557,2.939,2.641,2.641,0,0,0-2.548-2.939Z" transform="translate(-169.445 -315.619)" fill="#383d42"/>
          <path id="Trazado_39" data-name="Trazado 39" d="M222.217,313.358a1.474,1.474,0,1,1-1.465,1.477A1.483,1.483,0,0,1,222.217,313.358ZM221.1,327.679v-9.5h2.245v9.5Z" transform="translate(-176.237 -313.358)" fill="#383d42"/>
          <path id="Trazado_40" data-name="Trazado 40" d="M234.831,319.108H236.8v2.01h-1.969v4.409c0,.839.371,1.192,1.21,1.192a4.861,4.861,0,0,0,.78-.079v1.872a3.546,3.546,0,0,1-1.386.226,2.621,2.621,0,0,1-2.849-2.828v-4.78h-1.755v-2.01h.488a1.357,1.357,0,0,0,1.463-1.483v-1.424h2.049Z" transform="translate(-179.553 -314.288)" fill="#383d42"/>
          <path id="Trazado_41" data-name="Trazado 41" d="M248.773,324.459l2.44-.371c.545-.077.7-.35.7-.678,0-.8-.547-1.443-1.8-1.443a1.831,1.831,0,0,0-1.951,1.716l-2.069-.468a3.722,3.722,0,0,1,4-3.1c2.926,0,4.04,1.657,4.04,3.55v4.721a8.651,8.651,0,0,0,.118,1.522h-2.107a5.292,5.292,0,0,1-.1-1.21,3.317,3.317,0,0,1-2.926,1.5,2.98,2.98,0,0,1-3.22-2.869A2.924,2.924,0,0,1,248.773,324.459Zm3.141,1.5v-.43l-2.487.371c-.7.117-1.268.506-1.268,1.286a1.257,1.257,0,0,0,1.386,1.23,2.161,2.161,0,0,0,2.372-2.458Z" transform="translate(-184.517 -315.582)" fill="#383d42"/>
          <path id="Trazado_42" data-name="Trazado 42" d="M265.845,327.778V313.653h2.261v14.125Z" transform="translate(-191.075 -313.449)" fill="#383d42"/>
          <path id="Trazado_43" data-name="Trazado 43" d="M298.641,327.915V322h-6.5v5.912H289.8V314.082h2.342V319.8h6.5v-5.716H301v13.833Z" transform="translate(-198.955 -313.6)" fill="#383d42"/>
          <path id="Trazado_44" data-name="Trazado 44" d="M318.232,330.313a3.514,3.514,0,0,1-3.59-3.785v-5.99H316.9v5.58c0,1.171.547,2.166,1.913,2.166a1.9,1.9,0,0,0,1.99-2.127v-5.619h2.261V328.3a15.525,15.525,0,0,0,.1,1.739l-2.166,0a7.077,7.077,0,0,1-.077-1.054A3.042,3.042,0,0,1,318.232,330.313Z" transform="translate(-207.128 -315.721)" fill="#383d42"/>
          <path id="Trazado_45" data-name="Trazado 45" d="M335.069,329.907v-9.5h2.166v1.21a3.242,3.242,0,0,1,2.808-1.483,2.98,2.98,0,0,1,2.849,1.678,3.335,3.335,0,0,1,3.082-1.678,3.262,3.262,0,0,1,3.355,3.617v6.166h-2.184v-5.795a1.735,1.735,0,0,0-1.834-1.951,1.976,1.976,0,0,0-1.969,2.107v5.639h-2.225v-5.795a1.734,1.734,0,0,0-1.834-1.951,1.942,1.942,0,0,0-1.969,2.107v5.639Z" transform="translate(-213.842 -315.586)" fill="#383d42"/>
          <path id="Trazado_46" data-name="Trazado 46" d="M366.162,324.459l2.44-.371c.547-.077.7-.35.7-.678,0-.8-.547-1.443-1.8-1.443a1.831,1.831,0,0,0-1.951,1.716l-2.069-.468a3.722,3.722,0,0,1,4-3.1c2.926,0,4.038,1.657,4.038,3.55v4.721a8.633,8.633,0,0,0,.118,1.522h-2.107a5.282,5.282,0,0,1-.1-1.21,3.315,3.315,0,0,1-2.926,1.5,2.98,2.98,0,0,1-3.215-2.863A2.923,2.923,0,0,1,366.162,324.459Zm3.141,1.5v-.43l-2.487.371c-.7.117-1.268.506-1.268,1.286a1.257,1.257,0,0,0,1.386,1.23,2.161,2.161,0,0,0,2.369-2.458Z" transform="translate(-223.124 -315.582)" fill="#383d42"/>
          <path id="Trazado_47" data-name="Trazado 47" d="M385.484,329.9h-2.261v-9.5h2.2v1.269a3.165,3.165,0,0,1,2.811-1.542,3.357,3.357,0,0,1,3.434,3.764v6.01h-2.261v-5.623c0-1.171-.527-2.107-1.951-2.107a1.994,1.994,0,0,0-1.972,2.243Z" transform="translate(-229.68 -315.584)" fill="#383d42"/>
          <path id="Trazado_48" data-name="Trazado 48" d="M412.438,325.137A4.927,4.927,0,1,1,407.5,320.1a4.839,4.839,0,0,1,4.936,5.033Zm-2.281,0a2.677,2.677,0,1,0-1.213,2.612A2.672,2.672,0,0,0,410.156,325.137Z" transform="translate(-236.049 -315.577)" fill="#383d42"/>
        </g>
      </g>
    </g>
    <g id="Grupo_3206" data-name="Grupo 3206" transform="translate(8359.148 13590.73)">
      <g id="Grupo_3366" data-name="Grupo 3366" clip-path="url(#clip-path)">
        <g id="Grupo_3162" data-name="Grupo 3162" transform="translate(0 0.007)">
          <path id="Trazado_1432" data-name="Trazado 1432" d="M137.763,94.321H10.205V18.849A10.4,10.4,0,0,1,20.611,8.443h87.472a28.054,28.054,0,0,1,1.622-5.2H20.639A15.615,15.615,0,0,0,5.03,18.849V99.524H142.994V39.689a27.836,27.836,0,0,1-5.2,1.119V94.321Z" transform="translate(9.041 5.816)" fill="#0c58a4"/>
          <path id="Trazado_1433" data-name="Trazado 1433" d="M0,35.6v5.79c0,9.567,6.965,17.343,15.553,17.343h132.09c8.56,0,15.553-7.777,15.553-17.343V35.6ZM147.643,52.943H15.553A11.012,11.012,0,0,1,5.2,41.39H158.021a11,11,0,0,1-10.35,11.553" transform="translate(0 63.978)" fill="#0c58a4"/>
          <rect id="Rectángulo_1460" data-name="Rectángulo 1460" width="102.83" height="67.108" transform="translate(31.47 26.679)" fill="#308cce"/>
          <path id="Trazado_1434" data-name="Trazado 1434" d="M21.158,45.019a5.846,5.846,0,0,1-.7-.028,1.731,1.731,0,0,1-1.566-1.818A1.5,1.5,0,0,1,20.4,41.663h.643c3.553,0,5.958-3.8,6.686-7.329a14.045,14.045,0,0,0,.28-2.657,36.313,36.313,0,0,1-.392-8.532,24.068,24.068,0,0,1,.448-5.483,1.565,1.565,0,0,1,1.594-1.231,1.775,1.775,0,0,1,1.315.559,1.43,1.43,0,0,1,.364,1.147c-.168,1.594-.308,3.273-.392,4.9,0,1.147.112,2.406.2,3.609.112,1.594.224,3.217.2,4.839a15.128,15.128,0,0,0,5.035,9.063,3.1,3.1,0,0,0,1.678.839,1.138,1.138,0,0,0,.671-.224,9.58,9.58,0,0,0,2.21-2.657,19.111,19.111,0,0,0,2.741-6.881,1.51,1.51,0,0,1,1.511-1.259,1.825,1.825,0,0,1,1.706,1.147L48.6,36.152a7.213,7.213,0,0,0,1.958-4.364,1.812,1.812,0,0,1,1.762-1.622,1.513,1.513,0,0,1,1.371.867L57.1,37.746a6.8,6.8,0,0,0,.923-3.133,1.642,1.642,0,0,1,1.287-1.594,5.462,5.462,0,0,1,.643-.056,3.175,3.175,0,0,1,2.993,2.07,1.467,1.467,0,0,1-.112,1.4,1.7,1.7,0,0,1-1.427.7,1.232,1.232,0,0,1-.448-.056,10.121,10.121,0,0,1-3.021,4.839,1.879,1.879,0,0,1-1.2.448,1.6,1.6,0,0,1-1.427-.839L52.6,36.18a10.691,10.691,0,0,1-3.916,4.056,1.709,1.709,0,0,1-.839.224,1.679,1.679,0,0,1-1.594-1.175l-.783-2.238a22.378,22.378,0,0,1-2.741,4.588,7.209,7.209,0,0,1-3.385,2.8,3.66,3.66,0,0,1-1.231.2,5.4,5.4,0,0,1-3.217-1.175A15.819,15.819,0,0,1,30.109,37.8a10.377,10.377,0,0,1-8.923,7.077" transform="translate(33.949 29.522)" fill="#fff"/>
          <path id="Trazado_1435" data-name="Trazado 1435" d="M75.106,11.632,58.461,28.276,47.44,17.255,64.084.611a2.111,2.111,0,0,1,2.965,0h0l8.056,8.056a2.111,2.111,0,0,1,0,2.965h0" transform="translate(85.265 -0.002)" fill="#1e2345"/>
          <path id="Trazado_1436" data-name="Trazado 1436" d="M69.448,6.99l-.7,1.119s-4.755,7.553-6.546,9.819a22.772,22.772,0,0,1-17.12,7.888,18.01,18.01,0,0,1-2.126-.084l-1.371-.168.2,1.371a27.3,27.3,0,0,1-.951,10.938A73.452,73.452,0,0,1,34.4,50.712l-.448.727,1.678,1.678.923.9.7-.476a73.354,73.354,0,0,1,12.728-6.63,25.887,25.887,0,0,1,8.14-1.231,23.419,23.419,0,0,1,2.8.14l1.371.168-.2-1.371A22.028,22.028,0,0,1,63.518,34.04a20.732,20.732,0,0,1,6.1-8.784c2.238-1.818,9.651-6.63,9.735-6.686l1.091-.7L69.42,6.99Zm-17.9,31.945a2.35,2.35,0,1,1,2.35-2.35h0a2.346,2.346,0,0,1-2.35,2.35" transform="translate(61.019 12.556)" fill="#1e2345"/>
        </g>
      </g>
      <g id="FIRMA_ELECTRÓNICA" data-name="FIRMA ELECTRÓNICA" transform="translate(227.73 24.225)">
        <g id="Grupo_3367" data-name="Grupo 3367" transform="translate(0)">
          <path id="Trazado_1749" data-name="Trazado 1749" d="M88.655,14.478v8.28h14.518v5.818H88.655V39.99H81.41V8.66H105.1v5.818H88.683Z" transform="translate(-81.41 -8.66)" fill="#1e2343"/>
          <path id="Trazado_1750" data-name="Trazado 1750" d="M91.76,8.66h7.245V39.99H91.76V8.66Z" transform="translate(-62.808 -8.66)" fill="#1e2343"/>
          <path id="Trazado_1751" data-name="Trazado 1751" d="M117.113,39.99l-6.042-8.728h-6.686V39.99H97.14V8.66h13.567c8.364,0,13.623,4.336,13.623,11.385a10.23,10.23,0,0,1-6.434,9.9l7.021,10.07h-7.8Zm-6.8-25.428h-5.9V25.5h5.9c4.42,0,6.658-2.07,6.658-5.455s-2.238-5.455-6.658-5.455Z" transform="translate(-53.138 -8.66)" fill="#1e2343"/>
          <path id="Trazado_1752" data-name="Trazado 1752" d="M137.553,39.972l-.056-18.8-9.231,15.5h-3.273l-9.175-15.078V40h-6.8V8.67h5.986l11.721,19.469L138.28,8.67h5.958L144.322,40h-6.8Z" transform="translate(-31.786 -8.642)" fill="#1e2343"/>
          <path id="Trazado_1753" data-name="Trazado 1753" d="M147.716,33.276H133.17L130.4,39.99H122.96L136.919,8.66h7.161l14.015,31.33h-7.609l-2.769-6.714Zm-2.294-5.511-4.979-12-4.979,12h9.931Z" transform="translate(-6.731 -8.66)" fill="#1e2343"/>
        </g>
        <g id="Grupo_3368" data-name="Grupo 3368" transform="translate(0 44.142)">
          <path id="Trazado_1754" data-name="Trazado 1754" d="M105.691,53.172V58.99H81.41V27.66H105.1v5.818H88.627v6.8h14.546v5.651H88.627v7.245Z" transform="translate(-81.41 -18.653)" fill="#318cce"/>
          <path id="Trazado_1755" data-name="Trazado 1755" d="M92.15,27.66H99.4V53.088h15.721v5.9H92.15Z" transform="translate(-62.107 -18.653)" fill="#318cce"/>
          <path id="Trazado_1756" data-name="Trazado 1756" d="M126.091,53.172V58.99H101.81V27.66H125.5v5.818H109.027v6.8h14.546v5.651H109.027v7.245Z" transform="translate(-44.745 -18.653)" fill="#318cce"/>
          <path id="Trazado_1757" data-name="Trazado 1757" d="M111.828,43.667c0-9.455,7.245-16.2,17.008-16.2,5.427,0,9.931,1.958,12.9,5.539l-4.672,4.308a10.124,10.124,0,0,0-7.888-3.664,9.613,9.613,0,0,0-10.042,10.014,9.635,9.635,0,0,0,10.042,10.042,10.044,10.044,0,0,0,7.888-3.72l4.672,4.308c-2.965,3.637-7.469,5.595-12.952,5.595-9.707,0-16.98-6.77-16.98-16.2Z" transform="translate(-26.789 -18.994)" fill="#318cce"/>
          <path id="Trazado_1758" data-name="Trazado 1758" d="M132.884,33.562H122.87v-5.9h27.3v5.9H140.13V58.99h-7.245Z" transform="translate(-6.893 -18.653)" fill="#318cce"/>
          <path id="Trazado_1759" data-name="Trazado 1759" d="M153.993,58.99l-6.042-8.728h-6.686V58.99H134.02V27.66h13.567c8.364,0,13.623,4.336,13.623,11.385a10.23,10.23,0,0,1-6.434,9.9l7.021,10.07h-7.8Zm-6.8-25.428h-5.9V44.5h5.9c4.42,0,6.658-2.07,6.658-5.455s-2.238-5.455-6.658-5.455Z" transform="translate(13.147 -18.653)" fill="#318cce"/>
          <path id="Trazado_1760" data-name="Trazado 1760" d="M145.07,49.112c0-9.315,7.245-16.2,17.148-16.2s17.148,6.853,17.148,16.2-7.3,16.2-17.148,16.2S145.07,58.428,145.07,49.112Zm26.966,0c0-5.958-4.224-10.014-9.819-10.014S152.4,43.182,152.4,49.112s4.2,10.042,9.819,10.042S172.036,55.071,172.036,49.112ZM164.2,24.44h7.525l-8.112,6.434h-5.455L164.2,24.44Z" transform="translate(33.008 -24.44)" fill="#318cce"/>
          <path id="Trazado_1761" data-name="Trazado 1761" d="M188.036,27.66V58.99h-5.958L166.441,39.968V58.99H159.28V27.66h5.986l15.581,19.022V27.66h7.161Z" transform="translate(58.548 -18.653)" fill="#318cce"/>
          <path id="Trazado_1762" data-name="Trazado 1762" d="M172.21,27.66h7.245V58.99H172.21Z" transform="translate(81.787 -18.653)" fill="#318cce"/>
          <path id="Trazado_1763" data-name="Trazado 1763" d="M176.768,43.667c0-9.455,7.245-16.2,17.008-16.2,5.427,0,9.931,1.958,12.9,5.539L202,37.317a10.124,10.124,0,0,0-7.888-3.664,9.613,9.613,0,0,0-10.042,10.014,9.635,9.635,0,0,0,10.042,10.042A10.044,10.044,0,0,0,202,49.988l4.672,4.308c-2.965,3.637-7.469,5.595-12.952,5.595-9.707,0-16.98-6.77-16.98-16.2Z" transform="translate(89.929 -18.994)" fill="#318cce"/>
          <path id="Trazado_1764" data-name="Trazado 1764" d="M212.246,52.276H197.7l-2.769,6.714H187.49l13.959-31.33h7.161l14.015,31.33h-7.609l-2.769-6.714Zm-2.294-5.511-4.979-12-4.979,12h9.931Z" transform="translate(109.25 -18.653)" fill="#318cce"/>
        </g>
      </g>
    </g>
  </g>
</svg>
