<?xml version="1.0" encoding="utf-8"?>
<!-- Generator: Adobe Illustrator 25.4.8, SVG Export Plug-In . SVG Version: 6.00 Build 0)  -->
<svg version="1.1" xmlns="http://www.w3.org/2000/svg" xmlns:xlink="http://www.w3.org/1999/xlink" x="0px" y="0px"
	 viewBox="0 0 750 500" style="enable-background:new 0 0 750 500;" xml:space="preserve">
<style type="text/css">
	.st0{fill:url(#SVGID_1_);}
	.st1{opacity:0.42;}
	.st2{fill:#FFFFFF;}
	.st3{opacity:0.5;fill:url(#SVGID_00000039132102334327374690000000573308726515875205_);}
	.st4{opacity:0.5;fill:url(#SVGID_00000041266816246709692680000005562006630631510934_);}
	.st5{opacity:0.5;fill:url(#SVGID_00000173851727206123922990000006851003764075718305_);}
	.st6{opacity:0.5;fill:url(#SVGID_00000150785390293822099100000017457232803699964849_);}
</style>
<g id="BACKGROUND">
	<g>
		<linearGradient id="SVGID_1_" gradientUnits="userSpaceOnUse" x1="0" y1="250" x2="750" y2="250">
			<stop  offset="0" style="stop-color:#04074A"/>
			<stop  offset="1" style="stop-color:#2A246D"/>
		</linearGradient>
		<rect class="st0" width="750" height="500"/>
		<g>
			<g class="st1">
				<g>
					<circle class="st2" cx="463.22" cy="97.75" r="1.18"/>
				</g>
				<g>
					<circle class="st2" cx="326.02" cy="141.15" r="1.18"/>
				</g>
				<g>
					<circle class="st2" cx="481.63" cy="206.06" r="1.18"/>
				</g>
				<g>
					<circle class="st2" cx="516.1" cy="262.17" r="1.18"/>
				</g>
				<g>
					<path class="st2" d="M448.01,181.57c0,0.65-0.53,1.18-1.18,1.18c-0.65,0-1.18-0.53-1.18-1.18c0-0.65,0.53-1.18,1.18-1.18
						C447.49,180.39,448.01,180.92,448.01,181.57z"/>
				</g>
				<g>
					<circle class="st2" cx="579.21" cy="171.28" r="1.18"/>
				</g>
				<g>
					<path class="st2" d="M416.88,65.63c0,0.65-0.53,1.18-1.18,1.18c-0.65,0-1.18-0.53-1.18-1.18c0-0.65,0.53-1.18,1.18-1.18
						C416.35,64.45,416.88,64.98,416.88,65.63z"/>
				</g>
				<g>
					<path class="st2" d="M341.46,87.46c0,0.65-0.53,1.18-1.18,1.18c-0.65,0-1.18-0.53-1.18-1.18c0-0.65,0.53-1.18,1.18-1.18
						C340.93,86.29,341.46,86.81,341.46,87.46z"/>
				</g>
				<g>
					<circle class="st2" cx="302.33" cy="88.44" r="1.18"/>
				</g>
				<g>
					<path class="st2" d="M282.68,154.41c0,0.65-0.53,1.18-1.18,1.18c-0.65,0-1.18-0.53-1.18-1.18c0-0.65,0.53-1.18,1.18-1.18
						C282.15,153.23,282.68,153.76,282.68,154.41z"/>
				</g>
				<g>
					<circle class="st2" cx="305.83" cy="190.63" r="1.18"/>
				</g>
				<g>
					<path class="st2" d="M222.31,277.49c0,0.65-0.53,1.18-1.18,1.18c-0.65,0-1.18-0.53-1.18-1.18c0-0.65,0.53-1.18,1.18-1.18
						C221.79,276.31,222.31,276.84,222.31,277.49z"/>
				</g>
				<g>
					<path class="st2" d="M230.81,254.6c0,0.65-0.53,1.18-1.18,1.18c-0.65,0-1.18-0.53-1.18-1.18c0-0.65,0.53-1.18,1.18-1.18
						C230.28,253.42,230.81,253.95,230.81,254.6z"/>
				</g>
				<g>
					<path class="st2" d="M182.94,383.02c0,0.65-0.53,1.18-1.18,1.18c-0.65,0-1.18-0.53-1.18-1.18c0-0.65,0.53-1.18,1.18-1.18
						C182.41,381.84,182.94,382.37,182.94,383.02z"/>
				</g>
				<g>
					<path class="st2" d="M201.75,344.37c0,0.65-0.53,1.18-1.18,1.18c-0.65,0-1.18-0.53-1.18-1.18s0.53-1.18,1.18-1.18
						C201.22,343.19,201.75,343.72,201.75,344.37z"/>
				</g>
				<g>
					<circle class="st2" cx="213.98" cy="453.68" r="1.18"/>
				</g>
				<g>
					<path class="st2" d="M172.72,479.07c0,0.65-0.53,1.18-1.18,1.18c-0.65,0-1.18-0.53-1.18-1.18c0-0.65,0.53-1.18,1.18-1.18
						C172.19,477.89,172.72,478.42,172.72,479.07z"/>
				</g>
				<g>
					<path class="st2" d="M377.22,467.11c0,0.65-0.53,1.18-1.18,1.18c-0.65,0-1.18-0.53-1.18-1.18c0-0.65,0.53-1.18,1.18-1.18
						C376.69,465.94,377.22,466.46,377.22,467.11z"/>
				</g>
				<g>
					<path class="st2" d="M455.6,457.75c0,0.65-0.53,1.18-1.18,1.18c-0.65,0-1.18-0.53-1.18-1.18c0-0.65,0.53-1.18,1.18-1.18
						C455.08,456.57,455.6,457.1,455.6,457.75z"/>
				</g>
				<g>
					<path class="st2" d="M473.59,411.63c0,0.65-0.53,1.18-1.18,1.18s-1.18-0.53-1.18-1.18c0-0.65,0.53-1.18,1.18-1.18
						S473.59,410.98,473.59,411.63z"/>
				</g>
				<g>
					<path class="st2" d="M388.52,400.4c0,0.65-0.53,1.18-1.18,1.18c-0.65,0-1.18-0.53-1.18-1.18c0-0.65,0.53-1.18,1.18-1.18
						C387.99,399.22,388.52,399.75,388.52,400.4z"/>
				</g>
				<g>
					<path class="st2" d="M380.91,372.84c0,0.65-0.53,1.18-1.18,1.18c-0.65,0-1.18-0.53-1.18-1.18c0-0.65,0.53-1.18,1.18-1.18
						C380.39,371.66,380.91,372.19,380.91,372.84z"/>
				</g>
				<g>
					<path class="st2" d="M362.77,373.81c0,0.65-0.53,1.18-1.18,1.18c-0.65,0-1.18-0.53-1.18-1.18c0-0.65,0.53-1.18,1.18-1.18
						C362.24,372.63,362.77,373.16,362.77,373.81z"/>
				</g>
				<g>
					<circle class="st2" cx="583.85" cy="387.89" r="1.18"/>
				</g>
				<g>
					<circle class="st2" cx="534.8" cy="379.49" r="1.18"/>
				</g>
				<g>
					<path class="st2" d="M587.96,341.61c0,0.65-0.53,1.18-1.18,1.18c-0.65,0-1.18-0.53-1.18-1.18c0-0.65,0.53-1.18,1.18-1.18
						C587.43,340.43,587.96,340.96,587.96,341.61z"/>
				</g>
				<g>
					<circle class="st2" cx="600.15" cy="285.88" r="1.18"/>
				</g>
				<g>
					<circle class="st2" cx="574.68" cy="267.88" r="1.18"/>
				</g>
				<g>
					<circle class="st2" cx="585.53" cy="217.65" r="1.18"/>
				</g>
				<g>
					<circle class="st2" cx="592.02" cy="217.67" r="1.18"/>
				</g>
				<g>
					<circle class="st2" cx="450.81" cy="127.99" r="1.18"/>
				</g>
				<g>
					<circle class="st2" cx="362.05" cy="165.83" r="1.18"/>
				</g>
				<g>
					<circle class="st2" cx="423.03" cy="179.9" r="1.18"/>
				</g>
				<g>
					<path class="st2" d="M214.86,180.95c0,0.65-0.53,1.18-1.18,1.18c-0.65,0-1.18-0.53-1.18-1.18c0-0.65,0.53-1.18,1.18-1.18
						C214.34,179.78,214.86,180.3,214.86,180.95z"/>
				</g>
				<g>
					<circle class="st2" cx="177.8" cy="233.84" r="1.18"/>
				</g>
				<g>
					<path class="st2" d="M164.84,273.59c0,0.65-0.53,1.18-1.18,1.18c-0.65,0-1.18-0.53-1.18-1.18c0-0.65,0.53-1.18,1.18-1.18
						C164.32,272.41,164.84,272.94,164.84,273.59z"/>
				</g>
				<g>
					<path class="st2" d="M173.4,156.46c0,0.65-0.53,1.18-1.18,1.18c-0.65,0-1.18-0.53-1.18-1.18c0-0.65,0.53-1.18,1.18-1.18
						C172.88,155.29,173.4,155.81,173.4,156.46z"/>
				</g>
				<g>
					<path class="st2" d="M180.11,65.05c0,0.65-0.53,1.18-1.18,1.18c-0.65,0-1.18-0.53-1.18-1.18c0-0.65,0.53-1.18,1.18-1.18
						C179.58,63.87,180.11,64.4,180.11,65.05z"/>
				</g>
				<g>
					<circle class="st2" cx="211.1" cy="57.42" r="1.18"/>
				</g>
				<g>
					<path class="st2" d="M364.1,51.51c0,0.65-0.53,1.18-1.18,1.18c-0.65,0-1.18-0.53-1.18-1.18c0-0.65,0.53-1.18,1.18-1.18
						C363.58,50.33,364.1,50.86,364.1,51.51z"/>
				</g>
				<g>
					<path class="st2" d="M316.82,63.75c0,0.65-0.53,1.18-1.18,1.18c-0.65,0-1.18-0.53-1.18-1.18c0-0.65,0.53-1.18,1.18-1.18
						C316.29,62.57,316.82,63.1,316.82,63.75z"/>
				</g>
				<g>
					<circle class="st2" cx="452.7" cy="49.58" r="1.18"/>
				</g>
				<g>
					<path class="st2" d="M441.51,86.41c0,0.65-0.53,1.18-1.18,1.18c-0.65,0-1.18-0.53-1.18-1.18c0-0.65,0.53-1.18,1.18-1.18
						C440.98,85.23,441.51,85.76,441.51,86.41z"/>
				</g>
				<g>
					<circle class="st2" cx="418.49" cy="125.16" r="1.18"/>
				</g>
				<g>
					<path class="st2" d="M338.61,170.58c0,0.65-0.53,1.18-1.18,1.18c-0.65,0-1.18-0.53-1.18-1.18c0-0.65,0.53-1.18,1.18-1.18
						C338.08,169.4,338.61,169.93,338.61,170.58z"/>
				</g>
				<g>
					<circle class="st2" cx="310.37" cy="187.27" r="1.18"/>
				</g>
				<g>
					<circle class="st2" cx="269.3" cy="238.57" r="1.18"/>
				</g>
				<g>
					<circle class="st2" cx="261.81" cy="263.28" r="1.18"/>
				</g>
				<g>
					<circle class="st2" cx="269.37" cy="303" r="1.18"/>
				</g>
				<g>
					<path class="st2" d="M282.86,333.24c0,0.65-0.53,1.18-1.18,1.18c-0.65,0-1.18-0.53-1.18-1.18c0-0.65,0.53-1.18,1.18-1.18
						C282.33,332.07,282.86,332.59,282.86,333.24z"/>
				</g>
				<g>
					<circle class="st2" cx="346.58" cy="350.95" r="1.18"/>
				</g>
				<g>
					<circle class="st2" cx="397.64" cy="358.52" r="1.18"/>
				</g>
				<g>
					<path class="st2" d="M417.88,363.46c0,0.65-0.53,1.18-1.18,1.18s-1.18-0.53-1.18-1.18c0-0.65,0.53-1.18,1.18-1.18
						S417.88,362.81,417.88,363.46z"/>
				</g>
				<g>
					<circle class="st2" cx="475.29" cy="345.62" r="1.18"/>
				</g>
				<g>
					<path class="st2" d="M480.19,309.75c0,0.65-0.53,1.18-1.18,1.18c-0.65,0-1.18-0.53-1.18-1.18c0-0.65,0.53-1.18,1.18-1.18
						C479.66,308.57,480.19,309.1,480.19,309.75z"/>
				</g>
				<g>
					<circle class="st2" cx="466.39" cy="241.54" r="1.18"/>
				</g>
				<g>
					<path class="st2" d="M451.41,228.18c0,0.65-0.53,1.18-1.18,1.18c-0.65,0-1.18-0.53-1.18-1.18c0-0.65,0.53-1.18,1.18-1.18
						C450.88,227.01,451.41,227.53,451.41,228.18z"/>
				</g>
				<g>
					<circle class="st2" cx="450.48" cy="199.73" r="1.18"/>
				</g>
				<g>
					<path class="st2" d="M299.81,210.34c0,0.65-0.53,1.18-1.18,1.18c-0.65,0-1.18-0.53-1.18-1.18c0-0.65,0.53-1.18,1.18-1.18
						C299.28,209.17,299.81,209.69,299.81,210.34z"/>
				</g>
				<g>
					<path class="st2" d="M294.24,230.25c0,0.65-0.53,1.18-1.18,1.18s-1.18-0.53-1.18-1.18c0-0.65,0.53-1.18,1.18-1.18
						S294.24,229.6,294.24,230.25z"/>
				</g>
				<g>
					<path class="st2" d="M295.26,280.28c0,0.65-0.53,1.18-1.18,1.18c-0.65,0-1.18-0.53-1.18-1.18s0.53-1.18,1.18-1.18
						C294.74,279.1,295.26,279.63,295.26,280.28z"/>
				</g>
				<g>
					<circle class="st2" cx="436.2" cy="332.29" r="1.18"/>
				</g>
				<g>
					<path class="st2" d="M449.64,318.97c0,0.65-0.53,1.18-1.18,1.18c-0.65,0-1.18-0.53-1.18-1.18c0-0.65,0.53-1.18,1.18-1.18
						C449.11,317.8,449.64,318.32,449.64,318.97z"/>
				</g>
				<g>
					<circle class="st2" cx="460.86" cy="310.39" r="1.18"/>
				</g>
				<g>
					<path class="st2" d="M487.73,297.24c0,0.65-0.53,1.18-1.18,1.18c-0.65,0-1.18-0.53-1.18-1.18c0-0.65,0.53-1.18,1.18-1.18
						C487.2,296.07,487.73,296.59,487.73,297.24z"/>
				</g>
				<g>
					<path class="st2" d="M503.6,272.69c0,0.65-0.53,1.18-1.18,1.18c-0.65,0-1.18-0.53-1.18-1.18c0-0.65,0.53-1.18,1.18-1.18
						C503.08,271.52,503.6,272.04,503.6,272.69z"/>
				</g>
				<g>
					<circle class="st2" cx="508.38" cy="247.9" r="1.18"/>
				</g>
				<g>
					<path class="st2" d="M511.69,233.49c0,0.65-0.53,1.18-1.18,1.18c-0.65,0-1.18-0.53-1.18-1.18c0-0.65,0.53-1.18,1.18-1.18
						C511.17,232.32,511.69,232.84,511.69,233.49z"/>
				</g>
				<g>
					<path class="st2" d="M485.74,232.84c0,0.65-0.53,1.18-1.18,1.18c-0.65,0-1.18-0.53-1.18-1.18c0-0.65,0.53-1.18,1.18-1.18
						C485.22,231.67,485.74,232.19,485.74,232.84z"/>
				</g>
				<g>
					<circle class="st2" cx="495.84" cy="205.67" r="1.18"/>
				</g>
				<g>
					<path class="st2" d="M500.81,208.23c0,0.65-0.53,1.18-1.18,1.18c-0.65,0-1.18-0.53-1.18-1.18c0-0.65,0.53-1.18,1.18-1.18
						C500.29,207.05,500.81,207.58,500.81,208.23z"/>
				</g>
				<g>
					<path class="st2" d="M532.76,262.15c0,0.65-0.53,1.18-1.18,1.18c-0.65,0-1.18-0.53-1.18-1.18c0-0.65,0.53-1.18,1.18-1.18
						C532.23,260.97,532.76,261.5,532.76,262.15z"/>
				</g>
				<g>
					<circle class="st2" cx="518.13" cy="287.89" r="1.18"/>
				</g>
				<g>
					<path class="st2" d="M517.25,286.42c0,0.65-0.53,1.18-1.18,1.18c-0.65,0-1.18-0.53-1.18-1.18c0-0.65,0.53-1.18,1.18-1.18
						C516.73,285.24,517.25,285.77,517.25,286.42z"/>
				</g>
				<g>
					<circle class="st2" cx="480.97" cy="371.14" r="1.18"/>
				</g>
			</g>
			<g>
				<g>
					<circle class="st2" cx="306.3" cy="130.99" r="1.18"/>
				</g>
				<g>
					<path class="st2" d="M372.73,152.9c0,0.65-0.53,1.18-1.18,1.18c-0.65,0-1.18-0.53-1.18-1.18c0-0.65,0.53-1.18,1.18-1.18
						C372.2,151.72,372.73,152.25,372.73,152.9z"/>
				</g>
				<g>
					<circle class="st2" cx="297.82" cy="179.29" r="1.18"/>
				</g>
				<g>
					<path class="st2" d="M310.4,159.4c0,0.65-0.53,1.18-1.18,1.18c-0.65,0-1.18-0.53-1.18-1.18c0-0.65,0.53-1.18,1.18-1.18
						C309.87,158.22,310.4,158.75,310.4,159.4z"/>
				</g>
				<g>
					<path class="st2" d="M440.57,189.6c0,0.65-0.53,1.18-1.18,1.18c-0.65,0-1.18-0.53-1.18-1.18c0-0.65,0.53-1.18,1.18-1.18
						C440.04,188.42,440.57,188.95,440.57,189.6z"/>
				</g>
				<g>
					<circle class="st2" cx="294.14" cy="217.88" r="1.18"/>
				</g>
				<g>
					<path class="st2" d="M290.65,260.19c0,0.65-0.53,1.18-1.18,1.18c-0.65,0-1.18-0.53-1.18-1.18c0-0.65,0.53-1.18,1.18-1.18
						C290.12,259.01,290.65,259.54,290.65,260.19z"/>
				</g>
				<g>
					<path class="st2" d="M457.5,246.22c0,0.65-0.53,1.18-1.18,1.18c-0.65,0-1.18-0.53-1.18-1.18c0-0.65,0.53-1.18,1.18-1.18
						C456.97,245.04,457.5,245.57,457.5,246.22z"/>
				</g>
				<g>
					<circle class="st2" cx="468.7" cy="213.13" r="1.18"/>
				</g>
				<g>
					<path class="st2" d="M419.85,154.69c0,0.65-0.53,1.18-1.18,1.18c-0.65,0-1.18-0.53-1.18-1.18c0-0.65,0.53-1.18,1.18-1.18
						C419.32,153.52,419.85,154.04,419.85,154.69z"/>
				</g>
				<g>
					<circle class="st2" cx="440.4" cy="120.68" r="1.18"/>
				</g>
				<g>
					<circle class="st2" cx="352.64" cy="107.33" r="1.18"/>
				</g>
				<g>
					<path class="st2" d="M353.81,129.23c0,0.65-0.53,1.18-1.18,1.18c-0.65,0-1.18-0.53-1.18-1.18c0-0.65,0.53-1.18,1.18-1.18
						C353.28,128.06,353.81,128.58,353.81,129.23z"/>
				</g>
				<g>
					<circle class="st2" cx="511.99" cy="278.16" r="1.18"/>
				</g>
				<g>
					<path class="st2" d="M494.29,342.22c0,0.65-0.53,1.18-1.18,1.18c-0.65,0-1.18-0.53-1.18-1.18c0-0.65,0.53-1.18,1.18-1.18
						C493.76,341.04,494.29,341.57,494.29,342.22z"/>
				</g>
				<g>
					<circle class="st2" cx="495.01" cy="390.34" r="1.18"/>
				</g>
				<g>
					<path class="st2" d="M411.45,430.04c0,0.65-0.53,1.18-1.18,1.18c-0.65,0-1.18-0.53-1.18-1.18c0-0.65,0.53-1.18,1.18-1.18
						C410.92,428.86,411.45,429.39,411.45,430.04z"/>
				</g>
				<g>
					<circle class="st2" cx="374.23" cy="434.81" r="1.18"/>
				</g>
				<g>
					<circle class="st2" cx="357.13" cy="403.59" r="1.18"/>
				</g>
				<g>
					<circle class="st2" cx="397.09" cy="397.91" r="1.18"/>
				</g>
				<g>
					<path class="st2" d="M390.73,375.96c0,0.65-0.53,1.18-1.18,1.18c-0.65,0-1.18-0.53-1.18-1.18c0-0.65,0.53-1.18,1.18-1.18
						C390.2,374.78,390.73,375.31,390.73,375.96z"/>
				</g>
				<g>
					<circle class="st2" cx="372.26" cy="379.83" r="1.18"/>
				</g>
				<g>
					<circle class="st2" cx="212.1" cy="339.42" r="1.18"/>
				</g>
				<g>
					<circle class="st2" cx="238.58" cy="365.9" r="1.18"/>
				</g>
				<g>
					<path class="st2" d="M319.84,339.42c0,0.65-0.53,1.18-1.18,1.18c-0.65,0-1.18-0.53-1.18-1.18c0-0.65,0.53-1.18,1.18-1.18
						C319.31,338.25,319.84,338.77,319.84,339.42z"/>
				</g>
				<g>
					<circle class="st2" cx="287.57" cy="280.19" r="1.18"/>
				</g>
				<g>
					<path class="st2" d="M233.04,278.14c0,0.65-0.53,1.18-1.18,1.18c-0.65,0-1.18-0.53-1.18-1.18c0-0.65,0.53-1.18,1.18-1.18
						C232.52,276.97,233.04,277.5,233.04,278.14z"/>
				</g>
			</g>
			<g>
				<g>
					<path class="st2" d="M138.3,47.79c0,0.65-0.53,1.18-1.18,1.18c-0.65,0-1.18-0.53-1.18-1.18c0-0.65,0.53-1.18,1.18-1.18
						C137.77,46.62,138.3,47.14,138.3,47.79z"/>
				</g>
				<g>
					<path class="st2" d="M203.56,69.7c0,0.65-0.53,1.18-1.18,1.18c-0.65,0-1.18-0.53-1.18-1.18c0-0.65,0.53-1.18,1.18-1.18
						C203.03,68.52,203.56,69.05,203.56,69.7z"/>
				</g>
				<g>
					<circle class="st2" cx="128.65" cy="96.09" r="1.18"/>
				</g>
				<g>
					<circle class="st2" cx="140.05" cy="76.2" r="1.18"/>
				</g>
				<g>
					<path class="st2" d="M271.4,106.4c0,0.65-0.53,1.18-1.18,1.18c-0.65,0-1.18-0.53-1.18-1.18c0-0.65,0.53-1.18,1.18-1.18
						C270.87,105.22,271.4,105.75,271.4,106.4z"/>
				</g>
				<g>
					<circle class="st2" cx="124.97" cy="134.68" r="1.18"/>
				</g>
				<g>
					<circle class="st2" cx="120.3" cy="176.99" r="1.18"/>
				</g>
				<g>
					<path class="st2" d="M288.33,163.02c0,0.65-0.53,1.18-1.18,1.18c-0.65,0-1.18-0.53-1.18-1.18c0-0.65,0.53-1.18,1.18-1.18
						C287.8,161.84,288.33,162.37,288.33,163.02z"/>
				</g>
				<g>
					<path class="st2" d="M300.7,129.93c0,0.65-0.53,1.18-1.18,1.18c-0.65,0-1.18-0.53-1.18-1.18s0.53-1.18,1.18-1.18
						C300.17,128.76,300.7,129.28,300.7,129.93z"/>
				</g>
				<g>
					<path class="st2" d="M250.68,71.5c0,0.65-0.53,1.18-1.18,1.18s-1.18-0.53-1.18-1.18c0-0.65,0.53-1.18,1.18-1.18
						S250.68,70.85,250.68,71.5z"/>
				</g>
				<g>
					<path class="st2" d="M272.4,37.48c0,0.65-0.53,1.18-1.18,1.18c-0.65,0-1.18-0.53-1.18-1.18c0-0.65,0.53-1.18,1.18-1.18
						C271.88,36.3,272.4,36.83,272.4,37.48z"/>
				</g>
				<g>
					<path class="st2" d="M184.64,24.14c0,0.65-0.53,1.18-1.18,1.18c-0.65,0-1.18-0.53-1.18-1.18c0-0.65,0.53-1.18,1.18-1.18
						C184.12,22.96,184.64,23.49,184.64,24.14z"/>
				</g>
				<g>
					<path class="st2" d="M184.64,46.04c0,0.65-0.53,1.18-1.18,1.18c-0.65,0-1.18-0.53-1.18-1.18c0-0.65,0.53-1.18,1.18-1.18
						C184.11,44.86,184.64,45.39,184.64,46.04z"/>
				</g>
				<g>
					<circle class="st2" cx="342.82" cy="194.97" r="1.18"/>
				</g>
				<g>
					<path class="st2" d="M325.11,259.02c0,0.65-0.53,1.18-1.18,1.18c-0.65,0-1.18-0.53-1.18-1.18c0-0.65,0.53-1.18,1.18-1.18
						C324.59,257.84,325.11,258.37,325.11,259.02z"/>
				</g>
				<g>
					<path class="st2" d="M327.01,307.14c0,0.65-0.53,1.18-1.18,1.18c-0.65,0-1.18-0.53-1.18-1.18s0.53-1.18,1.18-1.18
						C326.48,305.97,327.01,306.49,327.01,307.14z"/>
				</g>
				<g>
					<circle class="st2" cx="241.1" cy="346.84" r="1.18"/>
				</g>
				<g>
					<circle class="st2" cx="205.06" cy="351.61" r="1.18"/>
				</g>
				<g>
					<path class="st2" d="M189.13,320.4c0,0.65-0.53,1.18-1.18,1.18c-0.65,0-1.18-0.53-1.18-1.18c0-0.65,0.53-1.18,1.18-1.18
						C188.61,319.22,189.13,319.75,189.13,320.4z"/>
				</g>
				<g>
					<path class="st2" d="M229.1,314.71c0,0.65-0.53,1.18-1.18,1.18c-0.65,0-1.18-0.53-1.18-1.18c0-0.65,0.53-1.18,1.18-1.18
						C228.57,313.54,229.1,314.06,229.1,314.71z"/>
				</g>
				<g>
					<path class="st2" d="M221.55,292.76c0,0.65-0.53,1.18-1.18,1.18c-0.65,0-1.18-0.53-1.18-1.18c0-0.65,0.53-1.18,1.18-1.18
						C221.03,291.59,221.55,292.11,221.55,292.76z"/>
				</g>
				<g>
					<path class="st2" d="M204.26,296.63c0,0.65-0.53,1.18-1.18,1.18c-0.65,0-1.18-0.53-1.18-1.18c0-0.65,0.53-1.18,1.18-1.18
						C203.73,295.45,204.26,295.98,204.26,296.63z"/>
				</g>
				<g>
					<path class="st2" d="M44.11,256.22c0,0.65-0.53,1.18-1.18,1.18c-0.65,0-1.18-0.53-1.18-1.18c0-0.65,0.53-1.18,1.18-1.18
						C43.58,255.04,44.11,255.57,44.11,256.22z"/>
				</g>
				<g>
					<circle class="st2" cx="69.4" cy="282.7" r="1.18"/>
				</g>
				<g>
					<path class="st2" d="M150.66,256.23c0,0.65-0.53,1.18-1.18,1.18c-0.65,0-1.18-0.53-1.18-1.18c0-0.65,0.53-1.18,1.18-1.18
						C150.14,255.05,150.66,255.58,150.66,256.23z"/>
				</g>
				<g>
					<circle class="st2" cx="118.4" cy="197" r="1.18"/>
				</g>
				<g>
					<path class="st2" d="M63.87,194.95c0,0.65-0.53,1.18-1.18,1.18c-0.65,0-1.18-0.53-1.18-1.18c0-0.65,0.53-1.18,1.18-1.18
						C63.34,193.77,63.87,194.3,63.87,194.95z"/>
				</g>
			</g>
			<g>
				<g>
					<path class="st2" d="M487.48,163.05c0,0.65-0.53,1.18-1.18,1.18c-0.65,0-1.18-0.53-1.18-1.18c0-0.65,0.53-1.18,1.18-1.18
						C486.96,161.88,487.48,162.4,487.48,163.05z"/>
				</g>
				<g>
					<path class="st2" d="M552.74,184.96c0,0.65-0.53,1.18-1.18,1.18c-0.65,0-1.18-0.53-1.18-1.18c0-0.65,0.53-1.18,1.18-1.18
						C552.21,183.78,552.74,184.31,552.74,184.96z"/>
				</g>
				<g>
					<path class="st2" d="M479,211.35c0,0.65-0.53,1.18-1.18,1.18c-0.65,0-1.18-0.53-1.18-1.18c0-0.65,0.53-1.18,1.18-1.18
						C478.48,210.17,479,210.7,479,211.35z"/>
				</g>
				<g>
					<path class="st2" d="M490.41,191.46c0,0.65-0.53,1.18-1.18,1.18c-0.65,0-1.18-0.53-1.18-1.18c0-0.65,0.53-1.18,1.18-1.18
						C489.88,190.28,490.41,190.81,490.41,191.46z"/>
				</g>
				<g>
					<circle class="st2" cx="619.4" cy="221.66" r="1.18"/>
				</g>
				<g>
					<path class="st2" d="M475.33,249.94c0,0.65-0.53,1.18-1.18,1.18c-0.65,0-1.18-0.53-1.18-1.18c0-0.65,0.53-1.18,1.18-1.18
						C474.8,248.76,475.33,249.29,475.33,249.94z"/>
				</g>
				<g>
					<path class="st2" d="M470.66,292.25c0,0.65-0.53,1.18-1.18,1.18c-0.65,0-1.18-0.53-1.18-1.18s0.53-1.18,1.18-1.18
						C470.13,291.07,470.66,291.6,470.66,292.25z"/>
				</g>
				<g>
					<path class="st2" d="M637.51,278.28c0,0.65-0.53,1.18-1.18,1.18c-0.65,0-1.18-0.53-1.18-1.18c0-0.65,0.53-1.18,1.18-1.18
						C636.98,277.1,637.51,277.63,637.51,278.28z"/>
				</g>
				<g>
					<circle class="st2" cx="648.71" cy="245.19" r="1.18"/>
				</g>
				<g>
					<circle class="st2" cx="598.68" cy="186.76" r="1.18"/>
				</g>
				<g>
					<circle class="st2" cx="620.41" cy="152.74" r="1.18"/>
				</g>
				<g>
					<path class="st2" d="M533.83,139.4c0,0.65-0.53,1.18-1.18,1.18s-1.18-0.53-1.18-1.18c0-0.65,0.53-1.18,1.18-1.18
						S533.83,138.75,533.83,139.4z"/>
				</g>
				<g>
					<path class="st2" d="M533.82,161.3c0,0.65-0.53,1.18-1.18,1.18c-0.65,0-1.18-0.53-1.18-1.18c0-0.65,0.53-1.18,1.18-1.18
						C533.29,160.12,533.82,160.65,533.82,161.3z"/>
				</g>
				<g>
					<circle class="st2" cx="692" cy="310.23" r="1.18"/>
				</g>
				<g>
					<path class="st2" d="M674.3,374.28c0,0.65-0.53,1.18-1.18,1.18c-0.65,0-1.18-0.53-1.18-1.18c0-0.65,0.53-1.18,1.18-1.18
						C673.77,373.1,674.3,373.63,674.3,374.28z"/>
				</g>
				<g>
					<circle class="st2" cx="675.02" cy="422.4" r="1.18"/>
				</g>
				<g>
					<path class="st2" d="M591.46,462.1c0,0.65-0.53,1.18-1.18,1.18c-0.65,0-1.18-0.53-1.18-1.18s0.53-1.18,1.18-1.18
						C590.93,460.93,591.46,461.45,591.46,462.1z"/>
				</g>
				<g>
					<path class="st2" d="M555.42,466.87c0,0.65-0.53,1.18-1.18,1.18c-0.65,0-1.18-0.53-1.18-1.18c0-0.65,0.53-1.18,1.18-1.18
						C554.89,465.7,555.42,466.22,555.42,466.87z"/>
				</g>
				<g>
					<circle class="st2" cx="537.14" cy="435.66" r="1.18"/>
				</g>
				<g>
					<circle class="st2" cx="577.1" cy="429.97" r="1.18"/>
				</g>
				<g>
					<path class="st2" d="M570.74,408.02c0,0.65-0.53,1.18-1.18,1.18c-0.65,0-1.18-0.53-1.18-1.18c0-0.65,0.53-1.18,1.18-1.18
						C570.21,406.85,570.74,407.37,570.74,408.02z"/>
				</g>
				<g>
					<circle class="st2" cx="552.27" cy="411.89" r="1.18"/>
				</g>
				<g>
					<circle class="st2" cx="392.11" cy="371.48" r="1.18"/>
				</g>
				<g>
					<path class="st2" d="M419.76,397.96c0,0.65-0.53,1.18-1.18,1.18c-0.65,0-1.18-0.53-1.18-1.18c0-0.65,0.53-1.18,1.18-1.18
						C419.24,396.78,419.76,397.31,419.76,397.96z"/>
				</g>
				<g>
					<path class="st2" d="M499.85,371.48c0,0.65-0.53,1.18-1.18,1.18c-0.65,0-1.18-0.53-1.18-1.18c0-0.65,0.53-1.18,1.18-1.18
						C499.32,370.31,499.85,370.84,499.85,371.48z"/>
				</g>
				<g>
					<circle class="st2" cx="467.58" cy="312.26" r="1.18"/>
				</g>
				<g>
					<path class="st2" d="M413.05,310.21c0,0.65-0.53,1.18-1.18,1.18c-0.65,0-1.18-0.53-1.18-1.18c0-0.65,0.53-1.18,1.18-1.18
						C412.53,309.03,413.05,309.56,413.05,310.21z"/>
				</g>
			</g>
			<g>
				<g>
					<path class="st2" d="M319.71,176.82c0,0.65-0.53,1.18-1.18,1.18c-0.65,0-1.18-0.53-1.18-1.18c0-0.65,0.53-1.18,1.18-1.18
						C319.18,175.65,319.71,176.17,319.71,176.82z"/>
				</g>
				<g>
					<path class="st2" d="M344.54,154.78c0,0.65-0.53,1.18-1.18,1.18c-0.65,0-1.18-0.53-1.18-1.18c0-0.65,0.53-1.18,1.18-1.18
						C344.01,153.61,344.54,154.13,344.54,154.78z"/>
				</g>
				<g>
					<circle class="st2" cx="326.33" cy="168.02" r="1.18"/>
				</g>
				<g>
					<path class="st2" d="M384.08,147.25c0,0.65-0.53,1.18-1.18,1.18c-0.65,0-1.18-0.53-1.18-1.18c0-0.65,0.53-1.18,1.18-1.18
						C383.55,146.08,384.08,146.6,384.08,147.25z"/>
				</g>
				<g>
					<path class="st2" d="M409.55,169.06c0,0.65-0.53,1.18-1.18,1.18c-0.65,0-1.18-0.53-1.18-1.18c0-0.65,0.53-1.18,1.18-1.18
						C409.03,167.88,409.55,168.41,409.55,169.06z"/>
				</g>
				<g>
					<path class="st2" d="M316.1,117.97c0,0.65-0.53,1.18-1.18,1.18c-0.65,0-1.18-0.53-1.18-1.18c0-0.65,0.53-1.18,1.18-1.18
						C315.58,116.8,316.1,117.32,316.1,117.97z"/>
				</g>
				<g>
					<circle class="st2" cx="260.23" cy="163.36" r="1.18"/>
				</g>
				<g>
					<path class="st2" d="M482.78,431.6c0,0.65-0.53,1.18-1.18,1.18s-1.18-0.53-1.18-1.18c0-0.65,0.53-1.18,1.18-1.18
						S482.78,430.95,482.78,431.6z"/>
				</g>
			</g>
		</g>
		<g>
			
				<linearGradient id="SVGID_00000168093575228336254880000006986381639588894116_" gradientUnits="userSpaceOnUse" x1="138.5694" y1="114.1307" x2="-8.4945" y2="17.1095">
				<stop  offset="0" style="stop-color:#FFFFFF"/>
				<stop  offset="0.8902" style="stop-color:#1D262D;stop-opacity:0"/>
			</linearGradient>
			
				<circle style="opacity:0.5;fill:url(#SVGID_00000168093575228336254880000006986381639588894116_);" cx="105.18" cy="92.1" r="60.26"/>
			
				<linearGradient id="SVGID_00000151504180057510053350000000930647369506258863_" gradientUnits="userSpaceOnUse" x1="611.5635" y1="148.3427" x2="759.6486" y2="-41.6148">
				<stop  offset="0" style="stop-color:#FFFFFF"/>
				<stop  offset="0.8902" style="stop-color:#1D262D;stop-opacity:0"/>
			</linearGradient>
			<path style="opacity:0.5;fill:url(#SVGID_00000151504180057510053350000000930647369506258863_);" d="M750.73,0v197.48
				c-13.38,3.54-27.44,5.42-41.94,5.42c-90.44,0-163.76-73.32-163.76-163.76c0-13.49,1.63-26.6,4.71-39.14H750.73z"/>
			
				<linearGradient id="SVGID_00000009585564253758419750000008812197433471832235_" gradientUnits="userSpaceOnUse" x1="213.1168" y1="359.6551" x2="74.2234" y2="445.442">
				<stop  offset="0" style="stop-color:#FFFFFF"/>
				<stop  offset="0.8902" style="stop-color:#1D262D;stop-opacity:0"/>
			</linearGradient>
			
				<circle style="opacity:0.5;fill:url(#SVGID_00000009585564253758419750000008812197433471832235_);" cx="159.19" cy="392.97" r="70.11"/>
			
				<linearGradient id="SVGID_00000064341971955000426300000001356793211015677076_" gradientUnits="userSpaceOnUse" x1="576.2737" y1="403.595" x2="629.7207" y2="465.5526">
				<stop  offset="0" style="stop-color:#FFFFFF"/>
				<stop  offset="0.8902" style="stop-color:#1D262D;stop-opacity:0"/>
			</linearGradient>
			
				<circle style="opacity:0.5;fill:url(#SVGID_00000064341971955000426300000001356793211015677076_);" cx="588.73" cy="418.03" r="35.29"/>
		</g>
	</g>
</g>
<g id="OBJECTS">
</g>
<g id="DESIGNED_BY_FREEPIK">
</g>
</svg>
