<svg xmlns="http://www.w3.org/2000/svg" xmlns:xlink="http://www.w3.org/1999/xlink" width="82" height="82" viewBox="0 0 82 82">
  <defs>
    <clipPath id="clip-path">
      <rect id="Rectángulo_1559" data-name="Rectángulo 1559" width="82" height="82" transform="translate(-0.024 0)" fill="none"/>
    </clipPath>
  </defs>
  <g id="Grupo_3198" data-name="Grupo 3198" transform="translate(0.024 0)">
    <g id="Grupo_3196" data-name="Grupo 3196" clip-path="url(#clip-path)">
      <path id="Trazado_1610" data-name="Trazado 1610" d="M72.19,34.128a21.725,21.725,0,0,0-2.308,10.25l.072,1.355-1.326-.29a24,24,0,0,0-2.724-.38,25.511,25.511,0,0,0-8.094.5c-5.429,1.333-12.993,5.356-13.069,5.4l-.735.393-.819-.963-1.517-1.787.506-.661c.052-.068,5.241-6.886,7.433-12.028a27.127,27.127,0,0,0,1.867-10.656L51.4,23.9l1.33.294a18.333,18.333,0,0,0,2.059.285,20.424,20.424,0,0,0,8.428-.912c5.032-1.785,7.2-3.372,9.061-5.356.365-.389.848-.948,1.391-1.6a40.644,40.644,0,1,0,5.208,9.476c-2.231,1.512-4.137,3.4-6.689,8.039" transform="translate(0 -0.273)" fill="#308cce"/>
      <path id="Trazado_1611" data-name="Trazado 1611" d="M46.477,145.409c-.156,0-.314-.007-.473-.021a1.16,1.16,0,0,1-1.055-1.233,1.017,1.017,0,0,1,1.026-1.015c.035,0,.071,0,.107,0,.106.009.21.014.314.014,2.4,0,4.022-2.563,4.519-4.945a10.087,10.087,0,0,0,.194-1.8,25.039,25.039,0,0,1-.271-5.769,16.332,16.332,0,0,1,.3-3.7,1.06,1.06,0,0,1,1.077-.835,1.2,1.2,0,0,1,.881.371,1,1,0,0,1,.253.778c-.1,1.084-.21,2.205-.274,3.314.017.782.078,1.621.137,2.431.079,1.073.159,2.181.14,3.275a10.2,10.2,0,0,0,3.408,6.119,2.1,2.1,0,0,0,1.129.565.782.782,0,0,0,.453-.155,6.464,6.464,0,0,0,1.5-1.794,13.048,13.048,0,0,0,1.859-4.65,1,1,0,0,1,1.016-.844,1.231,1.231,0,0,1,1.146.774l1.156,3.132a4.88,4.88,0,0,0,1.33-2.939,1.21,1.21,0,0,1,1.186-1.09,1.011,1.011,0,0,1,.919.583l2.305,4.534a4.662,4.662,0,0,0,.618-2.11,1.117,1.117,0,0,1,.866-1.071,2.568,2.568,0,0,1,.441-.039,2.118,2.118,0,0,1,2.012,1.4.981.981,0,0,1-.072.945,1.157,1.157,0,0,1-.962.48,1.26,1.26,0,0,1-.307-.038,6.889,6.889,0,0,1-2.043,3.277,1.217,1.217,0,0,1-.8.3,1.046,1.046,0,0,1-.955-.571l-1.834-3.607a7.216,7.216,0,0,1-2.65,2.742,1.1,1.1,0,0,1-.56.156,1.176,1.176,0,0,1-1.08-.789l-.552-1.495a14.864,14.864,0,0,1-1.844,3.1,5.037,5.037,0,0,1-2.285,1.9,2.707,2.707,0,0,1-.837.132,3.732,3.732,0,0,1-2.171-.794,10.878,10.878,0,0,1-3.24-3.811c-1.067,2.52-3.2,4.784-6.029,4.784" transform="translate(-31.46 -88.542)" fill="#fff"/>
      <path id="Trazado_1612" data-name="Trazado 1612" d="M195.467,110.911a2.325,2.325,0,1,0,2.112,2.521,2.325,2.325,0,0,0-2.112-2.521" transform="translate(-135.044 -77.897)" fill="#308cce"/>
      <path id="Trazado_1613" data-name="Trazado 1613" d="M169.485,56.968c-1.863,1.983-4.029,3.571-9.061,5.356a20.428,20.428,0,0,1-8.428.911,18.168,18.168,0,0,1-2.059-.285l-1.33-.293.075,1.36a27.135,27.135,0,0,1-1.867,10.656c-2.191,5.142-7.381,11.96-7.433,12.028l-.506.661,1.517,1.787.819.963.735-.392c.076-.041,7.64-4.063,13.069-5.4a25.5,25.5,0,0,1,8.094-.505,24.161,24.161,0,0,1,2.724.38l1.327.29-.073-1.355a21.728,21.728,0,0,1,2.308-10.25c2.552-4.638,4.457-6.527,6.689-8.039a40.722,40.722,0,0,0-5.208-9.476c-.543.654-1.026,1.214-1.391,1.6M159.74,74.56a2.325,2.325,0,1,1-2.112-2.521,2.325,2.325,0,0,1,2.112,2.521" transform="translate(-97.205 -39.026)" fill="#1e2345"/>
    </g>
  </g>
</svg>
