<svg xmlns="http://www.w3.org/2000/svg" xmlns:xlink="http://www.w3.org/1999/xlink" viewBox="0 0 766.75 518.97"><defs><style>.cls-1{isolation:isolate;}.cls-2{fill:url(#linear-gradient);}.cls-3{fill:url(#linear-gradient-2);}.cls-4{fill:url(#linear-gradient-3);}.cls-5{fill:url(#linear-gradient-4);}.cls-6{fill:url(#linear-gradient-5);}.cls-7{fill:url(#linear-gradient-6);}.cls-8{fill:url(#linear-gradient-7);}.cls-9{fill:#161b59;}.cls-10{fill:#91b3fa;}.cls-11,.cls-13{fill:#f4f7fa;}.cls-11,.cls-12{mix-blend-mode:soft-light;}.cls-14{fill:url(#linear-gradient-8);}.cls-15{fill:url(#linear-gradient-9);}.cls-16{fill:url(#linear-gradient-10);}.cls-17{fill:url(#linear-gradient-11);}.cls-18{fill:url(#linear-gradient-12);}.cls-19{fill:url(#linear-gradient-13);}.cls-20{fill:url(#linear-gradient-14);}.cls-21{fill:url(#linear-gradient-15);}.cls-22{fill:url(#linear-gradient-16);}.cls-23{fill:#fff;}.cls-24{fill:url(#linear-gradient-17);}.cls-25{fill:url(#linear-gradient-18);}.cls-26{fill:url(#linear-gradient-19);}.cls-27{fill:url(#linear-gradient-20);}.cls-28{fill:url(#linear-gradient-21);}.cls-29{fill:url(#linear-gradient-22);}.cls-30{fill:url(#linear-gradient-23);}.cls-31{fill:url(#linear-gradient-24);}.cls-32{fill:url(#linear-gradient-25);}.cls-33{fill:url(#linear-gradient-26);}.cls-34{fill:url(#linear-gradient-27);}.cls-35{fill:url(#linear-gradient-28);}.cls-36{fill:url(#linear-gradient-29);}.cls-37{fill:url(#linear-gradient-30);}.cls-38{fill:url(#linear-gradient-31);}.cls-39{fill:url(#linear-gradient-32);}.cls-40{fill:url(#linear-gradient-33);}.cls-41{fill:url(#linear-gradient-34);}.cls-42{fill:url(#linear-gradient-35);}.cls-43{fill:url(#linear-gradient-36);}.cls-44{fill:url(#linear-gradient-37);}.cls-45{fill:url(#linear-gradient-38);}.cls-46{fill:url(#linear-gradient-39);}.cls-47{fill:url(#linear-gradient-40);}.cls-48{fill:url(#linear-gradient-41);}.cls-49{fill:url(#linear-gradient-42);}.cls-50{fill:url(#linear-gradient-43);}.cls-51{fill:url(#linear-gradient-44);}.cls-52{fill:url(#linear-gradient-45);}.cls-53{fill:url(#linear-gradient-46);}.cls-54{fill:url(#linear-gradient-47);}.cls-55{fill:url(#linear-gradient-48);}.cls-56{fill:url(#linear-gradient-49);}.cls-57{fill:url(#linear-gradient-50);}.cls-58{fill:url(#linear-gradient-51);}.cls-59{fill:url(#linear-gradient-52);}.cls-60{fill:url(#linear-gradient-53);}.cls-61{fill:url(#linear-gradient-54);}.cls-62{fill:url(#linear-gradient-55);}.cls-63{fill:url(#linear-gradient-56);}.cls-64{fill:url(#linear-gradient-57);}.cls-65{fill:url(#linear-gradient-58);}.cls-66{fill:url(#linear-gradient-59);}.cls-67{fill:url(#linear-gradient-60);}.cls-68{fill:url(#linear-gradient-61);}</style><linearGradient id="linear-gradient" x1="-941.52" y1="676.34" x2="-422.95" y2="676.34" gradientTransform="matrix(-1.5, 0.1, 0.07, 0.97, -267.51, 54.43)" gradientUnits="userSpaceOnUse"><stop offset="0" stop-color="#dae3fe"/><stop offset="1" stop-color="#e9effd"/></linearGradient><linearGradient id="linear-gradient-2" x1="664.85" y1="506.7" x2="682.78" y2="393.97" gradientUnits="userSpaceOnUse"><stop offset="0" stop-color="#4042e2"/><stop offset="1" stop-color="#4f52ff"/></linearGradient><linearGradient id="linear-gradient-3" x1="671.93" y1="507.64" x2="690.16" y2="392.98" xlink:href="#linear-gradient-2"/><linearGradient id="linear-gradient-4" x1="658.2" y1="505.64" x2="676.12" y2="392.91" xlink:href="#linear-gradient-2"/><linearGradient id="linear-gradient-5" x1="554.98" y1="727.43" x2="481.99" y2="892.63" xlink:href="#linear-gradient-2"/><linearGradient id="linear-gradient-6" x1="615.24" y1="754.05" x2="542.24" y2="919.26" xlink:href="#linear-gradient-2"/><linearGradient id="linear-gradient-7" x1="561.89" y1="751.55" x2="569" y2="676.42" gradientUnits="userSpaceOnUse"><stop offset="0" stop-color="#fe7062"/><stop offset="1" stop-color="#ff928e"/></linearGradient><linearGradient id="linear-gradient-8" x1="720.28" y1="389.93" x2="808" y2="389.93" gradientTransform="matrix(1, 0, 0, 1, 0, 0)" xlink:href="#linear-gradient"/><linearGradient id="linear-gradient-9" x1="720.28" y1="402.76" x2="808" y2="402.76" gradientTransform="matrix(1, 0, 0, 1, 0, 0)" xlink:href="#linear-gradient"/><linearGradient id="linear-gradient-10" x1="720.28" y1="415.78" x2="808" y2="415.78" gradientTransform="matrix(1, 0, 0, 1, 0, 0)" xlink:href="#linear-gradient"/><linearGradient id="linear-gradient-11" x1="617.42" y1="478.55" x2="815.98" y2="478.55" gradientTransform="matrix(1, 0, 0, 1, 0, 0)" xlink:href="#linear-gradient"/><linearGradient id="linear-gradient-12" x1="617.42" y1="491.38" x2="815.98" y2="491.38" gradientTransform="matrix(1, 0, 0, 1, 0, 0)" xlink:href="#linear-gradient"/><linearGradient id="linear-gradient-13" x1="623.12" y1="521.48" x2="650.5" y2="521.48" gradientTransform="matrix(1, 0, 0, 1, 0, 0)" xlink:href="#linear-gradient"/><linearGradient id="linear-gradient-14" x1="656.22" y1="520.57" x2="705.61" y2="520.57" gradientTransform="matrix(1, 0, 0, 1, 0, 0)" xlink:href="#linear-gradient"/><linearGradient id="linear-gradient-15" x1="719.57" y1="521.48" x2="746.94" y2="521.48" gradientTransform="matrix(1, 0, 0, 1, 0, 0)" xlink:href="#linear-gradient"/><linearGradient id="linear-gradient-16" x1="752.67" y1="520.57" x2="802.06" y2="520.57" gradientTransform="matrix(1, 0, 0, 1, 0, 0)" xlink:href="#linear-gradient"/><linearGradient id="linear-gradient-17" x1="851.73" y1="421.72" x2="871.98" y2="421.72" gradientTransform="matrix(1, 0, 0, 1, 0, 0)" xlink:href="#linear-gradient"/><linearGradient id="linear-gradient-18" x1="885.3" y1="422.59" x2="1043.58" y2="422.59" gradientTransform="matrix(1, 0, 0, 1, 0, 0)" xlink:href="#linear-gradient"/><linearGradient id="linear-gradient-19" x1="902.5" y1="348.73" x2="819.08" y2="491.11" xlink:href="#linear-gradient-7"/><linearGradient id="linear-gradient-20" x1="851.73" y1="456.73" x2="871.98" y2="456.73" gradientTransform="matrix(1, 0, 0, 1, 0, 0)" xlink:href="#linear-gradient"/><linearGradient id="linear-gradient-21" x1="885.3" y1="457.6" x2="1043.58" y2="457.6" gradientTransform="matrix(1, 0, 0, 1, 0, 0)" xlink:href="#linear-gradient"/><linearGradient id="linear-gradient-22" x1="917.77" y1="357.68" x2="834.35" y2="500.05" xlink:href="#linear-gradient-7"/><linearGradient id="linear-gradient-23" x1="851.73" y1="491.75" x2="871.98" y2="491.75" gradientTransform="matrix(1, 0, 0, 1, 0, 0)" xlink:href="#linear-gradient"/><linearGradient id="linear-gradient-24" x1="885.3" y1="492.62" x2="1043.58" y2="492.62" gradientTransform="matrix(1, 0, 0, 1, 0, 0)" xlink:href="#linear-gradient"/><linearGradient id="linear-gradient-25" x1="930.61" y1="392.78" x2="820.85" y2="545.81" xlink:href="#linear-gradient-7"/><linearGradient id="linear-gradient-26" x1="851.73" y1="526.76" x2="871.98" y2="526.76" gradientTransform="matrix(1, 0, 0, 1, 0, 0)" xlink:href="#linear-gradient"/><linearGradient id="linear-gradient-27" x1="885.3" y1="527.63" x2="1043.58" y2="527.63" gradientTransform="matrix(1, 0, 0, 1, 0, 0)" xlink:href="#linear-gradient"/><linearGradient id="linear-gradient-28" x1="948.31" y1="375.57" x2="864.89" y2="517.95" xlink:href="#linear-gradient-7"/><linearGradient id="linear-gradient-29" x1="1016.42" y1="802.2" x2="1024.29" y2="850.34" gradientUnits="userSpaceOnUse"><stop offset="0" stop-color="#ff928e"/><stop offset="1" stop-color="#feb3b1"/></linearGradient><linearGradient id="linear-gradient-30" x1="1010.84" y1="808.65" x2="1002.65" y2="934.14" gradientUnits="userSpaceOnUse"><stop offset="0" stop-color="#09005d"/><stop offset="1" stop-color="#1a0f91"/></linearGradient><linearGradient id="linear-gradient-31" x1="941.71" y1="804.29" x2="1013.77" y2="737.26" xlink:href="#linear-gradient-29"/><linearGradient id="linear-gradient-32" x1="983.91" y1="714.95" x2="1115.45" y2="714.95" xlink:href="#linear-gradient-30"/><linearGradient id="linear-gradient-33" x1="931.86" y1="803.5" x2="923.68" y2="928.99" xlink:href="#linear-gradient-30"/><linearGradient id="linear-gradient-34" x1="1113.54" y1="543.82" x2="1068.58" y2="587.81" xlink:href="#linear-gradient-30"/><linearGradient id="linear-gradient-35" x1="1061.86" y1="646.8" x2="1039.21" y2="748.75" xlink:href="#linear-gradient-2"/><linearGradient id="linear-gradient-36" x1="1030.99" y1="555.33" x2="1042.63" y2="593.72" xlink:href="#linear-gradient-29"/><linearGradient id="linear-gradient-37" x1="1009.28" y1="536.71" x2="1044.52" y2="555.59" xlink:href="#linear-gradient-29"/><linearGradient id="linear-gradient-38" x1="556.41" y1="666.68" x2="511.38" y2="710.72" gradientTransform="translate(346.55 -4.4) rotate(-15.18)" xlink:href="#linear-gradient-30"/><linearGradient id="linear-gradient-39" x1="1010.94" y1="533.78" x2="1046.19" y2="552.66" xlink:href="#linear-gradient-29"/><linearGradient id="linear-gradient-40" x1="1130.7" y1="663.34" x2="1032.83" y2="680.33" xlink:href="#linear-gradient-29"/><linearGradient id="linear-gradient-41" x1="-353.76" y1="802.37" x2="-369.48" y2="848.59" gradientTransform="matrix(0.86, -0.5, 0.5, 0.86, 560.18, -314.4)" xlink:href="#linear-gradient-29"/><linearGradient id="linear-gradient-42" x1="641.27" y1="544.65" x2="590.39" y2="611.03" xlink:href="#linear-gradient-2"/><linearGradient id="linear-gradient-43" x1="627.64" y1="837.88" x2="682.82" y2="837.88" xlink:href="#linear-gradient-7"/><linearGradient id="linear-gradient-44" x1="670.15" y1="731.78" x2="655.08" y2="835.94" gradientUnits="userSpaceOnUse"><stop offset="0" stop-color="#020039"/><stop offset="1" stop-color="#090056"/></linearGradient><linearGradient id="linear-gradient-45" x1="630.4" y1="821.25" x2="645.33" y2="821.25" xlink:href="#linear-gradient-29"/><linearGradient id="linear-gradient-46" x1="714.18" y1="826.95" x2="758.73" y2="826.95" xlink:href="#linear-gradient-7"/><linearGradient id="linear-gradient-47" x1="744.83" y1="742.59" x2="729.75" y2="846.75" xlink:href="#linear-gradient-44"/><linearGradient id="linear-gradient-48" x1="606.94" y1="524.59" x2="606.94" y2="622.6" xlink:href="#linear-gradient-44"/><linearGradient id="linear-gradient-49" x1="701.11" y1="822.51" x2="718.93" y2="822.51" xlink:href="#linear-gradient-29"/><linearGradient id="linear-gradient-50" x1="493.04" y1="1010.13" x2="611.02" y2="757.99" xlink:href="#linear-gradient-30"/><linearGradient id="linear-gradient-51" x1="586.85" y1="569.4" x2="470.56" y2="764.18" xlink:href="#linear-gradient-2"/><linearGradient id="linear-gradient-52" x1="571.41" y1="533.2" x2="554.28" y2="587.91" xlink:href="#linear-gradient-29"/><linearGradient id="linear-gradient-53" x1="626.04" y1="610.71" x2="672.49" y2="610.71" xlink:href="#linear-gradient-2"/><linearGradient id="linear-gradient-54" x1="622.65" y1="626.91" x2="531.31" y2="690.18" xlink:href="#linear-gradient-7"/><linearGradient id="linear-gradient-55" x1="-132.76" y1="2303.51" x2="-178.22" y2="2363.65" gradientTransform="translate(-84.24 -1706.14) rotate(-20.41)" xlink:href="#linear-gradient-29"/><linearGradient id="linear-gradient-56" x1="-167.48" y1="2318.02" x2="-113.18" y2="2318.02" gradientTransform="translate(-84.24 -1706.14) rotate(-20.41)" xlink:href="#linear-gradient-30"/><linearGradient id="linear-gradient-57" x1="-199.34" y1="2351.13" x2="-162.88" y2="2313.73" gradientTransform="translate(-84.24 -1706.14) rotate(-20.41)" xlink:href="#linear-gradient-29"/><linearGradient id="linear-gradient-58" x1="605.77" y1="580.69" x2="489.48" y2="775.47" xlink:href="#linear-gradient-2"/><linearGradient id="linear-gradient-59" x1="562.85" y1="607.69" x2="589.94" y2="607.69" xlink:href="#linear-gradient-30"/><linearGradient id="linear-gradient-60" x1="534.8" y1="629.82" x2="580.12" y2="629.82" xlink:href="#linear-gradient-30"/><linearGradient id="linear-gradient-61" x1="600.92" y1="656.46" x2="659.91" y2="608.88" xlink:href="#linear-gradient-29"/></defs><g class="cls-1"><g id="Capa_1" data-name="Capa 1"><path class="cls-2" d="M976,440.77c48.76,40.51,204.21-18.9,208.07,61.69,4.52,94.38-59.1,146.1-17.57,215.75,38.73,65-72.59,120.67-275.74,133.23s-535.54-48.11-463-143.81,19.74-96.72,13.16-136.35,27.22-129.9,189.51-67.72S852.51,338.19,976,440.77Z" transform="translate(-417.53 -334.11)"/><rect class="cls-3" x="667.18" y="421.15" width="8.29" height="89.67"/><path class="cls-4" d="M638.52,507.15h65.61a3.5,3.5,0,0,1,3.5,3.5v1.89a0,0,0,0,1,0,0H635a0,0,0,0,1,0,0v-1.89A3.5,3.5,0,0,1,638.52,507.15Z"/><rect class="cls-5" x="627.11" y="401.06" width="91.31" height="25.9" rx="8.92"/><path class="cls-6" d="M529.55,740.88c-2.12,3.13-10.53,74-11.84,100.22a3.09,3.09,0,0,0,3.1,3.24h0a3.09,3.09,0,0,0,3.06-2.62l15.39-98.58Z" transform="translate(-417.53 -334.11)"/><path class="cls-7" d="M597.17,740.88c2.12,3.13,10.53,74,11.84,100.22a3.09,3.09,0,0,1-3.1,3.24h0a3.09,3.09,0,0,1-3.06-2.62l-15.39-98.58Z" transform="translate(-417.53 -334.11)"/><path class="cls-8" d="M516.83,735.35v.77c-.05,5.56,4.74,10.13,10.74,10.23l71.11,1.21c5.91.1,10.84-4.17,11.13-9.65l0-.71c.3-5.71-4.55-10.52-10.72-10.63L528,725.29C521.89,725.19,516.88,729.71,516.83,735.35Z" transform="translate(-417.53 -334.11)"/><polygon class="cls-9" points="349.68 314.12 337.36 424.64 480.33 424.64 461.71 314.12 349.68 314.12"/><path class="cls-9" d="M928.66,781.36H719.4c-5.68,0-9.95-4.05-8.85-8.39l2.69-10.62c.8-3.2,4.32-5.54,8.49-5.67l201.73-6.3c4.36-.13,8.22,2.18,9.17,5.5l4.84,16.91C938.72,777.19,934.43,781.36,928.66,781.36Z" transform="translate(-417.53 -334.11)"/><path class="cls-9" d="M554.24,365.73V649.3a43,43,0,0,0,41.9,43c103.58,2.68,370.35,9.15,468.94,7.7a31.66,31.66,0,0,0,31.17-30.75c1.9-65.88,5-224.29-6.44-297.84a32.57,32.57,0,0,0-31.15-27.57c-86.78-2.78-375.31-11.59-473.86-9.38A31.27,31.27,0,0,0,554.24,365.73Z" transform="translate(-417.53 -334.11)"/><path class="cls-10" d="M572,364.35V633.76a24.92,24.92,0,0,0,24.55,24.92l454.32,6.79a24.25,24.25,0,0,0,24.62-24.16l.92-267a17.75,17.75,0,0,0-17.31-17.8L591.72,345.13A19.22,19.22,0,0,0,572,364.35Z" transform="translate(-417.53 -334.11)"/><path class="cls-10" d="M1079.66,676.5h0L572,666.22a.74.74,0,0,1-.73-.76.75.75,0,0,1,.76-.73L1079.67,675a.75.75,0,0,1,0,1.49Z" transform="translate(-417.53 -334.11)"/><path class="cls-10" d="M832.05,759.62a.75.75,0,1,1,0-1.49l8.64-.13h0a.75.75,0,0,1,.75.74.73.73,0,0,1-.74.75l-8.64.13Z" transform="translate(-417.53 -334.11)"/><path class="cls-10" d="M718.3,775.57h-.12a.74.74,0,0,1-.62-.85l1.23-7.73a8.68,8.68,0,0,1,8.46-7.32l91.69-1.34a.75.75,0,1,1,0,1.49l-91.69,1.34a7.18,7.18,0,0,0-7,6.07L719,774.94A.73.73,0,0,1,718.3,775.57Z" transform="translate(-417.53 -334.11)"/><path class="cls-11" d="M623.92,628.29l102.61,1.59a10.63,10.63,0,0,0,10.79-10.36l1.21-47.44a10.62,10.62,0,0,0-10.61-10.9l-102.65-.13a10.62,10.62,0,0,0-10.64,10.36l-1.18,46A10.63,10.63,0,0,0,623.92,628.29Z" transform="translate(-417.53 -334.11)"/><path class="cls-11" d="M945.3,628.28l83.19,1.63a4.69,4.69,0,0,0,4.78-4.57h0a4.7,4.7,0,0,0-4.59-4.81l-83.18-1.86a4.69,4.69,0,0,0-4.79,4.57v.23A4.7,4.7,0,0,0,945.3,628.28Z" transform="translate(-417.53 -334.11)"/><path class="cls-11" d="M945.7,611.83l83.17,2a4.69,4.69,0,0,0,4.81-4.57h0a4.7,4.7,0,0,0-4.56-4.81l-83.18-2.25a4.69,4.69,0,0,0-4.81,4.57V607A4.69,4.69,0,0,0,945.7,611.83Z" transform="translate(-417.53 -334.11)"/><g class="cls-12"><path class="cls-13" d="M648.23,588.12c7.86.5,9.15-4,16.91-4.27,13.15-.41,16,12.46,28.71,12.59,10.33.1,13.16-8.47,23.36-7.25,7.59.91,9,6,16.35,6.92a17.67,17.67,0,0,0,4.36,0l-.57,22.38a11.68,11.68,0,0,1-11.86,11.38l-100.27-1.56a11.94,11.94,0,0,1-11.74-12.23l1-41.06a44.76,44.76,0,0,1,14.87,3.89C637.65,582.78,640.3,587.62,648.23,588.12Z" transform="translate(-417.53 -334.11)"/></g><path class="cls-11" d="M760,626.12l139.33,4.35c4.36.14,8-4.59,8.18-10.55l1.26-49.35c.16-6-3.35-11-7.77-11l-139.45.5c-4.29,0-7.83,4.7-8,10.55l-1.14,44.5C752.3,621.09,755.68,626,760,626.12Z" transform="translate(-417.53 -334.11)"/><path class="cls-11" d="M616.85,387l3.2,68.83A4.37,4.37,0,0,0,624.3,460c12.75.36,52.47,1.33,74.89.16a4.88,4.88,0,0,0,4.63-4.72c.43-12.91,1.37-50.48-1.57-66.19a5.52,5.52,0,0,0-5.24-4.48l-75.35-2.64A4.66,4.66,0,0,0,616.85,387Z" transform="translate(-417.53 -334.11)"/><circle class="cls-13" cx="660.21" cy="411.63" r="14.8" transform="translate(-246.53 682.49) rotate(-82.98)"/><path class="cls-13" d="M637.73,455.07h47.14a3.65,3.65,0,0,0,3.07-5.63c-4-6.26-12.38-15.47-26.89-15.05-14,.4-22.27,8.71-26.44,14.67A3.82,3.82,0,0,0,637.73,455.07Z" transform="translate(-417.53 -334.11)"/><path class="cls-14" d="M806.72,393a1.27,1.27,0,0,0,1.28-1.32l0-2a1.41,1.41,0,0,0-1.36-1.34l-85.36-1.52a.86.86,0,0,0-.88,1.22l1.31,3.7a2,2,0,0,0,1.75,1.24Z" transform="translate(-417.53 -334.11)"/><path class="cls-15" d="M721.23,399.68a.86.86,0,0,0-.88,1.22l1.31,3.7a2,2,0,0,0,1.75,1.24h83.31a1.27,1.27,0,0,0,1.28-1.32l0-2a1.41,1.41,0,0,0-1.36-1.34Z" transform="translate(-417.53 -334.11)"/><path class="cls-16" d="M721.23,412.7a.86.86,0,0,0-.88,1.22l1.31,3.7a2,2,0,0,0,1.75,1.24h83.31a1.27,1.27,0,0,0,1.28-1.32l0-2a1.41,1.41,0,0,0-1.36-1.34Z" transform="translate(-417.53 -334.11)"/><path class="cls-17" d="M814.75,481.64a1.22,1.22,0,0,0,1.23-1.32l-.13-2a1.45,1.45,0,0,0-1.41-1.33l-196.29-1.55c-.73,0-.95.46-.5,1l3.29,4.13a3.12,3.12,0,0,0,2.14,1Z" transform="translate(-417.53 -334.11)"/><path class="cls-18" d="M618.15,488.29c-.73,0-.95.46-.5,1l3.29,4.12a3.08,3.08,0,0,0,2.14,1H814.75a1.22,1.22,0,0,0,1.23-1.31l-.13-2a1.45,1.45,0,0,0-1.41-1.33Z" transform="translate(-417.53 -334.11)"/><path class="cls-19" d="M626,509.73c4.65-.36,13.37-.52,18.17-.59a4.35,4.35,0,0,1,4.29,3.33,71.11,71.11,0,0,1,2,17.56,3.86,3.86,0,0,1-3.89,3.78l-17.71-.19a4.26,4.26,0,0,1-4.19-3.86l-1.55-16.65A3.09,3.09,0,0,1,626,509.73Z" transform="translate(-417.53 -334.11)"/><path class="cls-20" d="M657.35,516.51a1.05,1.05,0,0,0-1.12,1.25l.84,5.56a1.59,1.59,0,0,0,1.51,1.3h45.73a1.3,1.3,0,0,0,1.3-1.32l0-3.46a1.41,1.41,0,0,0-1.33-1.37Z" transform="translate(-417.53 -334.11)"/><path class="cls-21" d="M722.43,509.73c4.65-.36,13.37-.52,18.16-.59a4.35,4.35,0,0,1,4.3,3.33,71.11,71.11,0,0,1,2,17.56,3.86,3.86,0,0,1-3.9,3.78l-17.7-.19a4.26,4.26,0,0,1-4.19-3.86l-1.55-16.65A3.09,3.09,0,0,1,722.43,509.73Z" transform="translate(-417.53 -334.11)"/><path class="cls-22" d="M753.8,516.51a1,1,0,0,0-1.12,1.25l.84,5.56a1.57,1.57,0,0,0,1.51,1.3h45.73a1.3,1.3,0,0,0,1.3-1.32l0-3.46a1.41,1.41,0,0,0-1.34-1.37Z" transform="translate(-417.53 -334.11)"/><path class="cls-23" d="M871.09,432.73H871l-16.33-.16a4.39,4.39,0,0,1-4.49-3.74l-1.43-13.7a2.94,2.94,0,0,1,.7-2.24,3.58,3.58,0,0,1,2.5-1.24h0c1.38-.09,3.32-.26,5.37-.43,4.32-.37,9.7-.83,12.72-.86a4.55,4.55,0,0,1,4.58,3.2c.85,3.14.77,9.1.61,15.44A4,4,0,0,1,871.09,432.73Zm-19-19.82a2.35,2.35,0,0,0-1.63.78A1.72,1.72,0,0,0,850,415l1.43,13.7a3.14,3.14,0,0,0,3.25,2.61l16.33.16h0A2.78,2.78,0,0,0,874,429c.16-6.25.23-12.1-.58-15.09a3.38,3.38,0,0,0-3.34-2.27c-3,0-8.34.49-12.64.86-2.05.17-4,.34-5.38.44Z" transform="translate(-417.53 -334.11)"/><path class="cls-24" d="M853.83,414.32c3.44-.23,10.89-1,14.43-1a3.18,3.18,0,0,1,3.17,2.19c.68,2.53.59,7.56.47,12.2a2.72,2.72,0,0,1-2.87,2.49L856,430a3,3,0,0,1-3.08-2.53l-1.15-11A2.12,2.12,0,0,1,853.83,414.32Z" transform="translate(-417.53 -334.11)"/><path class="cls-25" d="M885.44,423.62a4.06,4.06,0,0,0,3.95,3l151.15-1.29a3.07,3.07,0,0,0,0-6.14l-151.15-.69A4.05,4.05,0,0,0,885.44,423.62Z" transform="translate(-417.53 -334.11)"/><path class="cls-26" d="M854.53,416.47h0a2.51,2.51,0,0,1,3.46.94l3.22,5.78a.81.81,0,0,0,1.44-.07l8-17.79a.89.89,0,0,1,1.71.39,35.16,35.16,0,0,1-10.23,24.44s-4.79-1.86-8.65-10.33A2.64,2.64,0,0,1,854.53,416.47Z" transform="translate(-417.53 -334.11)"/><path class="cls-23" d="M871.09,467.74H871l-16.33-.16a4.39,4.39,0,0,1-4.49-3.73l-1.43-13.71a2.94,2.94,0,0,1,.7-2.24,3.53,3.53,0,0,1,2.5-1.23h0c1.38-.1,3.32-.26,5.37-.44,4.32-.37,9.7-.82,12.72-.86h.07a4.57,4.57,0,0,1,4.51,3.2c.85,3.15.77,9.1.61,15.45A4,4,0,0,1,871.09,467.74Zm-19-19.82a2.32,2.32,0,0,0-1.63.79A1.7,1.7,0,0,0,850,450l1.43,13.71a3.15,3.15,0,0,0,3.25,2.61l16.33.15h0A2.78,2.78,0,0,0,874,464c.16-6.24.23-12.1-.58-15.08a3.35,3.35,0,0,0-3.34-2.28c-3,0-8.34.5-12.64.86-2.05.18-4,.34-5.38.44Z" transform="translate(-417.53 -334.11)"/><path class="cls-27" d="M853.83,449.33c3.44-.23,10.89-1,14.43-1a3.16,3.16,0,0,1,3.17,2.18c.68,2.53.59,7.56.47,12.2a2.7,2.7,0,0,1-2.87,2.49L856,465.05a3,3,0,0,1-3.08-2.54l-1.15-10.95A2.12,2.12,0,0,1,853.83,449.33Z" transform="translate(-417.53 -334.11)"/><path class="cls-28" d="M885.44,458.64a4.06,4.06,0,0,0,3.95,3l151.15-1.29a3.07,3.07,0,0,0,0-6.13l-151.15-.69A4,4,0,0,0,885.44,458.64Z" transform="translate(-417.53 -334.11)"/><path class="cls-29" d="M854.53,451.48h0a2.52,2.52,0,0,1,3.46.94l3.22,5.78a.81.81,0,0,0,1.44-.06l8-17.8a.9.9,0,0,1,1.71.39,35.18,35.18,0,0,1-10.23,24.45s-4.79-1.87-8.65-10.34A2.64,2.64,0,0,1,854.53,451.48Z" transform="translate(-417.53 -334.11)"/><path class="cls-23" d="M871.09,502.75H871l-16.33-.16a4.39,4.39,0,0,1-4.49-3.73l-1.43-13.71a3,3,0,0,1,.7-2.24,3.61,3.61,0,0,1,2.5-1.23h0c1.38-.09,3.32-.26,5.37-.43,4.32-.37,9.7-.83,12.72-.87h.07a4.57,4.57,0,0,1,4.51,3.2c.85,3.15.77,9.1.61,15.45A4,4,0,0,1,871.09,502.75Zm-19-19.82a2.36,2.36,0,0,0-1.63.79A1.71,1.71,0,0,0,850,485l1.43,13.71a3.15,3.15,0,0,0,3.25,2.61l16.33.16h0A2.79,2.79,0,0,0,874,499c.16-6.25.23-12.11-.58-15.09a3.33,3.33,0,0,0-3.34-2.27c-3,0-8.34.49-12.64.86-2.05.17-4,.34-5.38.43Z" transform="translate(-417.53 -334.11)"/><path class="cls-30" d="M853.83,484.35c3.44-.24,10.89-1,14.43-1a3.17,3.17,0,0,1,3.17,2.19c.68,2.52.59,7.55.47,12.2a2.7,2.7,0,0,1-2.87,2.48L856,500.06a3,3,0,0,1-3.08-2.54l-1.15-10.95A2.11,2.11,0,0,1,853.83,484.35Z" transform="translate(-417.53 -334.11)"/><path class="cls-31" d="M885.44,493.65a4,4,0,0,0,3.95,3l151.15-1.29a3.07,3.07,0,0,0,0-6.13l-151.15-.69A4.05,4.05,0,0,0,885.44,493.65Z" transform="translate(-417.53 -334.11)"/><path class="cls-32" d="M854.53,486.5h0a2.5,2.5,0,0,1,3.46.94l3.22,5.77a.81.81,0,0,0,1.44-.06l8-17.79a.89.89,0,0,1,1.71.38,35.16,35.16,0,0,1-10.23,24.45s-4.79-1.86-8.65-10.34A2.63,2.63,0,0,1,854.53,486.5Z" transform="translate(-417.53 -334.11)"/><path class="cls-23" d="M871.09,537.76H871l-16.33-.15a4.39,4.39,0,0,1-4.49-3.74l-1.43-13.7a2.94,2.94,0,0,1,.7-2.24,3.58,3.58,0,0,1,2.5-1.24h0c1.38-.09,3.32-.26,5.37-.43,4.32-.37,9.7-.83,12.72-.87h.07a4.57,4.57,0,0,1,4.51,3.2c.85,3.15.77,9.11.61,15.45A4,4,0,0,1,871.09,537.76Zm-19-19.82a2.4,2.4,0,0,0-1.63.79A1.72,1.72,0,0,0,850,520l1.43,13.7a3.14,3.14,0,0,0,3.25,2.61l16.33.16h0A2.79,2.79,0,0,0,874,534c.16-6.25.23-12.1-.58-15.09a3.33,3.33,0,0,0-3.34-2.27c-3,0-8.34.49-12.64.86-2.05.17-4,.34-5.38.43Z" transform="translate(-417.53 -334.11)"/><path class="cls-33" d="M853.83,519.36c3.44-.24,10.89-1,14.43-1a3.17,3.17,0,0,1,3.17,2.19c.68,2.52.59,7.56.47,12.2A2.72,2.72,0,0,1,869,535.2L856,535.07a3,3,0,0,1-3.08-2.53l-1.15-11A2.12,2.12,0,0,1,853.83,519.36Z" transform="translate(-417.53 -334.11)"/><path class="cls-34" d="M885.44,528.66h0a4,4,0,0,0,3.95,3l151.15-1.28a3.07,3.07,0,0,0,0-6.14l-151.15-.69A4.05,4.05,0,0,0,885.44,528.66Z" transform="translate(-417.53 -334.11)"/><path class="cls-35" d="M854.53,521.51h0a2.51,2.51,0,0,1,3.46.94l3.22,5.78a.81.81,0,0,0,1.44-.07l8-17.79a.89.89,0,0,1,1.71.39,35.16,35.16,0,0,1-10.23,24.44s-4.79-1.86-8.65-10.33A2.64,2.64,0,0,1,854.53,521.51Z" transform="translate(-417.53 -334.11)"/><path class="cls-11" d="M945.26,588.47l83.19,1.63a4.69,4.69,0,0,0,4.78-4.57h0a4.69,4.69,0,0,0-4.58-4.81l-83.18-1.86a4.7,4.7,0,0,0-4.8,4.57v.23A4.69,4.69,0,0,0,945.26,588.47Z" transform="translate(-417.53 -334.11)"/><path class="cls-11" d="M945.66,572l83.18,2a4.69,4.69,0,0,0,4.8-4.57h0a4.68,4.68,0,0,0-4.56-4.81l-83.17-2.26a4.69,4.69,0,0,0-4.82,4.57v.23A4.68,4.68,0,0,0,945.66,572Z" transform="translate(-417.53 -334.11)"/><path class="cls-36" d="M1004.42,703s-11.63,1.8-24.7,10.54a6.53,6.53,0,0,0-2.88,6.23c1.57,12.4,8,52.54,29.23,91.74a9.88,9.88,0,0,1,.95,6.77l-3.69,17.16-6.84,6.42h17.61l11.73-31.74-5-1.59a9.48,9.48,0,0,1-6.63-8.88l-.59-34c.5-15.17-9.3-25.63-9.3-25.63l28.13-1.37Z" transform="translate(-417.53 -334.11)"/><path class="cls-37" d="M989.61,844.92c-1.6,2.1,17.27,4.87,26.8.28,0,0,13.22-23,13.22-34.83,0,0-1.05-2.42-8.81-1.87,0,0-4.44,27.23-9.13,30.28s-13.1.3-13.1.3S992,841.82,989.61,844.92Z" transform="translate(-417.53 -334.11)"/><path class="cls-38" d="M1028.87,740.44c-.15-.26-30.28-3.63-30.28-3.63a69.84,69.84,0,0,1-2.1,21.78c-3.08,12.61-47.33,67.27-47.33,67.27l4.64,14.7a74.59,74.59,0,0,1-42.34,2.55l28.75-17.25s26.91-91.71,43.39-108.07l30.21-10.45Z" transform="translate(-417.53 -334.11)"/><path class="cls-39" d="M1096.46,687.08s17.36,25.82,18.79,37.6-4.76,16.57-23,17.36-66.85.78-66.85.78l-41.51-35.48s30.25-10.79,38.11-13.84S1096.46,687.08,1096.46,687.08Z" transform="translate(-417.53 -334.11)"/><path class="cls-40" d="M952,835.61s5,4.84,1.63,10.22c0,0-39.57,7-50.32,3.83,0,0,2.23-5.09,14.33-10.88l-.89.68a1.44,1.44,0,0,0,1,2.59C925.72,841.6,942.21,840.14,952,835.61Z" transform="translate(-417.53 -334.11)"/><path class="cls-41" d="M1060.16,535.32c2.62.82,12.08,4.22,10.86,10.3a1.11,1.11,0,0,0,1.39,1.27c4.08-1.09,13.08-2.47,18.66,4.52,4.93,6.17,1.24,12-1.76,15.19a1.13,1.13,0,0,0,.94,1.9c7.49-1,23.77-1.17,26.43,14.08,2.49,14.22-7.41,18.23-13.28,19.36a1.11,1.11,0,0,0-.37,2c2.92,1.85,6.32,5.69,5,13.27-2.15,11.88-25.44,10.9-28.16,10.75a1,1,0,0,1-.48-.15L1042,606.59a1.11,1.11,0,0,1-.54-.79L1034,562.32a1.15,1.15,0,0,1,.29-1l18.68-26.84C1048.68,532.18,1059.75,535.2,1060.16,535.32Z" transform="translate(-417.53 -334.11)"/><path class="cls-42" d="M1048.29,677s-20.22-19.25-30.17-32a27,27,0,0,1-4.58-24.35c4.54-15.31,12.62-31.16,13.35-33.63,1.13-3.78,23.8-3.63,23.8-3.63s44.62,29,62.15,78l-19.69,6.12s-11.65-19.54-23.16-32c0,0,19.92,26.31,20.62,37.08Z" transform="translate(-417.53 -334.11)"/><path class="cls-43" d="M1024.15,565.86c.24.78,6.15,20.4,6.62,20.81s13,1.08,18.86-2.95l-11.24-25.57Z" transform="translate(-417.53 -334.11)"/><path class="cls-44" d="M1022.29,522.76s-9.13,7.15-12.1,24,4.14,22.26,11,21.42,16.63-3.65,24.42-16.1S1034.29,514,1022.29,522.76Z" transform="translate(-417.53 -334.11)"/><path class="cls-45" d="M1036.43,546s1.86-23.9-17.53-18.92l-3.69,4.42s-10.37-10.17-.29-19.09,25-7.86,34.19,6.48,12.9,24.6,6.69,34.33-11.9,2.16-11.9,2.16,2.58-8.24-.27-11.49-5.82,2.41-5.82,2.41Z" transform="translate(-417.53 -334.11)"/><path class="cls-46" d="M1036.89,552.4s.89-12.3,7.35-9.25-1.45,11.53-4.66,14.45Z" transform="translate(-417.53 -334.11)"/><path class="cls-47" d="M1007.1,678.42,1022,664.1l20.55,8.68s20.46,3.17,32.17,0l11.71-3.17,26.46-8.23,4.15,11.74a7.05,7.05,0,0,1-2.58,8.12,46.23,46.23,0,0,1-6.69,4.17c-3.48,1.52-85.89-1.06-85.89-1.06Z" transform="translate(-417.53 -334.11)"/><path class="cls-48" d="M679.63,550l-2-3.23a7.18,7.18,0,0,0-5.23-3.36l-21.09-2.61s-.94-2.37,2.94-5.18,1.58-7.37,1.58-7.37-5.18,4.25-12.68,10.81a20.92,20.92,0,0,0-6.53,12.42l-3.38,7.4a9.82,9.82,0,0,0,9.23,3.42l.77-5.67A90.3,90.3,0,0,0,679.63,550Z" transform="translate(-417.53 -334.11)"/><path class="cls-49" d="M633.26,558.87l-12.53,27.48a12,12,0,0,1-15.11,6.29l-25.69-22.83-.57,45.83L606.13,621a26.48,26.48,0,0,0,31.44-22.41l4.92-36.3A9.82,9.82,0,0,1,633.26,558.87Z" transform="translate(-417.53 -334.11)"/><path class="cls-50" d="M649.83,838.11c-13.52,0-19.51-1.16-22.19-2.22a5.14,5.14,0,0,0,5,4h47.85a2.33,2.33,0,0,0,2.25-2.94C677.28,837.37,665.7,838.11,649.83,838.11Z" transform="translate(-417.53 -334.11)"/><path class="cls-51" d="M682.74,836.93a2.37,2.37,0,0,0-.39-.82c-3.65-4.65-11-12-20.93-11.82-14.59.21-19.68,1.79-31,.09l-2.67,8.87a5.06,5.06,0,0,0-.09,2.64c2.68,1.06,8.67,2.22,22.19,2.22C665.7,838.11,677.28,837.37,682.74,836.93Z" transform="translate(-417.53 -334.11)"/><path class="cls-52" d="M633.68,814.83,630.4,826s7.28,3.32,13.67.66l1.26-9.68Z" transform="translate(-417.53 -334.11)"/><path class="cls-53" d="M732.86,831.08c-10.54,8.47-15.93,11.32-18.68,12.17a5.14,5.14,0,0,0,6.38,0l37.3-30a2.32,2.32,0,0,0-.08-3.69C753.8,813.31,745.23,821.14,732.86,831.08Z" transform="translate(-417.53 -334.11)"/><path class="cls-54" d="M757.78,809.55a2.4,2.4,0,0,0-.82-.39c-5.74-1.32-16-2.41-23.68,3.94-11.25,9.3-14.23,13.71-24.12,19.5l3.44,8.55a5,5,0,0,0,1.58,2.1c2.75-.85,8.14-3.7,18.68-12.17C745.23,821.14,753.8,813.31,757.78,809.55Z" transform="translate(-417.53 -334.11)"/><path class="cls-55" d="M563.44,687.59s81,6.61,97.6,14.43-13.56,117.43-13.56,117.43-4.52,2.18-14.59-1c0,0,10.32-80.89,2.64-98.43l-87.68-14.34Z" transform="translate(-417.53 -334.11)"/><path class="cls-56" d="M701.11,817.2c.75.69,8,15.4,8,15.4s8.12-1.76,9.77-6.9l-7.3-13.28Z" transform="translate(-417.53 -334.11)"/><path class="cls-57" d="M514.67,686.91a41,41,0,0,0-2.53,14.79,22.2,22.2,0,0,0,21.18,21.72l95.74,4.37a4.59,4.59,0,0,1,4.24,3.45c2.25,8.7,13.24,35.42,67,88.75a4.34,4.34,0,0,0,5.36.58l7.66-4.83a1.77,1.77,0,0,0,.58-2.38l-55.75-95.19a21.55,21.55,0,0,0-13.1-9.72l-81.6-20.86Z" transform="translate(-417.53 -334.11)"/><path class="cls-58" d="M514.41,686.63s-.95-47.45,8.54-92.1a72.07,72.07,0,0,1,25.86-41.69l4.43-3.49,22.18,9,14.4,21.86a51.42,51.42,0,0,1,2.42,40.34c-7.92,22.09-19.66,55.51-22.36,66.76C569.88,687.33,533.13,692.18,514.41,686.63Z" transform="translate(-417.53 -334.11)"/><path class="cls-59" d="M568.49,514l-17.33,40.22s5.54,12.48,25,7.62l6.93-27.73Z" transform="translate(-417.53 -334.11)"/><path class="cls-60" d="M626,649.19c0-.69,22.18-74.88,22.18-74.88l24.27-4.16-29.12,81.12Z" transform="translate(-417.53 -334.11)"/><path class="cls-61" d="M624.65,651.27c1.39,1.39,15.25,1.39,15.25,1.39L669,568.07l-22.88,4.86Z" transform="translate(-417.53 -334.11)"/><path class="cls-62" d="M602.84,495.65c.21.56.67,40.18.67,40.18l-22.63-.22-6-37.48S599.34,486.25,602.84,495.65Z" transform="translate(-417.53 -334.11)"/><path class="cls-63" d="M581.5,505.34l1.62,20a3.18,3.18,0,0,0,.17.74c.54,1.48,2.8,6.41,7.71,3.8,4.46-2.37,8.56-4.47,11.77-4.2a2.79,2.79,0,0,1,2.56,2.76,121.69,121.69,0,0,1-1.14,18.75,2.79,2.79,0,0,1-3,2.33c-4.35-.3-13.5-1.21-20.69-3.67a2.78,2.78,0,0,1-1.87-2.17c-.85-4.95-3.5-20-4.89-24-1.3-3.83-6.62-5.14-8.89-5.53a2.74,2.74,0,0,1-1.83-1.18c-1.49-2.21-4-7.54,2.54-11.37a2.81,2.81,0,0,0,1-3.92c-1.68-2.69-3.08-7.05,1.86-10.69s9.82-1.62,12.59.3a2.81,2.81,0,0,0,3.58-.34,2.21,2.21,0,0,1,2.48-.45,2.76,2.76,0,0,0,3.57-2c.74-3,2.82-6.54,8.47-6.79,10-.43,13.44,10,12.24,16.87s-12.09,6.68-18,4.64c-4.48-1.55-9.07,2.09-11,3.92A2.81,2.81,0,0,0,581.5,505.34Z" transform="translate(-417.53 -334.11)"/><path class="cls-64" d="M574.43,526.88s1.57-12-3.1-13.83-10.41.88-7.34,8.65C567.82,531.37,574.43,526.88,574.43,526.88Z" transform="translate(-417.53 -334.11)"/><path class="cls-65" d="M634,627.75c-49.26,34.07-70.19-43.65-70.71-44.08-31.89-26.34-30.37,21.48-26.35,27,40.75,63.52,88.06,45.07,102.67,25.57A15.86,15.86,0,0,1,634,627.75Z" transform="translate(-417.53 -334.11)"/><path class="cls-66" d="M588.49,628.88a1.47,1.47,0,0,1-.94-.34c-12.26-10.32-20.15-27.5-24.61-40.1a1.45,1.45,0,0,1,2.74-1c3.55,10,11.36,28.43,23.75,38.85a1.45,1.45,0,0,1-.94,2.56Z" transform="translate(-417.53 -334.11)"/><path class="cls-67" d="M578.67,651.07a1.46,1.46,0,0,1-.57-.12c-15.71-6.58-30.21-20.09-43.07-40.15a1.45,1.45,0,0,1,2.44-1.57c12.55,19.56,26.6,32.69,41.76,39a1.46,1.46,0,0,1,.78,1.91A1.48,1.48,0,0,1,578.67,651.07Z" transform="translate(-417.53 -334.11)"/><path class="cls-68" d="M661.15,601.74s-.45,1.69-5.3,8.63-10.4,11.78-7.63,3.46-.69-11.09-4-2-6.41,13.13-6.41,13.13q-1.94,1.52-3.82,2.82a15.86,15.86,0,0,0,5.61,8.53c2-1.41,3.07-2.34,3.07-2.34s15.94-8.32,17.33-16.64A87.45,87.45,0,0,0,661.15,601.74Z" transform="translate(-417.53 -334.11)"/></g></g></svg>