<svg xmlns="http://www.w3.org/2000/svg" xmlns:xlink="http://www.w3.org/1999/xlink" width="79.797" height="60" viewBox="0 0 79.797 60">
  <defs>
    <clipPath id="clip-path">
      <rect id="Rect치ngulo_1461" data-name="Rect치ngulo 1461" width="79.797" height="60" fill="none"/>
    </clipPath>
  </defs>
  <g id="Grupo_3279" data-name="Grupo 3279" transform="translate(-805 -3214)">
    <g id="Grupo_3163" data-name="Grupo 3163" transform="translate(805 3214)">
      <g id="Grupo_3162" data-name="Grupo 3162" clip-path="url(#clip-path)">
        <path id="Trazado_1432" data-name="Trazado 1432" d="M91.7,61.8H29.329V24.891A5.091,5.091,0,0,1,34.42,19.8H77.2a13.131,13.131,0,0,1,.8-2.546H34.42a7.645,7.645,0,0,0-7.637,7.637V64.347H94.241V35.091a13.185,13.185,0,0,1-2.546.548Z" transform="translate(-19.911 -12.827)" fill="#0c58a4"/>
        <path id="Trazado_1433" data-name="Trazado 1433" d="M0,189.779v2.827c0,4.676,3.409,8.48,7.6,8.48H72.2c4.191,0,7.6-3.8,7.6-8.48v-2.827Zm72.2,8.48H7.6c-2.8,0-5.066-2.531-5.066-5.653H77.264c0,3.122-2.268,5.653-5.066,5.653" transform="translate(0 -141.085)" fill="#0c58a4"/>
        <rect id="Rect치ngulo_1460" data-name="Rect치ngulo 1460" width="50.29" height="32.822" transform="translate(15.395 13.045)" fill="#308cce"/>
        <path id="Trazado_1434" data-name="Trazado 1434" d="M101.844,101.567q-.169,0-.343-.015a.84.84,0,0,1-.764-.893.737.737,0,0,1,.743-.735c.025,0,.051,0,.078,0,.077.007.152.01.227.01,1.735,0,2.912-1.856,3.272-3.581a7.281,7.281,0,0,0,.141-1.3,18.129,18.129,0,0,1-.2-4.177,11.823,11.823,0,0,1,.22-2.679.768.768,0,0,1,.78-.6.869.869,0,0,1,.638.269.722.722,0,0,1,.183.563c-.075.785-.152,1.6-.2,2.4.012.566.056,1.173.1,1.76.057.777.115,1.58.1,2.371a7.385,7.385,0,0,0,2.468,4.431,1.522,1.522,0,0,0,.817.409.565.565,0,0,0,.328-.112,4.669,4.669,0,0,0,1.087-1.3,9.443,9.443,0,0,0,1.346-3.367.727.727,0,0,1,.736-.611.891.891,0,0,1,.83.56l.837,2.268a3.533,3.533,0,0,0,.963-2.128.877.877,0,0,1,.859-.789.732.732,0,0,1,.665.422l1.669,3.283a3.375,3.375,0,0,0,.447-1.528.809.809,0,0,1,.627-.775,1.874,1.874,0,0,1,.319-.028,1.534,1.534,0,0,1,1.457,1.017.71.71,0,0,1-.052.685.838.838,0,0,1-.7.348.916.916,0,0,1-.222-.027,4.988,4.988,0,0,1-1.48,2.373.882.882,0,0,1-.582.22.758.758,0,0,1-.692-.414l-1.328-2.612a5.222,5.222,0,0,1-1.919,1.986.8.8,0,0,1-.405.113.852.852,0,0,1-.782-.572l-.4-1.083a10.74,10.74,0,0,1-1.336,2.244,3.645,3.645,0,0,1-1.654,1.373,1.963,1.963,0,0,1-.606.1,2.7,2.7,0,0,1-1.572-.575,7.877,7.877,0,0,1-2.346-2.76c-.772,1.825-2.318,3.464-4.366,3.464" transform="translate(-74.889 -65.118)" fill="#fff"/>
        <path id="Trazado_1435" data-name="Trazado 1435" d="M266.485,5.688l-8.137,8.137L252.96,8.437,261.1.3a1.026,1.026,0,0,1,1.452,0l3.937,3.937a1.026,1.026,0,0,1,0,1.451" transform="translate(-188.055 0)" fill="#1e2345"/>
        <path id="Trazado_1436" data-name="Trazado 1436" d="M198.34,37.3l-.34.54c-.023.037-2.331,3.7-3.2,4.8a11.16,11.16,0,0,1-8.377,3.863,9.077,9.077,0,0,1-1.031-.051l-.67-.087.1.669a13.473,13.473,0,0,1-.459,5.353,35.874,35.874,0,0,1-3.152,6.274l-.221.349.828.817.447.441.346-.226a35.852,35.852,0,0,1,6.229-3.24,12.665,12.665,0,0,1,3.982-.6,12.016,12.016,0,0,1,1.364.069l.669.085-.095-.667a10.787,10.787,0,0,1,.694-5.171,10.109,10.109,0,0,1,2.985-4.291c1.1-.888,4.723-3.246,4.759-3.27l.535-.348ZM189.59,52.93a1.155,1.155,0,1,1,1.155-1.155,1.155,1.155,0,0,1-1.155,1.155" transform="translate(-134.546 -27.732)" fill="#1e2345"/>
      </g>
    </g>
  </g>
</svg>
