<svg id="Capa_1" data-name="Capa 1" xmlns="http://www.w3.org/2000/svg" viewBox="0 0 1512.25 797.45"><defs><style>.cls-1{font-size:240.39px;font-family:Montserrat-Bold, Montserrat;font-weight:700;letter-spacing:0.1em;}.cls-1,.cls-3{fill:#1c5ba9;}.cls-2{letter-spacing:0.11em;}</style></defs><text class="cls-1" transform="translate(0 733.51)">E<tspan class="cls-2" x="185.33" y="0">n</tspan><tspan x="376.92" y="0">cuestas</tspan></text><path class="cls-3" d="M606.25,321.35h504.29a78,78,0,0,1,77.68,77.72V687.64a78,78,0,0,1-77.68,77.63l-152-.44c-28.1-.47-29-37.76,0-37.76l152,.55C1192,721.94,946,322.83,606.25,359.07a40.19,40.19,0,0,0-40,40V687.64a40.12,40.12,0,0,0,40,40h41.2c26.83.21,25.64,39.75,0,37.65h-41.2a77.79,77.79,0,0,1-77.72-77.63V399.07a77.76,77.76,0,0,1,77.72-77.72Z" transform="translate(-97.39 -321.35)"/><path class="cls-3" d="M777.25,775.69c-1.47,0-8.61-.82-9.27-2.14-43.14-85.25-103.74-121-104.44-121.42a11.73,11.73,0,0,1-4.89-6.82c-1.17-3.87,4-6.17,5.83-6.18,13.41-2.67,18.43-1.1,28.74-1.1,27.77,0,53.4,9.49,76.26,28.24,12.12-22,55.8-106.87,165.63-152.32,1.79-.74,10.31-3.54,13.52,1.6s.63,9.59-.87,10.81c-67.44,55.27-118.88,158.4-161.2,247.11-.64,1.34-4,2-9.26,2.22S777.27,775.69,777.25,775.69Z" transform="translate(-97.39 -321.35)"/></svg>