<svg xmlns="http://www.w3.org/2000/svg" xmlns:xlink="http://www.w3.org/1999/xlink" width="200.083" height="43.861" viewBox="0 0 200.083 43.861">
  <defs>
    <clipPath id="clip-path">
      <rect id="Rectángulo_1461" data-name="Rectángulo 1461" width="58.334" height="43.861" fill="none"/>
    </clipPath>
  </defs>
  <g id="Grupo_3206" data-name="Grupo 3206" transform="translate(-59.714 -15.333)">
    <g id="Grupo_3162" data-name="Grupo 3162" transform="translate(59.714 15.333)" clip-path="url(#clip-path)">
      <path id="Trazado_1432" data-name="Trazado 1432" d="M74.236,49.82H28.644V22.837a3.722,3.722,0,0,1,3.722-3.722h31.27a9.6,9.6,0,0,1,.584-1.861H32.366a5.589,5.589,0,0,0-5.583,5.583V51.68H76.1V30.293a9.639,9.639,0,0,1-1.861.4Z" transform="translate(-21.759 -14.018)" fill="#0c58a4"/>
      <path id="Trazado_1433" data-name="Trazado 1433" d="M0,189.779v2.066c0,3.418,2.492,6.2,5.556,6.2H52.778c3.064,0,5.556-2.781,5.556-6.2v-2.066Zm52.778,6.2H5.556a3.936,3.936,0,0,1-3.7-4.133h54.63a3.936,3.936,0,0,1-3.7,4.133" transform="translate(0 -154.183)" fill="#0c58a4"/>
      <rect id="Rectángulo_1460" data-name="Rectángulo 1460" width="36.763" height="23.994" transform="translate(11.254 9.537)" fill="#308cce"/>
      <path id="Trazado_1434" data-name="Trazado 1434" d="M101.546,97.809q-.124,0-.251-.011a.614.614,0,0,1-.559-.653.539.539,0,0,1,.543-.537l.057,0c.056,0,.111.007.166.007,1.268,0,2.129-1.357,2.392-2.618a5.322,5.322,0,0,0,.1-.952,13.253,13.253,0,0,1-.143-3.054,8.643,8.643,0,0,1,.161-1.959.561.561,0,0,1,.57-.442.635.635,0,0,1,.466.2.527.527,0,0,1,.134.412c-.055.574-.111,1.167-.145,1.755.009.414.041.858.073,1.287.042.568.084,1.155.074,1.734a5.4,5.4,0,0,0,1.8,3.239,1.112,1.112,0,0,0,.6.3.413.413,0,0,0,.24-.082,3.413,3.413,0,0,0,.794-.949,6.9,6.9,0,0,0,.984-2.461.531.531,0,0,1,.538-.447.651.651,0,0,1,.607.41l.612,1.658a2.582,2.582,0,0,0,.7-1.556.641.641,0,0,1,.628-.577.535.535,0,0,1,.486.309l1.22,2.4a2.467,2.467,0,0,0,.327-1.117.592.592,0,0,1,.459-.567,1.371,1.371,0,0,1,.234-.021,1.121,1.121,0,0,1,1.065.743.519.519,0,0,1-.038.5.613.613,0,0,1-.509.254.67.67,0,0,1-.162-.02,3.646,3.646,0,0,1-1.082,1.734.645.645,0,0,1-.425.161.554.554,0,0,1-.506-.3l-.971-1.91a3.817,3.817,0,0,1-1.4,1.452.585.585,0,0,1-.3.083.623.623,0,0,1-.572-.418L110.229,95a7.852,7.852,0,0,1-.976,1.64,2.664,2.664,0,0,1-1.209,1,1.435,1.435,0,0,1-.443.07,1.975,1.975,0,0,1-1.149-.42,5.758,5.758,0,0,1-1.715-2.017,3.71,3.71,0,0,1-3.191,2.532" transform="translate(-81.841 -71.163)" fill="#fff"/>
      <path id="Trazado_1435" data-name="Trazado 1435" d="M262.847,4.158,256.9,10.106,252.96,6.167,258.908.219a.75.75,0,0,1,1.061,0L262.847,3.1a.75.75,0,0,1,0,1.061" transform="translate(-205.513 0)" fill="#1e2345"/>
      <path id="Trazado_1436" data-name="Trazado 1436" d="M193.672,37.3l-.249.395c-.017.027-1.7,2.7-2.341,3.512a8.158,8.158,0,0,1-6.124,2.824A6.636,6.636,0,0,1,184.2,44l-.49-.064.071.489a9.849,9.849,0,0,1-.335,3.913,26.227,26.227,0,0,1-2.3,4.586l-.162.255.605.6.327.322.253-.165a26.209,26.209,0,0,1,4.554-2.368,9.258,9.258,0,0,1,2.911-.441,8.785,8.785,0,0,1,1,.05l.489.062-.069-.488a7.886,7.886,0,0,1,.508-3.78,7.39,7.39,0,0,1,2.182-3.137c.8-.649,3.452-2.373,3.479-2.391l.391-.254Zm-6.4,11.423a.844.844,0,1,1,.844-.844.844.844,0,0,1-.844.844" transform="translate(-147.036 -30.307)" fill="#1e2345"/>
    </g>
    <text id="FIRMA_ELECTRÓNICA" data-name="FIRMA
ELECTRÓNICA" transform="translate(139.797 35.195)" fill="#1e2343" font-size="16" font-family="Montserrat-Bold, Montserrat" font-weight="700"><tspan letter-spacing="0.008em"><tspan x="0" y="0">FIRMA</tspan></tspan><tspan fill="#318cce"><tspan x="0" y="19">ELECTRÓNICA</tspan></tspan></text>
  </g>
</svg>
