<svg id="Capa_1" data-name="Capa 1" xmlns="http://www.w3.org/2000/svg" viewBox="0 0 1462.49 735.43"><defs><style>.cls-1{fill:#1c5ba9;}</style></defs><path class="cls-1" d="M247.63,1023.61v31.25H117.34V886.59H244.5v31.25H156v36.54h78.13v30.29H156v38.94Z" transform="translate(-117.34 -321.35)"/><path class="cls-1" d="M432.24,980.82v74h-37.5V986.59c0-20.91-9.61-30.53-26.2-30.53-18,0-31,11.06-31,34.86v63.94H300V925.53h35.82v15.15c10.09-11.06,25.24-17.07,42.79-17.07C409.17,923.61,432.24,941.4,432.24,980.82Z" transform="translate(-117.34 -321.35)"/><path class="cls-1" d="M482,990.2c0-39,30-66.59,72.11-66.59,27.17,0,48.56,11.78,57.94,32.93L583,972.17c-7-12.26-17.31-17.79-29.09-17.79-19,0-33.89,13.22-33.89,35.82s14.9,35.81,33.89,35.81c11.78,0,22.12-5.28,29.09-17.78l29.09,15.86c-9.38,20.67-30.77,32.69-57.94,32.69C512.05,1056.78,482,1029.14,482,990.2Z" transform="translate(-117.34 -321.35)"/><path class="cls-1" d="M788,925.53v129.33H752.43v-15.38c-9.86,11.29-24.28,17.3-40.14,17.3-32.46,0-55.29-18.27-55.29-58.17V925.53h37.5v67.55c0,21.64,9.61,31.25,26.2,31.25,17.31,0,29.81-11.06,29.81-34.86V925.53Z" transform="translate(-117.34 -321.35)"/><path class="cls-1" d="M972.86,1000.77H875c3.61,16.11,17.31,26,37,26,13.71,0,23.56-4.09,32.46-12.5l20,21.63c-12,13.7-30.05,20.91-53.37,20.91-44.71,0-73.8-28.12-73.8-66.58,0-38.71,29.57-66.59,69-66.59,38,0,67.31,25.48,67.31,67.07C973.58,993.56,973.1,997.65,972.86,1000.77ZM874.54,978.9h63.71C935.6,962.55,923.34,952,906.52,952,889.45,952,877.19,962.31,874.54,978.9Z" transform="translate(-117.34 -321.35)"/><path class="cls-1" d="M1010.12,1042.84l12.5-26.92c11.54,7.45,29.09,12.5,44.95,12.5,17.31,0,23.8-4.57,23.8-11.78,0-21.16-78.12.48-78.12-51.2,0-24.52,22.11-41.83,59.85-41.83,17.79,0,37.5,4.09,49.76,11.3l-12.5,26.68A74.29,74.29,0,0,0,1073.1,952c-16.83,0-24,5.29-24,12,0,22.12,78.13.72,78.13,51.69,0,24-22.36,41.1-61.06,41.1C1044.25,1056.78,1022.14,1050.77,1010.12,1042.84Z" transform="translate(-117.34 -321.35)"/><path class="cls-1" d="M1257.72,1048.61c-7.7,5.53-19,8.17-30.53,8.17-30.53,0-48.32-15.62-48.32-46.39V957.26h-19.95V928.42h19.95V896.93h37.5v31.49h32.21v28.84h-32.21v52.65c0,11.06,6,17.07,16.11,17.07a25.32,25.32,0,0,0,15.14-4.81Z" transform="translate(-117.34 -321.35)"/><path class="cls-1" d="M1417.33,981.06v73.8h-35.09v-16.11c-7,11.78-20.44,18-39.43,18-30.29,0-48.32-16.82-48.32-39.18,0-22.84,16.11-38.7,55.53-38.7h29.81c0-16.11-9.61-25.48-29.81-25.48-13.7,0-27.88,4.56-37.26,12l-13.46-26.21c14.18-10.09,35.1-15.62,55.77-15.62C1394.5,923.61,1417.33,941.88,1417.33,981.06Zm-37.5,32.93v-13.22h-25.72c-17.55,0-23.08,6.49-23.08,15.15,0,9.37,7.94,15.62,21.16,15.62C1364.69,1031.54,1375.5,1025.77,1379.83,1014Z" transform="translate(-117.34 -321.35)"/><path class="cls-1" d="M1462.76,1042.84l12.5-26.92c11.54,7.45,29.09,12.5,45,12.5,17.31,0,23.8-4.57,23.8-11.78,0-21.16-78.13.48-78.13-51.2,0-24.52,22.12-41.83,59.86-41.83,17.79,0,37.5,4.09,49.76,11.3L1563,961.59a74.29,74.29,0,0,0-37.26-9.62c-16.83,0-24,5.29-24,12,0,22.12,78.13.72,78.13,51.69,0,24-22.36,41.1-61.06,41.1C1496.89,1056.78,1474.78,1050.77,1462.76,1042.84Z" transform="translate(-117.34 -321.35)"/><path class="cls-1" d="M606.25,321.35h504.29a78,78,0,0,1,77.68,77.72V687.64a78,78,0,0,1-77.68,77.63l-152-.44c-28.1-.47-29-37.76,0-37.76l152,.55C1192,721.94,946,322.83,606.25,359.07a40.19,40.19,0,0,0-40,40V687.64a40.12,40.12,0,0,0,40,40h41.2c26.83.21,25.64,39.75,0,37.65h-41.2a77.79,77.79,0,0,1-77.72-77.63V399.07a77.76,77.76,0,0,1,77.72-77.72Z" transform="translate(-117.34 -321.35)"/><path class="cls-1" d="M777.25,775.69c-1.47,0-8.61-.82-9.27-2.14-43.14-85.25-103.74-121-104.44-121.42a11.73,11.73,0,0,1-4.89-6.82c-1.17-3.87,4-6.17,5.83-6.18,13.41-2.67,18.43-1.1,28.74-1.1,27.77,0,53.4,9.49,76.26,28.24,12.12-22,55.8-106.87,165.63-152.32,1.79-.74,10.31-3.54,13.52,1.6s.63,9.59-.87,10.81c-67.44,55.27-118.88,158.4-161.2,247.11-.64,1.34-4,2-9.26,2.22S777.27,775.69,777.25,775.69Z" transform="translate(-117.34 -321.35)"/></svg>