<?xml version="1.0" encoding="UTF-8"?>
<svg id="Capa_1" data-name="Capa 1" xmlns="http://www.w3.org/2000/svg" xmlns:xlink="http://www.w3.org/1999/xlink" viewBox="0 0 200.05 43.86">
  <defs>
    <style>
      .cls-1 {
        fill: #0c58a4;
      }

      .cls-2 {
        fill: #fff;
      }

      .cls-3 {
        fill: #1e2343;
      }

      .cls-4 {
        fill: #318cce;
      }

      .cls-5 {
        fill: #308cce;
      }

      .cls-6 {
        isolation: isolate;
      }

      .cls-6, .cls-7, .cls-8 {
        fill: none;
      }

      .cls-8 {
        clip-path: url(#clippath);
      }

      .cls-9 {
        fill: #1e2345;
      }
    </style>
    <clipPath id="clippath">
      <rect class="cls-7" y="0" width="58.33" height="43.86"/>
    </clipPath>
  </defs>
  <g id="Grupo_3206" data-name="Grupo 3206">
    <g class="cls-8">
      <g id="Grupo_3162" data-name="Grupo 3162">
        <path id="Trazado_1432" data-name="Trazado 1432" class="cls-1" d="m52.48,35.8H6.88V8.82c0-2.06,1.67-3.72,3.72-3.72h31.27c.13-.64.33-1.26.58-1.86H10.61c-3.08,0-5.58,2.5-5.58,5.58v28.84h49.32v-21.39c-.61.19-1.23.33-1.86.4v19.13Z"/>
        <path id="Trazado_1433" data-name="Trazado 1433" class="cls-1" d="m0,35.6v2.07c0,3.42,2.49,6.2,5.56,6.2h47.22c3.06,0,5.56-2.78,5.56-6.2v-2.07H0Zm52.78,6.2H5.56c-2.16-.13-3.81-1.97-3.7-4.13h54.63c.11,2.16-1.54,4.01-3.7,4.13"/>
        <rect id="Rectángulo_1460" data-name="Rectángulo 1460" class="cls-5" x="11.25" y="9.54" width="36.76" height="23.99"/>
        <path id="Trazado_1434" data-name="Trazado 1434" class="cls-2" d="m19.7,26.65c-.08,0-.17,0-.25-.01-.33-.03-.58-.32-.56-.65,0-.3.24-.54.54-.54,0,0,0,0,0,0h.06c.06,0,.11,0,.17,0,1.27,0,2.13-1.36,2.39-2.62.06-.31.1-.63.1-.95-.17-1.01-.21-2.03-.14-3.05-.02-.66.03-1.31.16-1.96.06-.27.3-.45.57-.44.18,0,.35.07.47.2.1.11.15.26.13.41-.06.57-.11,1.17-.14,1.75,0,.41.04.86.07,1.29.04.57.08,1.15.07,1.73.2,1.26.84,2.41,1.8,3.24.16.16.37.26.6.3.09,0,.17-.03.24-.08.32-.27.59-.59.79-.95.48-.75.82-1.58.98-2.46.04-.26.27-.45.54-.45.27,0,.51.16.61.41l.61,1.66c.4-.42.65-.97.7-1.56.03-.32.3-.57.63-.58.21,0,.4.12.49.31l1.22,2.4c.2-.34.31-.72.33-1.12,0-.27.19-.51.46-.57.08-.01.16-.02.23-.02.48,0,.9.29,1.07.74.07.16.06.35-.04.5-.12.16-.31.26-.51.25-.05,0-.11,0-.16-.02-.19.67-.56,1.27-1.08,1.73-.12.1-.27.16-.43.16-.21,0-.41-.11-.51-.3l-.97-1.91c-.33.6-.81,1.1-1.4,1.45-.09.05-.19.08-.3.08-.26,0-.49-.17-.57-.42l-.28-.8c-.26.58-.59,1.14-.98,1.64-.29.45-.71.8-1.21,1-.14.05-.29.07-.44.07-.42-.01-.82-.16-1.15-.42-.72-.53-1.31-1.22-1.71-2.02-.46,1.4-1.72,2.4-3.19,2.53"/>
        <path id="Trazado_1435" data-name="Trazado 1435" class="cls-9" d="m57.33,4.16l-5.95,5.95-3.94-3.94L53.39.22c.29-.29.77-.29,1.06,0,0,0,0,0,0,0l2.88,2.88c.29.29.29.77,0,1.06,0,0,0,0,0,0"/>
        <path id="Trazado_1436" data-name="Trazado 1436" class="cls-9" d="m46.64,6.99l-.25.4s-1.7,2.7-2.34,3.51c-1.54,1.78-3.77,2.81-6.12,2.82-.25,0-.51,0-.76-.03l-.49-.06.07.49c.15,1.31.04,2.64-.34,3.91-.61,1.6-1.39,3.14-2.3,4.59l-.16.26.6.6.33.32.25-.17c1.44-.94,2.96-1.73,4.55-2.37.94-.3,1.92-.45,2.91-.44.33,0,.67.01,1,.05l.49.06-.07-.49c-.14-1.28.03-2.58.51-3.78.44-1.22,1.19-2.3,2.18-3.14.8-.65,3.45-2.37,3.48-2.39l.39-.25-3.94-3.89Zm-6.4,11.42c-.47,0-.84-.38-.84-.84s.38-.84.84-.84.84.38.84.84h0c0,.47-.38.84-.84.84"/>
      </g>
    </g>
    <g id="FIRMA_ELECTRÓNICA" data-name="FIRMA ELECTRÓNICA" class="cls-6">
      <g class="cls-6">
        <path class="cls-3" d="m84,10.74v2.96h5.19v2.08h-5.19v4.08h-2.59v-11.2h8.47v2.08h-5.87Z"/>
        <path class="cls-3" d="m91.76,8.66h2.59v11.2h-2.59v-11.2Z"/>
        <path class="cls-3" d="m104.28,19.86l-2.16-3.12h-2.39v3.12h-2.59v-11.2h4.85c2.99,0,4.87,1.55,4.87,4.07,0,1.68-.85,2.91-2.3,3.54l2.51,3.6h-2.79Zm-2.43-9.09h-2.11v3.91h2.11c1.58,0,2.38-.74,2.38-1.95s-.8-1.95-2.38-1.95Z"/>
        <path class="cls-3" d="m119.22,19.86l-.02-6.72-3.3,5.54h-1.17l-3.28-5.39v6.58h-2.43v-11.2h2.14l4.19,6.96,4.13-6.96h2.13l.03,11.2h-2.43Z"/>
        <path class="cls-3" d="m131.81,17.46h-5.2l-.99,2.4h-2.66l4.99-11.2h2.56l5.01,11.2h-2.72l-.99-2.4Zm-.82-1.97l-1.78-4.29-1.78,4.29h3.55Z"/>
      </g>
      <g class="cls-6">
        <path class="cls-4" d="m90.09,36.78v2.08h-8.68v-11.2h8.47v2.08h-5.89v2.43h5.2v2.02h-5.2v2.59h6.1Z"/>
        <path class="cls-4" d="m92.15,27.66h2.59v9.09h5.62v2.11h-8.21v-11.2Z"/>
        <path class="cls-4" d="m110.49,36.78v2.08h-8.68v-11.2h8.47v2.08h-5.89v2.43h5.2v2.02h-5.2v2.59h6.1Z"/>
        <path class="cls-4" d="m111.81,33.26c0-3.38,2.59-5.79,6.08-5.79,1.94,0,3.55.7,4.61,1.98l-1.67,1.54c-.75-.86-1.7-1.31-2.82-1.31-2.1,0-3.59,1.47-3.59,3.58s1.49,3.59,3.59,3.59c1.12,0,2.06-.45,2.82-1.33l1.67,1.54c-1.06,1.3-2.67,2-4.63,2-3.47,0-6.07-2.42-6.07-5.79Z"/>
        <path class="cls-4" d="m126.45,29.77h-3.58v-2.11h9.76v2.11h-3.59v9.09h-2.59v-9.09Z"/>
        <path class="cls-4" d="m141.16,38.86l-2.16-3.12h-2.39v3.12h-2.59v-11.2h4.85c2.99,0,4.87,1.55,4.87,4.07,0,1.68-.85,2.91-2.3,3.54l2.51,3.6h-2.79Zm-2.43-9.09h-2.11v3.91h2.11c1.58,0,2.38-.74,2.38-1.95s-.8-1.95-2.38-1.95Z"/>
        <path class="cls-4" d="m145.07,33.26c0-3.33,2.59-5.79,6.13-5.79s6.13,2.45,6.13,5.79-2.61,5.79-6.13,5.79-6.13-2.46-6.13-5.79Zm9.64,0c0-2.13-1.51-3.58-3.51-3.58s-3.51,1.46-3.51,3.58,1.5,3.59,3.51,3.59,3.51-1.46,3.51-3.59Zm-2.8-8.82h2.69l-2.9,2.3h-1.95l2.16-2.3Z"/>
        <path class="cls-4" d="m169.56,27.66v11.2h-2.13l-5.59-6.8v6.8h-2.56v-11.2h2.14l5.57,6.8v-6.8h2.56Z"/>
        <path class="cls-4" d="m172.21,27.66h2.59v11.2h-2.59v-11.2Z"/>
        <path class="cls-4" d="m176.75,33.26c0-3.38,2.59-5.79,6.08-5.79,1.94,0,3.55.7,4.61,1.98l-1.67,1.54c-.75-.86-1.7-1.31-2.82-1.31-2.1,0-3.59,1.47-3.59,3.58s1.49,3.59,3.59,3.59c1.12,0,2.06-.45,2.82-1.33l1.67,1.54c-1.06,1.3-2.67,2-4.63,2-3.47,0-6.07-2.42-6.07-5.79Z"/>
        <path class="cls-4" d="m196.34,36.46h-5.2l-.99,2.4h-2.66l4.99-11.2h2.56l5.01,11.2h-2.72l-.99-2.4Zm-.82-1.97l-1.78-4.29-1.78,4.29h3.55Z"/>
      </g>
    </g>
  </g>
</svg>