<svg xmlns="http://www.w3.org/2000/svg" xmlns:xlink="http://www.w3.org/1999/xlink" width="23.955" height="21" viewBox="0 0 23.955 21">
  <defs>
    <clipPath id="clip-path">
      <rect id="Rectángulo_1587" data-name="Rectángulo 1587" width="11" height="11" transform="translate(0 0.083)" fill="#fff"/>
    </clipPath>
  </defs>
  <g id="Grupo_3654" data-name="Grupo 3654" transform="translate(-3033 -2128)">
    <g id="fi_git-commit" transform="translate(3032.995 2124)" opacity="0">
      <path id="Trazado_1677" data-name="Trazado 1677" d="M17.01,12h5.95" fill="none" stroke="rgba(227,235,245,0.5)" stroke-linecap="round" stroke-linejoin="round" stroke-width="2"/>
      <path id="Trazado_1678" data-name="Trazado 1678" d="M1.05,12H7" fill="none" stroke="rgba(227,235,245,0.5)" stroke-linecap="round" stroke-linejoin="round" stroke-width="2"/>
      <path id="Trazado_1679" data-name="Trazado 1679" d="M12,16a4,4,0,1,0-4-4A4,4,0,0,0,12,16Z" fill="none" stroke="rgba(227,235,245,0.5)" stroke-linecap="round" stroke-linejoin="round" stroke-width="2"/>
    </g>
    <circle id="Elipse_110" data-name="Elipse 110" cx="1.5" cy="1.5" r="1.5" transform="translate(3048 2142)" fill="#77a2cd"/>
    <g id="fi_git-commit-2" data-name="fi_git-commit" transform="translate(3032.995 2124)" opacity="0">
      <path id="Trazado_1677-2" data-name="Trazado 1677" d="M17.01,12h5.95" fill="none" stroke="rgba(227,235,245,0.5)" stroke-linecap="round" stroke-linejoin="round" stroke-width="2"/>
      <path id="Trazado_1678-2" data-name="Trazado 1678" d="M1.05,12H7" fill="none" stroke="rgba(227,235,245,0.5)" stroke-linecap="round" stroke-linejoin="round" stroke-width="2"/>
      <path id="Trazado_1679-2" data-name="Trazado 1679" d="M12,16a4,4,0,1,0-4-4A4,4,0,0,0,12,16Z" fill="none" stroke="rgba(227,235,245,0.5)" stroke-linecap="round" stroke-linejoin="round" stroke-width="2"/>
    </g>
    <g id="Grupo_3373" data-name="Grupo 3373" transform="translate(2664 -779)">
      <g id="user_minus" data-name="user minus" transform="translate(368 2906)">
        <path id="Trazado_1765" data-name="Trazado 1765" d="M10,3a3.5,3.5,0,1,0,3.5,3.5A3.5,3.5,0,0,0,10,3ZM4.5,6.5A5.5,5.5,0,1,1,10,12,5.5,5.5,0,0,1,4.5,6.5Z" fill="#1e2345" fill-rule="evenodd"/>
        <path id="Trazado_1766" data-name="Trazado 1766" d="M10,12a7,7,0,0,0-7,7H1a9,9,0,0,1,9-9Z" fill="#1e2345" fill-rule="evenodd"/>
      </g>
      <g id="fi_settings" transform="translate(380 2916.917)" clip-path="url(#clip-path)">
        <path id="Trazado_1684" data-name="Trazado 1684" d="M9.5,7.465a.762.762,0,0,0,.152.84l.028.028A.924.924,0,1,1,8.37,9.64l-.028-.028a.767.767,0,0,0-1.3.545v.079a.924.924,0,0,1-1.847,0v-.042a.762.762,0,0,0-.5-.7.762.762,0,0,0-.84.152l-.028.028A.924.924,0,1,1,2.519,8.37l.028-.028A.767.767,0,0,0,2,7.04H1.924a.924.924,0,0,1,0-1.847h.042a.762.762,0,0,0,.7-.5.762.762,0,0,0-.152-.84l-.028-.028A.924.924,0,1,1,3.789,2.519l.028.028a.762.762,0,0,0,.84.152h.037A.762.762,0,0,0,5.156,2V1.924A.924.924,0,0,1,7,1.924v.042a.767.767,0,0,0,1.3.545l.028-.028A.924.924,0,1,1,9.64,3.789l-.028.028a.762.762,0,0,0-.152.84v.037a.762.762,0,0,0,.7.462h.079a.924.924,0,0,1,0,1.847h-.042a.762.762,0,0,0-.7.462Z" transform="translate(-0.538 -0.538)" fill="none" stroke="#1e2345" stroke-linecap="round" stroke-linejoin="round" stroke-width="1.5"/>
      </g>
      <circle id="Elipse_109" data-name="Elipse 109" cx="1.5" cy="1.5" r="1.5" transform="translate(384 2921)" fill="#1e2345"/>
    </g>
  </g>
</svg>
