<svg xmlns="http://www.w3.org/2000/svg" width="50.854" height="50.854" viewBox="0 0 50.854 50.854">
  <g id="Grupo_3657" data-name="Grupo 3657" transform="translate(-11746.146 -855)">
    <path id="Trazado_1669" data-name="Trazado 1669" d="M10.171,0H40.683A10.171,10.171,0,0,1,50.854,10.171V40.683A10.171,10.171,0,0,1,40.683,50.854H10.171A10.171,10.171,0,0,1,0,40.683V10.171A10.171,10.171,0,0,1,10.171,0Z" transform="translate(11746.146 855)" fill="#e3ebf5"/>
    <g id="user_header" transform="translate(11756.735 860.812)">
      <path id="Trazado_1444" data-name="Trazado 1444" d="M27.875,22.074V19.046a6.055,6.055,0,0,0-6.055-6.055H9.709a6.055,6.055,0,0,0-6.055,6.055v3.028" transform="translate(0 8.165)" fill="none" stroke="#0b58a4" stroke-linecap="round" stroke-linejoin="round" stroke-width="2"/>
      <path id="Trazado_1445" data-name="Trazado 1445" d="M13.044,15.1A6.056,6.056,0,1,0,6.988,9.046,6.056,6.056,0,0,0,13.044,15.1Z" transform="translate(2.722 0)" fill="none" stroke="#0b58a4" stroke-linecap="round" stroke-linejoin="round" stroke-width="2"/>
    </g>
  </g>
</svg>
