<svg id="Capa_1" data-name="Capa 1" xmlns="http://www.w3.org/2000/svg" viewBox="0 0 591.09 315.68"><defs><style>.cls-1{fill:#e7f5fe;}.cls-10,.cls-11,.cls-2,.cls-21,.cls-3,.cls-6,.cls-8{fill:none;}.cls-2,.cls-3,.cls-6{stroke:#d2e8f9;}.cls-10,.cls-2,.cls-21,.cls-3,.cls-8{stroke-miterlimit:10;}.cls-3{stroke-dasharray:4 4;}.cls-4{fill:#f0faff;}.cls-5{fill:#26387a;}.cls-11,.cls-6{stroke-linecap:round;stroke-linejoin:round;}.cls-7{fill:#ffb288;}.cls-8{stroke:#0061a6;}.cls-10,.cls-21,.cls-8{stroke-width:0.5px;}.cls-9{fill:#d9f0ff;}.cls-10{stroke:#94c1f2;}.cls-11{stroke:#b4e8fd;stroke-width:5px;}.cls-12,.cls-14{fill:#fdae2b;}.cls-13{fill:#ef8417;}.cls-14{isolation:isolate;opacity:0.5;}.cls-15{fill:#ffc840;}.cls-16{fill:#0061a6;}.cls-17{fill:#ef9467;}.cls-18{fill:#e2e8ed;}.cls-19{fill:#b6e9fe;}.cls-20{fill:#2858ad;}.cls-21{stroke:#6cb1ef;}</style></defs><path class="cls-1" d="M559,344.17c-3.52-6.71-17.82-12.11-24.21-13.33-34.15-6.52-69.92-5.61-104.52-5.5-37.68.12-73.63,6.15-111,8.94-19.43,1.45-40-1.16-59.44-1.83q-48.1-1.67-96.19-3.91c-27.64-1.29-56.33,1.6-80.71,16.84-2.77,1.73-5.57,3.82-6.83,6.93-7.92,19.52,90.79,17.07,103.65,17.41,64.87,1.69,129.78,2.56,194.66.81,48.24-1.31,98.51-1.23,146.35-8,10.58-1.51,25-2.05,34.12-8.27C559.89,350.78,560.62,347.33,559,344.17Z" transform="translate(-2.49 -55.81)"/><path class="cls-2" d="M517,77.69l2,0" transform="translate(-2.49 -55.81)"/><path class="cls-3" d="M523,77.94c17.12,1.36,39.28,8.45,36.79,23.53-3.83,23.19-106.92,14.64-131.54,14.88-49.52.48-99.56.67-148.11,11.5-11.81,2.63-28.71,8.44-27.43,23.51.45,5.26,3.55,10,7.49,13.58,14.18,12.8,33.93,14,52.27,16.28,27.74,3.4,159.68-1.13,202.81,13,8.49,2.79,19.11,6.38,19.46,18.51.9,30.85-75.72,29.33-98.7,29.92-61.34,1.56-122.75.94-184.1-.27-49.57-1-99.3-1.84-148.8-5-18.45-1.19-48.62-1.55-62.7-15.4-7.87-7.74-8.9-21.82,3.54-29,8.77-5.07,34.49-2.85,44.39-3.7,30.43-2.62,20.57-21.33-4.59-23.16" transform="translate(-2.49 -55.81)"/><path class="cls-2" d="M81.76,166c-.66,0-1.32,0-2,0" transform="translate(-2.49 -55.81)"/><path class="cls-4" d="M518.73,100.25l-7.9-41.75a3.3,3.3,0,0,0-5.39-1.89L473.23,84.33a3.3,3.3,0,0,0,1.06,5.61l40.11,14A3.3,3.3,0,0,0,518.73,100.25Z" transform="translate(-2.49 -55.81)"/><path class="cls-5" d="M512.65,99.61a2.19,2.19,0,0,1-.67-.11L479,88a2.07,2.07,0,0,1-1.34-1.55,2,2,0,0,1,.68-1.93l26.49-22.8a2,2,0,0,1,2-.38,2.07,2.07,0,0,1,1.34,1.55l6.5,34.34a2,2,0,0,1-.68,1.93A2.09,2.09,0,0,1,512.65,99.61Zm-31.9-13.8,31.17,10.91-6.14-32.45Z" transform="translate(-2.49 -55.81)"/><path class="cls-5" d="M498.32,85.59h0a1.24,1.24,0,0,1-.78-1.52l3.27-11.48a1.94,1.94,0,0,1,2.5-1.27h0a1.94,1.94,0,0,1,1.16,2.55l-4.6,11A1.22,1.22,0,0,1,498.32,85.59Z" transform="translate(-2.49 -55.81)"/><path class="cls-5" d="M498.56,88.72a1.26,1.26,0,1,1-.77-1.61A1.26,1.26,0,0,1,498.56,88.72Z" transform="translate(-2.49 -55.81)"/><path class="cls-4" d="M77.25,151.88,51.28,139A2.25,2.25,0,0,0,48,141.11l1.79,28.95a2.25,2.25,0,0,0,3.49,1.74l24.18-16A2.24,2.24,0,0,0,77.25,151.88Z" transform="translate(-2.49 -55.81)"/><path class="cls-5" d="M74.4,154.92a1.48,1.48,0,0,1-.34.32L54.17,168.42A1.39,1.39,0,0,1,52,167.34l-1.47-23.81a1.4,1.4,0,0,1,2-1.34l21.36,10.63a1.41,1.41,0,0,1,.49,2.1ZM53.74,166.58l18.79-12.46L52.35,144.07Z" transform="translate(-2.49 -55.81)"/><path class="cls-5" d="M60.86,156.93h0a.84.84,0,0,1-1.15-.21l-4.89-6.51a1.33,1.33,0,0,1,.34-1.89h0a1.33,1.33,0,0,1,1.87.42l4.09,7A.86.86,0,0,1,60.86,156.93Z" transform="translate(-2.49 -55.81)"/><path class="cls-5" d="M62.66,158.09a.86.86,0,1,1-1.19-.24A.86.86,0,0,1,62.66,158.09Z" transform="translate(-2.49 -55.81)"/><circle class="cls-2" cx="92.75" cy="152.29" r="2.16"/><circle class="cls-2" cx="413.76" cy="112.27" r="2.16"/><circle class="cls-2" cx="243.45" cy="51.67" r="2.16"/><circle class="cls-2" cx="240.85" cy="216.14" r="2.16"/><line class="cls-6" x1="291.25" y1="88.8" x2="291.25" y2="93.69"/><line class="cls-6" x1="293.7" y1="91.24" x2="288.81" y2="91.24"/><line class="cls-6" x1="379.06" y1="26.29" x2="379.06" y2="31.18"/><line class="cls-6" x1="381.51" y1="28.73" x2="376.62" y2="28.73"/><line class="cls-6" x1="514.92" y1="158.26" x2="514.92" y2="163.16"/><line class="cls-6" x1="517.37" y1="160.71" x2="512.47" y2="160.71"/><path class="cls-5" d="M337.66,353.94s-9.11,3.88-9.1,5.83c0,1.11,12.52-.48,13.28-1.24,1.21-1.21-.49-4.43-.49-4.43Z" transform="translate(-2.49 -55.81)"/><path class="cls-7" d="M337.08,348.51l.58,5.6a1.71,1.71,0,0,0,1.58,1,2.65,2.65,0,0,0,2.11-1l-.45-7" transform="translate(-2.49 -55.81)"/><path class="cls-5" d="M353,220.1c3.31,13.35,2.08,20.13-2.77,30.19-2.94,33.85-5,67.57-8.95,100.58l-4.18.24C327.58,319,318.83,270.93,320,227" transform="translate(-2.49 -55.81)"/><path class="cls-8" d="M350.92,224.68a25.35,25.35,0,0,1,1.41,9.89c-.16,5.06-2.22,9.65-3.55,14.45-1.78,6.4-1.91,12.78-2.4,19.35q-1.14,15.4-2.32,30.82-1.92,25.13-3.86,50.26l-.12,1.49" transform="translate(-2.49 -55.81)"/><path class="cls-5" d="M374,355.24s-9.11,3.88-9.1,5.83c0,1.11,12.52-.48,13.28-1.24,1.21-1.21-.49-4.43-.49-4.43Z" transform="translate(-2.49 -55.81)"/><path class="cls-7" d="M373.39,349.81l.58,5.6a1.71,1.71,0,0,0,1.58,1,2.65,2.65,0,0,0,2.11-1l-.45-7" transform="translate(-2.49 -55.81)"/><path class="cls-5" d="M383.27,219c4.19,13.1,3.41,19.94-.77,30.31-.69,34-3,69.45-4.79,102.64h-4.3c-11.61-31.44-24.05-80-25.84-123.87" transform="translate(-2.49 -55.81)"/><path class="cls-8" d="M381.19,224.39s4.86,11.36-3.35,27.32c-.95,15.06-1.43,100.21-1.43,100.21" transform="translate(-2.49 -55.81)"/><path class="cls-8" d="M369.18,228a7.51,7.51,0,0,0,3.56,2.77,17.67,17.67,0,0,0,4.44,1,31.66,31.66,0,0,0,5.41.28" transform="translate(-2.49 -55.81)"/><path class="cls-8" d="M369.77,230.12a12.33,12.33,0,0,0,5.56,2.74,29.41,29.41,0,0,0,6.22.59" transform="translate(-2.49 -55.81)"/><path class="cls-7" d="M333.56,155.66c-14.48,25.2-30.07,48-39.32,75.59l-2.75-1.46c.7-25.59,9-62.79,19.89-86" transform="translate(-2.49 -55.81)"/><path class="cls-9" d="M326.48,129.34a38.47,38.47,0,0,0-9.75,4.76,33.22,33.22,0,0,0-11.26,13.59,61.52,61.52,0,0,0-4.85,17.13,45.5,45.5,0,0,0,13,3.9,68.59,68.59,0,0,0,14.34,0" transform="translate(-2.49 -55.81)"/><path class="cls-9" d="M315.68,144.24c-1.54,27.26-.37,55.3.33,81.81,0,0,9.5,2.53,32.6,2.53s38.07-7,38.07-7c-4.46-27.25-8-60.68-18.92-83.11,0,0-12.32-13.29-24.47-13.83a15.77,15.77,0,0,0-7.21,1.87c-1.71.8-9.59,2.72-9.59,2.72Z" transform="translate(-2.49 -55.81)"/><path class="cls-10" d="M315.55,146.67c-.6,5.24-.6,21.42-.6,21.42" transform="translate(-2.49 -55.81)"/><path class="cls-11" d="M338.52,234.63c38.58-4.28,54.76,44.62,63.55,63.59,20.77,44.84,99.11,39.84,134.82,39.84,46.76,0,67.28,15.76,45.46,24" transform="translate(-2.49 -55.81)"/><path class="cls-12" d="M351.82,236.84c0,19.85-15,31.82-27.86,31.82H302.9V205H324C336.8,205,351.82,217,351.82,236.84Z" transform="translate(-2.49 -55.81)"/><path class="cls-13" d="M341,236.84c0,19.39-11.48,35.11-25.65,35.11H292.09V201.72h23.23C329.48,201.72,341,217.44,341,236.84Z" transform="translate(-2.49 -55.81)"/><path class="cls-14" d="M346.11,217.65q-7.53,10.28-14.68,20.82a3.57,3.57,0,0,0,1.8-.94c0,.53-.84,1.44-.1,1.78s1.53-.53,2.31-.29c.73-.17,1.41-1.08,1.94-1.61a4.11,4.11,0,0,0-.33,1.23c5.13-2,9.71-6.77,13.7-10.62A32,32,0,0,0,346.11,217.65Z" transform="translate(-2.49 -55.81)"/><ellipse class="cls-15" cx="291.25" cy="181.03" rx="25.65" ry="35.11"/><path class="cls-13" d="M295.89,249.28c0,2.88-2,5.22-4.4,5.22s-4.4-2.34-4.4-5.22,2-5.22,4.4-5.22S295.89,246.4,295.89,249.28Z" transform="translate(-2.49 -55.81)"/><path class="cls-13" d="M295.89,224.39c0,2.88-2,5.22-4.4,5.22s-4.4-2.34-4.4-5.22,2-5.22,4.4-5.22S295.89,221.51,295.89,224.39Z" transform="translate(-2.49 -55.81)"/><path class="cls-7" d="M374.78,164.35s1.63,16.59-5.79,30.38c-6.34,11.79-18.94,27.06-29.12,35.47l-2.45-.6c3.54-13.59,14.72-37.73,15.42-46.78s.53-19.54.7-24.58" transform="translate(-2.49 -55.81)"/><path class="cls-9" d="M343.29,124.62s13.65.93,21.57,7.62c11.31,9.55,13,28.25,13,32.59-3.42,3.69-10.89,3.88-16.33,3.88a18.75,18.75,0,0,1-9.42-2.61L351,145.47" transform="translate(-2.49 -55.81)"/><path class="cls-7" d="M338.42,227.59a8.62,8.62,0,0,0-4.36,1.93c-1.2.93-2.67,2.5-2.51,3.21s2.12-.69,2.36-.4-3.36,5.72-2.68,6.13S335,234,335,234s-3,5.25-1.82,5.37c1,.1,3.59-4.88,3.59-4.88s-2.23,4.44-1.47,4.61,2.83-4.26,2.83-4.26-1.68,3.78-1,3.85c.33,0,2-1.85,2.68-4.13s1.48-4.19.86-5.94" transform="translate(-2.49 -55.81)"/><line class="cls-10" x1="350.17" y1="91.84" x2="350.17" y2="110.64"/><path class="cls-5" d="M315,107.28c-.07.81-.1,1.63-.1,2.45a8.83,8.83,0,0,0,1.26,5.08,5.33,5.33,0,0,0,2.93,2.06c.83.23,1.92.13,2.28-.65a2.1,2.1,0,0,0,.13-.9,24.06,24.06,0,0,0-1.73-8.87" transform="translate(-2.49 -55.81)"/><path class="cls-7" d="M335.6,109c-1.17-4.57-4.85-11-10.85-9.67-3.76.81-7.23,3.37-8.34,7-1.32,4.29.82,9.27,3.39,12.77a10.66,10.66,0,0,0,3.53,3.28c3.47,1.79,8.15.32,10.51-2.66S336.52,112.6,335.6,109Z" transform="translate(-2.49 -55.81)"/><path class="cls-7" d="M327.19,120.93l2,7.16-2.67,1.26a6.51,6.51,0,0,0,6.06,2.12c8.18-1.18,10.75-6.85,10.75-6.85l-4.62-.48-5.11-8.71" transform="translate(-2.49 -55.81)"/><path class="cls-5" d="M339.59,104a11.51,11.51,0,0,0-5.53-7.46c-4.84-2.94-11.73-3.18-16,.87-2.45,2.31-6.87,10.48-1.59,12.1,1.65.51,3.34-.5,4.78-1.45l4.38-2.93a3.49,3.49,0,0,1,1.71-.74,2.56,2.56,0,0,1,2.26,1.82,23.47,23.47,0,0,1,.64,3,2.86,2.86,0,0,0,1.1,1.83,1.35,1.35,0,0,0,1.9-.38,3.28,3.28,0,0,0,.05-1.5c0-.51.28-1.13.78-1.1a.9.9,0,0,1,.49.21c1.27,1,.86,3,1.28,4.54.06.21-.37,3.36-.23,3.52C339.61,115.42,340,106.26,339.59,104Z" transform="translate(-2.49 -55.81)"/><path class="cls-7" d="M333.57,108.5a1.12,1.12,0,0,1,1-1.17,2.18,2.18,0,0,1,1.59.61,3.51,3.51,0,0,1,1.33,2.57,4.06,4.06,0,0,1-.72,2.19,2.34,2.34,0,0,1-1.17,1,1.86,1.86,0,0,1-1.84-.59" transform="translate(-2.49 -55.81)"/><path class="cls-5" d="M188.51,353.74s8.78,1.47,9,3.39c.14,1.11-12.31,2.42-13.16,1.77-1.35-1,.31-4.94.31-4.94Z" transform="translate(-2.49 -55.81)"/><path class="cls-7" d="M187.81,348.35l.72,5.55a1.7,1.7,0,0,1-1.43,1.2,2.65,2.65,0,0,1-2.22-.73l-1-6.93" transform="translate(-2.49 -55.81)"/><path class="cls-5" d="M155,221.81c-1.57,13.66-1.66,20.23,4.45,29.59,2.89,13.22,7.34,26.75,10.69,40.28-1.45,16.16,8.69,41.91,14.14,60.29l3.94-.67c5.3-33.09,7.25-83.84,2.5-128.26" transform="translate(-2.49 -55.81)"/><path class="cls-8" d="M157.54,240.32s15.11,48,15.11,50.59.41,11.56,1.08,17.37c1.23,10.64,10.87,42,10.87,42" transform="translate(-2.49 -55.81)"/><polygon class="cls-16" points="181.64 296.9 181.03 294.51 186.11 294.32 186.18 296.53 181.64 296.9"/><path class="cls-5" d="M120.19,354s6.87,5,6.26,6.71c-.35,1-11.53-3.14-12-4.05-.71-1.46,2.35-4.09,2.35-4.09Z" transform="translate(-2.49 -55.81)"/><path class="cls-7" d="M121.88,349.12l-1.74,5a1.63,1.63,0,0,1-1.73.42,2.51,2.51,0,0,1-1.59-1.56l2.05-6.35" transform="translate(-2.49 -55.81)"/><path class="cls-5" d="M125.45,219c-4.19,13.1-3.41,19.94.77,30.31.25,12.41.38,25,.52,37.52-8.84,22.13-10.24,42-9.12,63.06l4.26,1.58s25.39-44.25,30.05-61.74a289.9,289.9,0,0,0,9.22-61.65" transform="translate(-2.49 -55.81)"/><path class="cls-8" d="M126.5,221.81s-4.62,13.52,1.44,26.54c0,3.64,2.08,33.87,1.26,38.54-.4,2.24-4.54,12.93-7.32,23.33-3.07,11.51-3.71,38.64-3.71,38.64" transform="translate(-2.49 -55.81)"/><polygon class="cls-16" points="114.33 294.04 115.01 291.2 120.46 293.73 119.39 296.17 114.33 294.04"/><path class="cls-17" d="M196.45,117.81,193,114.89v-6c0-.94-1.27-6.57-2.42-6.57s-1.41-1.41-2-.83.47,6.93,0,7.4-1.08-3-1.51-2.59-.47,3-.47,4.3a8.69,8.69,0,0,0,2.09,4.76c1,1,5.63,6,5.63,6Z" transform="translate(-2.49 -55.81)"/><path class="cls-9" d="M194.74,115.87l-2.86,3.25s11.29,14.95,14.87,19.95c-3.26-1.14-7.95-4-10.65-5.78-5.31-3.48-10.64-5.33-14.32-5.33-7.82,0-3.73,25.79,5.35,29.56,17.21,2.59,36.51.95,39.46-5.1C231,143.46,205.73,122.33,194.74,115.87Z" transform="translate(-2.49 -55.81)"/><path class="cls-10" d="M206.75,139.08s2.15,6,6,8" transform="translate(-2.49 -55.81)"/><path class="cls-9" d="M142.25,134.79C121.73,157.84,122,197.46,122,224.4c0,0,15.07,10.28,38.07,10.28s32.6-5.67,32.6-5.67c.69-27.29-4.18-39.06.33-84.2,0,0-7.34-16.85-11.26-16.85s-19.23-1.51-19.23-1.51Z" transform="translate(-2.49 -55.81)"/><path class="cls-10" d="M191.9,158.13s.47-7.88,2.38-9.8" transform="translate(-2.49 -55.81)"/><path class="cls-7" d="M169.33,109.17c.76-4.65,4.08-11.29,10.16-10.54,3.82.47,6.78,3.11,8.92,6.2,1.83,2.65,1.14,5.18-1.47,11.89a17.28,17.28,0,0,1-4,4.7c-3.3,2.09-8.09,1-10.7-1.73A12.51,12.51,0,0,1,169.33,109.17Z" transform="translate(-2.49 -55.81)"/><path class="cls-5" d="M170.14,108.61c.88-.13,0-.7.39.1.25.51.32.66.82.82s.5.61.9.91c.63.47,1.17-.17,1.44-.71a6,6,0,0,0,.36-3.31c-.09-.86-.38-2.21.46-2.81.69-.49,2.2.22,2.91.42,1.09.32,2.17.67,3.26,1a19.35,19.35,0,0,0,8.14,1.13,7.88,7.88,0,0,0,6.05-3.81c1.38-2.68-1.38-6.17-4.2-6.18a10.78,10.78,0,0,0-2.16.45,1.59,1.59,0,0,1-.81,0c-.61-.18-.89-.87-1.23-1.41a4.65,4.65,0,0,0-4.67-1.92c-2.09.23-3.87,1.23-5.86,1.77a11.74,11.74,0,0,1-3,.05,3.2,3.2,0,0,0-2.68,1.75c-.85-.89-2.75,1.29-3.23,1.87-2.08,2.53-2.74,6.18-2.79,9.38-.05,2.8.42,6.87,3.48,8,1.3.48,2.11.73,2.17-.46a18.67,18.67,0,0,1-.82-4.71,2.5,2.5,0,0,1,1.14-2.66" transform="translate(-2.49 -55.81)"/><path class="cls-7" d="M180.13,120.28l-.67,7,2.31.65a6.49,6.49,0,0,1-5.25,3.69c-8.19,1.09-14-5.2-14-5.2l2.73-.53,4.14-13" transform="translate(-2.49 -55.81)"/><path class="cls-7" d="M171.51,108.56a1.13,1.13,0,0,0-1.14-1.08,2.21,2.21,0,0,0-1.53.74c-2.29,2.28.59,7.84,2.85,5" transform="translate(-2.49 -55.81)"/><path class="cls-5" d="M187,116.6c-.37.86-1.82,1.21-2.62,1.29-3.85.43-7.05-2.06-10.74-2.52a2.64,2.64,0,0,0-2.11.34,2.59,2.59,0,0,0-.58,2,22.39,22.39,0,0,0,0,2.59,5.11,5.11,0,0,0,.59,2.14c1.67,2.77,7.22,3.24,10,3.07a5.91,5.91,0,0,0,3.21-1c1.27-1,1.54-2.63,2-4.1A8,8,0,0,0,187,116.6Z" transform="translate(-2.49 -55.81)"/><path class="cls-7" d="M184.22,119.63a.76.76,0,0,0-.41-.15,37.19,37.19,0,0,1-4.2-.54,1.87,1.87,0,0,0-.71,0,1.46,1.46,0,0,0-.89,1.17,1,1,0,0,0,.61,1.12,6.56,6.56,0,0,0,2.7.59,3.93,3.93,0,0,0,2.53-.45C184.22,121.1,184.78,120,184.22,119.63Z" transform="translate(-2.49 -55.81)"/><path class="cls-11" d="M167.27,221.35c-44.83-2.34-70.93,20.79-89.46,62.93C53.75,339,20.13,343.34,5,343" transform="translate(-2.49 -55.81)"/><path class="cls-12" d="M150.07,225c1.65,19.78,17.61,30.46,30.41,29.4l21-1.75-5.29-63.43-21,1.75C162.4,192,148.42,205.23,150.07,225Z" transform="translate(-2.49 -55.81)"/><path class="cls-13" d="M160.89,224.1c1.61,19.33,14.36,34,28.48,32.86L212.52,255l-5.84-70L183.53,187C169.41,188.16,159.28,204.78,160.89,224.1Z" transform="translate(-2.49 -55.81)"/><ellipse class="cls-15" cx="207.93" cy="220.17" rx="25.65" ry="35.11" transform="translate(-20.07 -37.77) rotate(-4.77)"/><path class="cls-12" d="M206.85,232.76c.24,2.87,2.4,5,4.82,4.83s4.19-2.69,4-5.57-2.4-5-4.82-4.83S206.61,229.88,206.85,232.76Z" transform="translate(-2.49 -55.81)"/><path class="cls-12" d="M204.78,208c.24,2.87,2.4,5,4.82,4.83s4.19-2.69,4-5.57-2.4-5-4.82-4.83S204.54,205.08,204.78,208Z" transform="translate(-2.49 -55.81)"/><path class="cls-18" d="M209.89,211.21l32.73-2.73a3.65,3.65,0,0,0,3.31-3.95h0a3.64,3.64,0,0,0-3.92-3.35l-32.73,2.73C206.77,204.11,207.25,211.43,209.89,211.21Z" transform="translate(-2.49 -55.81)"/><path class="cls-18" d="M212,236l32.73-2.73a3.65,3.65,0,0,0,3.31-3.95h0a3.64,3.64,0,0,0-3.92-3.35l-32.73,2.73C208.84,228.91,209.32,236.23,212,236Z" transform="translate(-2.49 -55.81)"/><path class="cls-7" d="M131.32,164.35s-1.63,16.59,5.79,30.38c6.34,11.79,18.94,27.06,29.12,35.47l2.44-.6C165.13,216,154,191.87,153.25,182.82s-.53-19.54-.7-24.58" transform="translate(-2.49 -55.81)"/><path class="cls-9" d="M162.55,126.45s-14.38.83-22.66,7.08c-14.3,10.8-11.5,39.82-7.33,54s24.19,35.47,30.66,40.06c1.06,0,4.18-.26,4.06-2.7-3.58-11.06-13.78-40.15-13.78-40.15l1.61-39.25" transform="translate(-2.49 -55.81)"/><path class="cls-7" d="M167.68,227.59a8.62,8.62,0,0,1,4.36,1.93c1.2.93,2.67,2.5,2.51,3.21s-2.12-.69-2.36-.4,3.36,5.72,2.68,6.13-3.73-4.51-3.73-4.51,3,5.25,1.82,5.37c-1,.1-3.59-4.88-3.59-4.88s2.23,4.44,1.47,4.61-2.83-4.26-2.83-4.26,1.68,3.78,1,3.85c-.33,0-2-1.85-2.68-4.13s-1.48-4.19-.86-5.94" transform="translate(-2.49 -55.81)"/><path class="cls-10" d="M157.54,196.29c-2.29-6.6-4-11.56-4-11.56l3-32.94" transform="translate(-2.49 -55.81)"/><path class="cls-10" d="M129.27,159.79c-.08,8.93,1,19.94,3.28,27.74,2,6.83,7.68,15.3,13.76,22.76" transform="translate(-2.49 -55.81)"/><path class="cls-7" d="M436.91,111.28l2.31-1.58s1.07-5,1.66-5.93a14.13,14.13,0,0,1,3.17-3.84c.56-.38,3.14-1.84,3.79-1.19.32.32-.77,3.23-1.26,3.73s-2,2.73-1.74,3.43,1.45-.83,1.74-1.12.68-.65.81-.27c.23.62-1.07,4.13-2.09,5.14a6.55,6.55,0,0,1-3.82,2l-3.59,3.17" transform="translate(-2.49 -55.81)"/><path class="cls-5" d="M464.76,94.71c3.82,2.25,6.19,6.5,7.11,10.75a4.43,4.43,0,0,0,.83,2.16,4.7,4.7,0,0,0,1.58.95A13,13,0,0,1,481,116.2c.48,1.41.1,3.39.66,4.59.68,1.47,3.18,1.8,4.52,2.25a10.24,10.24,0,0,1,.2,19.37,6.31,6.31,0,0,1,.73,5.31,12.46,12.46,0,0,1-2.8,4.73,26.14,26.14,0,0,1-20.5,8.46,19.09,19.09,0,0,1-6.44-1.29,25.82,25.82,0,0,1-6.28-4c-2.35-1.88-4.69-3.94-5.95-6.67s-1.18-6.3,1-8.41a6.51,6.51,0,0,1-6.51-2.94,9.54,9.54,0,0,1-1.09-7.3,18.16,18.16,0,0,1,3.37-6.73c1.06-1.42,2.29-2.86,2.51-4.62.38-2.94-1.26-5.57-1.69-8.49-.66-4.55-.46-8.46,3.44-10.88,1.25-3.24,2.76-5.74,6.35-6.7A15.78,15.78,0,0,1,464.76,94.71Z" transform="translate(-2.49 -55.81)"/><path class="cls-19" d="M455.39,129.29c-13-3.4-27.87,2-31.18,2,4.54-4.54,12.87-14.65,15.75-18.14,0-2.4-1.46-3.07-1.46-3.07s-35.64,18.43-32.06,30.47c3.74,12.56,38.66,6.4,41.45,10" transform="translate(-2.49 -55.81)"/><path class="cls-7" d="M457.94,246.26c0,1.06-4.69,23.95-5,26.4-1,7.15,2.78,14.32,2.41,25.41-.45,13.48-6.18,49.7-6.91,51.31s-4.22.13-4.22.13S434.1,300.92,433.54,281c-.47-16.38,1.91-51.83,1.91-51.83" transform="translate(-2.49 -55.81)"/><path class="cls-5" d="M448.77,350a5.76,5.76,0,0,1,.56,1.79c-.07,1.51-.12,2.54-.12,2.54l-.66,0-.23-1.23a10.59,10.59,0,0,0-3.52,1.47c-.86.56-5.18.51-5.84.16a.87.87,0,0,1-.28-1.39c.25-.29,4.92-2.33,4.92-2.33" transform="translate(-2.49 -55.81)"/><path class="cls-7" d="M444.19,349.51c-.38.91-4.07,2.92-3.73,3.19s2.49.28,4.87-.51c2.17-.72,3.4-1.53,3.47-2.1l-.41-1.53" transform="translate(-2.49 -55.81)"/><path class="cls-7" d="M490.28,247.21c0,1.06-4,24.08-4.23,26.54-.78,7.18,3.22,14.23,3.19,25.32,0,13.49-4.66,49.87-5.34,51.5s-4.22.26-4.22.26S468.13,302.57,467,282.71c-1-16.36.33-51.86.33-51.86" transform="translate(-2.49 -55.81)"/><path class="cls-5" d="M484.27,351.18a5.86,5.86,0,0,1,.61,1.77c0,1.51-.05,2.54-.05,2.54l-.65.06-.26-1.22a10.45,10.45,0,0,0-3.47,1.58c-.84.59-5.16.67-5.84.34a.87.87,0,0,1-.32-1.38c.24-.3,4.85-2.48,4.85-2.48" transform="translate(-2.49 -55.81)"/><path class="cls-7" d="M479.68,350.83c-.35.92-4,3.05-3.63,3.31s2.49.21,4.85-.66c2.15-.79,3.35-1.63,3.4-2.2l-.46-1.51" transform="translate(-2.49 -55.81)"/><path class="cls-20" d="M478.53,188.36s10.33,6.76,14.26,23c5.31,21.88-2.51,64.73-2.51,64.73a132,132,0,0,1-33.77,4.58c-17.59-.15-28-6.09-28.05-7.16s-2.62-33.5,1-55.51c4-24.7,14.23-31.36,14.23-31.36" transform="translate(-2.49 -55.81)"/><path class="cls-19" d="M464.53,128.87c1.6-.6,5.75.86,13.53,3.84,3.42,3.7,4.91,11.79,5.65,19-2,17.45-4.27,27-3.18,32.86.26,1.39,1.54,2.45,1.33,4.4-.42,4-7,4.63-19.52,6s-23.77-4.26-23.09-6,2.81-3.33,3.15-4.5,1.36-16.12,0-17.9-4.84-6.88-4.84-11.85c0-7,3.85-10.14,6.37-14,4.2-6.41,7.39-10.43,11.46-11.43C461.9,127.68,464.53,128.87,464.53,128.87Z" transform="translate(-2.49 -55.81)"/><path class="cls-21" d="M443.48,137.72a9.08,9.08,0,0,1-1.08,5.51c-.47.77-3.31,3.66-3.87,5.51" transform="translate(-2.49 -55.81)"/><path class="cls-7" d="M461.53,120.36c3.41-3.39,4-9.83,2.4-14.17-1.75-4.9-8.72-8.56-13.53-5.5C441,106.7,450.55,131.27,461.53,120.36Z" transform="translate(-2.49 -55.81)"/><path class="cls-7" d="M455,119.76l.18,10.47s-.39,2.33,3.7,2.47c5.61.2,5.61-3.83,5.61-3.83l-3.25-10.79" transform="translate(-2.49 -55.81)"/><path class="cls-5" d="M459.28,96.06A3.2,3.2,0,0,0,455.7,96a22.46,22.46,0,0,1-2,1.5,10.88,10.88,0,0,1-1.79.44,10.19,10.19,0,0,0-6.45,5.41c-1.15,2.61-.78,6.85,1.37,8.71a13,13,0,0,1,1.59-6.62,2.9,2.9,0,0,1,2.51-1.66c1.18.13,1.82,1.4,2.68,2.23,1.29,1.26,3.15,1.51,4.85,1.77,1.93.29,3.42.63,4.37,2.52a12.56,12.56,0,0,1,.86,2.62,17.71,17.71,0,0,1,.59,3.22,8,8,0,0,0,.21,2,4.51,4.51,0,0,0,3,2.51c1,.33,2.66.64,3.28-.48a11.21,11.21,0,0,0,1.14-3.31,14.85,14.85,0,0,0-2.42-10.18c-2.08-3.31-5.05-5.53-7.72-8.29A16.27,16.27,0,0,0,459.28,96.06Z" transform="translate(-2.49 -55.81)"/><path class="cls-7" d="M461.91,112.18a2.25,2.25,0,0,1,1.62-1.74c2.67-.4,2.26,3.58,1.23,5-.6.81-2.15,1.88-2.85-.38" transform="translate(-2.49 -55.81)"/><path class="cls-7" d="M490.2,193.7l-1.26,2.68s-4.73,1.13-5.23,2c-.79,1.32-2,3.14-2,4.17s.1,5.58,1.4,5.58c.81,0,2.72-3.71,3.11-4.23.93-1.22,4.67-2.11,4.67-5.34l2.29-4.83" transform="translate(-2.49 -55.81)"/><path class="cls-19" d="M464.53,128.73s11.05-2.81,19.68,2.63c6.71,4.23,24,25.29,24,37.35C508.18,176.84,492,197,492,197l-2.68-1.92s1.56-15.83,6.25-24.55c-3.46-3.46-16.95-14.21-20.34-17.6" transform="translate(-2.49 -55.81)"/><path class="cls-21" d="M473.51,151.81c2.41,2.14,8.77,7.26,8.77,7.26" transform="translate(-2.49 -55.81)"/><path class="cls-1" d="M147.85,110.08,134.5,99.33s6-22.16-1.94-29.9a43.3,43.3,0,0,0-15.09-9C105.19,55.75,90.52,54.69,79.58,62c-8.07,5.36-13,14.54-15.18,24-1.93,8.31-1.77,17.75,3.42,24.52a26.63,26.63,0,0,0,8.92,7.1c10.56,5.53,38.49,7.62,50.6-.5,3.36-2.25,3.06-5.29,4.47-10Z" transform="translate(-2.49 -55.81)"/><path class="cls-5" d="M77.65,90.89V82.18h2.19V90.8c0,3.4,1.56,4.93,4.32,4.93s4.33-1.53,4.33-4.93V82.18h2.12v8.71c0,4.44-2.43,6.79-6.48,6.79S77.65,95.33,77.65,90.89Z" transform="translate(-2.49 -55.81)"/><path class="cls-5" d="M106.82,91.7A5.63,5.63,0,0,1,101,97.63a5,5,0,0,1-4.06-1.88v6H94.8V85.9h2v1.84A4.92,4.92,0,0,1,101,85.79,5.63,5.63,0,0,1,106.82,91.7Zm-2.12,0a3.91,3.91,0,1,0-3.92,4.09A3.84,3.84,0,0,0,104.7,91.7Z" transform="translate(-2.49 -55.81)"/><path class="cls-5" d="M108.27,96.28l.88-1.67a7.44,7.44,0,0,0,4.07,1.21c2,0,2.76-.6,2.76-1.58,0-2.61-7.33-.35-7.33-5,0-2.08,1.86-3.48,4.83-3.48a8.41,8.41,0,0,1,4.23,1l-.9,1.66a6,6,0,0,0-3.35-.92c-1.84,0-2.73.68-2.73,1.6,0,2.74,7.35.5,7.35,5,0,2.1-1.92,3.43-5,3.43A8.45,8.45,0,0,1,108.27,96.28Z" transform="translate(-2.49 -55.81)"/><path class="cls-5" d="M120.23,96.23a1.4,1.4,0,0,1,1.45-1.4,1.4,1.4,0,0,1,0,2.8A1.41,1.41,0,0,1,120.23,96.23Zm.2-14h2.47l-.41,10.48h-1.67Z" transform="translate(-2.49 -55.81)"/></svg>