<svg xmlns="http://www.w3.org/2000/svg" xmlns:xlink="http://www.w3.org/1999/xlink" width="111.35" height="19" viewBox="0 0 111.35 19">
  <defs>
    <clipPath id="clip-path">
      <rect id="Rectángulo_270" data-name="Rectángulo 270" width="111.35" height="19" fill="none"/>
    </clipPath>
  </defs>
  <g id="Grupo_3236" data-name="Grupo 3236" transform="translate(0 0)">
    <g id="Grupo_78" data-name="Grupo 78" transform="translate(0 0.001)" clip-path="url(#clip-path)">
      <path id="Trazado_442" data-name="Trazado 442" d="M21.384,3.514a8.745,8.745,0,0,1-2.52.69,4.4,4.4,0,0,0,1.93-2.426,8.776,8.776,0,0,1-2.786,1.064,4.391,4.391,0,0,0-7.476,4A12.454,12.454,0,0,1,1.488,2.26,4.391,4.391,0,0,0,2.846,8.117,4.365,4.365,0,0,1,.859,7.568c0,.018,0,.037,0,.055a4.39,4.39,0,0,0,3.519,4.3,4.373,4.373,0,0,1-1.156.154A4.424,4.424,0,0,1,2.4,12a4.392,4.392,0,0,0,4.1,3.046,8.8,8.8,0,0,1-5.449,1.878A8.761,8.761,0,0,1,0,16.864a12.409,12.409,0,0,0,6.724,1.972A12.4,12.4,0,0,0,19.207,6.353c0-.19,0-.38-.013-.567a8.907,8.907,0,0,0,2.189-2.271" transform="translate(0 -0.473)" fill="#fff"/>
      <path id="Trazado_443" data-name="Trazado 443" d="M150.674.326h-8.426A5.177,5.177,0,0,0,137.071,5.5v8.427a5.177,5.177,0,0,0,5.177,5.177h8.426a5.177,5.177,0,0,0,5.177-5.177V5.5A5.177,5.177,0,0,0,150.674.326m3.66,13.582a3.681,3.681,0,0,1-3.681,3.681H142.27a3.681,3.681,0,0,1-3.681-3.681V5.524a3.681,3.681,0,0,1,3.681-3.681h8.383a3.681,3.681,0,0,1,3.681,3.681Z" transform="translate(-44.502 -0.106)" fill="#fff"/>
      <path id="Trazado_444" data-name="Trazado 444" d="M148.6,6.9a4.949,4.949,0,1,0,4.95,4.95A4.95,4.95,0,0,0,148.6,6.9m0,8.178a3.228,3.228,0,1,1,3.228-3.228,3.228,3.228,0,0,1-3.228,3.228" transform="translate(-46.637 -2.241)" fill="#fff"/>
      <path id="Trazado_445" data-name="Trazado 445" d="M159.13,6.124a1.11,1.11,0,1,1-1.11-1.11,1.11,1.11,0,0,1,1.11,1.11" transform="translate(-50.942 -1.628)" fill="#fff"/>
      <path id="Trazado_446" data-name="Trazado 446" d="M67.771,10.551V17.01H64.027V10.985c0-1.513-.54-2.547-1.9-2.547a2.048,2.048,0,0,0-1.921,1.37,2.56,2.56,0,0,0-.124.912V17.01H56.341s.051-10.2,0-11.261h3.745v1.6c-.007.013-.018.025-.025.037h.025V7.344a3.718,3.718,0,0,1,3.375-1.861c2.464,0,4.311,1.61,4.311,5.068M50.528,17.01h3.743V5.748H50.528ZM54.383,1.927A1.927,1.927,0,1,1,52.455,0a1.928,1.928,0,0,1,1.927,1.927" transform="translate(-16.404 0)" fill="#fff"/>
      <path id="Trazado_447" data-name="Trazado 447" d="M111.669,7.211a3.056,3.056,0,0,0-3.057-3.057H94.275a3.056,3.056,0,0,0-3.057,3.057v8.2a3.057,3.057,0,0,0,3.057,3.058h14.337a3.057,3.057,0,0,0,3.057-3.058ZM99.4,14.77v-7.7l5.841,3.85Z" transform="translate(-29.615 -1.349)" fill="#fff" fill-rule="evenodd"/>
    </g>
  </g>
</svg>
