<svg xmlns="http://www.w3.org/2000/svg" width="809.676" height="462.578" viewBox="0 0 809.676 462.578">
  <g id="Grupo_418" data-name="Grupo 418" transform="translate(11894 16139)">
    <g id="working-login" transform="translate(-11894 -16139)">
      <rect id="Rectángulo_75" data-name="Rectángulo 75" width="7.327" height="92.965" transform="translate(251.508 401.336) rotate(-55.841)" fill="#b4b4b4"/>
      <rect id="Rectángulo_76" data-name="Rectángulo 76" width="92.965" height="7.327" transform="translate(149.855 447.476) rotate(-34.159)" fill="#b4b4b4"/>
      <rect id="Rectángulo_77" data-name="Rectángulo 77" width="7.326" height="52.2" transform="translate(237.079 398.304)" fill="#b4b4b4"/>
      <path id="Trazado_120" data-name="Trazado 120" d="M328.25,429.039v-130a7,7,0,0,1,14,0v130a7,7,0,1,1-14,0Z" transform="translate(-195.162 -218.711)" fill="#f0f0f0"/>
      <path id="Trazado_121" data-name="Trazado 121" d="M311.5,429.039v-130a7,7,0,0,1,14,0v130a7,7,0,1,1-14,0Z" transform="translate(-195.162 -218.711)" fill="#f0f0f0"/>
      <path id="Trazado_122" data-name="Trazado 122" d="M294.75,429.039v-130a7,7,0,0,1,14,0v130a7,7,0,1,1-14,0Z" transform="translate(-195.162 -218.711)" fill="#f0f0f0"/>
      <path id="Trazado_123" data-name="Trazado 123" d="M927.154,636.675a24.44,24.44,0,0,1-8.27-1.436l-.409-.147.188-.905c-4.752-9.6-3.091-22.753,4.253-33.567,6.677-9.831,16.829-16.979,25.786-23.284a6.967,6.967,0,0,1,10.848,7.029l-3.2,16.434c-2.312,11.856-5.062,23.076-13.217,30.073a24.9,24.9,0,0,1-15.976,5.8Z" transform="translate(-195.162 -218.711)" fill="#e6e6e6"/>
      <path id="Trazado_124" data-name="Trazado 124" d="M948.131,665.072a18.621,18.621,0,0,1-15.563-8.565l-.232-.361.554-.488c1.433-7.818,8.173-14.784,17.223-17.78,8.226-2.723,17.306-2.277,25.312-1.886h0a5.349,5.349,0,0,1,3.323,9.314l-9.008,8.131c-6.546,5.907-13.074,11.241-20.949,11.623Q948.459,665.073,948.131,665.072Z" transform="translate(-195.162 -218.711)" fill="#e6e6e6"/>
      <path id="Trazado_125" data-name="Trazado 125" d="M920.176,673.764c-1.33-9.905-2.7-19.938-1.765-29.949.829-8.891,3.482-17.576,8.884-24.7a40.518,40.518,0,0,1,10.311-9.551c1.031-.665,1.98,1.005.953,1.667a38.871,38.871,0,0,0-15.112,18.64c-3.29,8.555-3.819,17.88-3.252,26.968.343,5.5,1.07,10.955,1.8,16.408a1,1,0,0,1-.66,1.188.948.948,0,0,1-1.162-.674Z" transform="translate(-195.162 -218.711)" fill="#f2f2f2"/>
      <path id="Trazado_126" data-name="Trazado 126" d="M916.416,679.458c6.4-11.581,13.829-24.453,27.1-28.567a29.612,29.612,0,0,1,11.4-1.2c1.21.107.908,2.014-.3,1.907a27.633,27.633,0,0,0-18.19,4.919c-5.129,3.569-9.122,8.531-12.5,13.792-2.07,3.223-3.925,6.582-5.78,9.938-.593,1.072-2.325.3-1.726-.786Z" transform="translate(-195.162 -218.711)" fill="#f2f2f2"/>
      <path id="Trazado_127" data-name="Trazado 127" d="M913.535,679.289l6.465.148L881.02,471.2l-6.465,1.218,10.179,54.02H851.94l10.179-54.02-6.464-1.218L817,679.437l6.139-.148,20.322-107.852h49.752ZM844.969,563.437l5.464-29h35.808l5.464,29Z" transform="translate(-195.162 -218.711)" fill="#cecece"/>
      <path id="Trazado_128" data-name="Trazado 128" d="M631.25,432.356V363.97c0-2.03,3.14-3.682,7-3.682s7,1.652,7,3.682v68.385c0,2.03-3.14,3.682-7,3.682S631.25,434.386,631.25,432.356Z" transform="translate(-195.162 -218.711)" fill="#f0f0f0"/>
      <path id="Trazado_129" data-name="Trazado 129" d="M614.5,432.356V363.97c0-2.03,3.14-3.682,7-3.682s7,1.652,7,3.682v68.385c0,2.03-3.14,3.682-7,3.682S614.5,434.386,614.5,432.356Z" transform="translate(-195.162 -218.711)" fill="#f0f0f0"/>
      <path id="Trazado_130" data-name="Trazado 130" d="M597.75,432.356V363.97c0-2.03,3.14-3.682,7-3.682s7,1.652,7,3.682v68.385c0,2.03-3.14,3.682-7,3.682S597.75,434.386,597.75,432.356Z" transform="translate(-195.162 -218.711)" fill="#f0f0f0"/>
      <path id="Trazado_131" data-name="Trazado 131" d="M738.664,382.065a1.5,1.5,0,0,0-.656-1.028L685.235,346.2a3.955,3.955,0,0,0,1.894-1.659h0a4.012,4.012,0,0,0-1.464-5.464l-4.33-2.5a4.011,4.011,0,0,0-5.464,1.464,3.94,3.94,0,0,0-.507,1.643l-38.094-25.148A23.059,23.059,0,0,0,623,301.377V290.289H609v11.088a23.007,23.007,0,0,0-16,21.912v3h14a9,9,0,0,0,18,0h14v-3a23.13,23.13,0,0,0-.4-4.286l96.369,63.62-40.031,48.67c-.311,0-.62,0-.933,0-3.194,0-6.289.076-9.237.206a3.958,3.958,0,0,0,.228-1.544,4.012,4.012,0,0,0-4.2-3.786l-4.993.26a4.012,4.012,0,0,0-3.787,4.2,3.932,3.932,0,0,0,.542,1.772c-8.829.938-14.551,2.232-14.551,2.89,0,1.078,15.363.052,34.592,0a1.495,1.495,0,0,0,2.566.45l.371-.45c19.172.053,34.471,1.073,34.471,0,0-1.015-13.6-3.538-31.226-3.943l39.566-48.1a1.5,1.5,0,0,0,.324-1.177Z" transform="translate(-195.162 -218.711)" fill="#e4e4e4"/>
      <path id="Trazado_132" data-name="Trazado 132" d="M740.107,679.789H616.892A9.4,9.4,0,0,1,607.5,670.4V468.181a8.4,8.4,0,0,0-8.392-8.392H310.892a8.4,8.4,0,0,0-8.392,8.392V670.4a9.4,9.4,0,0,1-9.392,9.393h-4.216A9.4,9.4,0,0,1,279.5,670.4V457.289a22.525,22.525,0,0,1,22.5-22.5H727a22.525,22.525,0,0,1,22.5,22.5V670.4a9.4,9.4,0,0,1-9.393,9.393Z" transform="translate(-195.162 -218.711)" fill="#e4e4e4"/>
      <rect id="Rectángulo_72" data-name="Rectángulo 72" width="141" height="6" transform="translate(412.838 268.577)" fill="#fff"/>
      <rect id="Rectángulo_73" data-name="Rectángulo 73" width="141" height="6" transform="translate(412.838 349.577)" fill="#fff"/>
      <path id="Trazado_133" data-name="Trazado 133" d="M491.284,433.8l-4.052-1.706-2.78-20.315H447.431l-3.013,20.232-3.626,1.813a.861.861,0,0,0,.385,1.631H490.95a.861.861,0,0,0,.334-1.654Z" transform="translate(-195.162 -218.711)" fill="#e6e6e6"/>
      <path id="Trazado_134" data-name="Trazado 134" d="M557.071,414.483H375.217a3.6,3.6,0,0,1-3.595-3.6V385.236H560.666V410.88a3.6,3.6,0,0,1-3.6,3.6Z" transform="translate(-195.162 -218.711)" fill="#ccc"/>
      <path id="Trazado_135" data-name="Trazado 135" d="M560.856,397.356h-189.4V287.632a4.348,4.348,0,0,1,4.343-4.343H556.513a4.348,4.348,0,0,1,4.343,4.343Z" transform="translate(-195.162 -218.711)" fill="#fff"/>
      <path id="Trazado_136" data-name="Trazado 136" d="M549.544,389.392H382.769a3.352,3.352,0,0,1-3.348-3.348V294.6a3.352,3.352,0,0,1,3.348-3.348H549.544a3.352,3.352,0,0,1,3.348,3.348v91.443a3.352,3.352,0,0,1-3.348,3.348Z" transform="translate(-195.162 -218.711)" fill="#0079be"/>
      <path id="Trazado_137" data-name="Trazado 137" d="M736.5,301.75a11.025,11.025,0,0,1,12.591,11.281l36.565,14.074-16.566,11.836-32.183-15.18a11.085,11.085,0,0,1-.407-22.012Z" transform="translate(-195.162 -218.711)" fill="#fbe4c7"/>
      <path id="Trazado_138" data-name="Trazado 138" d="M875.339,294.841l6.186,11.247A32.3,32.3,0,0,1,870.562,324.3c-9.471,7.988-58.992,37.737-58.992,37.737L749.053,330.65l10.937-14.533,49.082,16.449h0a160.766,160.766,0,0,1,64.164-37.094Z" transform="translate(-195.162 -218.711)" fill="#e4e4e4"/>
      <ellipse id="Elipse_16" data-name="Elipse 16" cx="48.791" cy="15.898" rx="48.791" ry="15.898" transform="translate(619.883 230.438)" fill="#b4b4b4"/>
      <path id="Trazado_139" data-name="Trazado 139" d="M559.217,447.105l-12.956-3.581,7.648-51.678,19.122,5.287Z" fill="#fbe4c7"/>
      <path id="Trazado_140" data-name="Trazado 140" d="M754.212,679.289l-41.776-11.548.146-.528a16.871,16.871,0,0,1,20.755-11.766h0l25.515,7.053Z" transform="translate(-195.162 -218.711)" fill="#1d2345"/>
      <path id="Trazado_141" data-name="Trazado 141" d="M521.653,447.273l-12.3-5.43,15.092-50.012,18.148,8.013Z" fill="#fbe4c7"/>
      <path id="Trazado_142" data-name="Trazado 142" d="M714.688,679.289l-39.649-17.508.221-.5a16.871,16.871,0,0,1,22.246-8.619h0l24.216,10.693Z" transform="translate(-195.162 -218.711)" fill="#1d2345"/>
      <path id="Trazado_143" data-name="Trazado 143" d="M901.809,426.178s6.517,20.193-33.471,45.73l-51.5,51.319L763.324,651.233l-31.77-14.243,6.231-16.632,4.181-11.16,2.139-5.71,2.293-6.121,34.011-90.786,28.57-50.023.829-27.143,7.027-19.134,50.983-18.091Z" transform="translate(-195.162 -218.711)" fill="#5d5c5c"/>
      <path id="Trazado_144" data-name="Trazado 144" d="M875.809,427.178s6.517,20.193-33.471,45.73l-51.5,51.319L737.324,652.233l-31.77-14.243,6.231-16.632,4.181-11.16,2.139-5.71,2.293-6.121,34.011-90.786,9.566-16.749a305.079,305.079,0,0,1,45.647-60.815L819,420.322l1-15,21.82-12.133Z" transform="translate(-195.162 -218.711)" fill="#5d5c5c"/>
      <path id="Trazado_145" data-name="Trazado 145" d="M845,328.322l16-34,27.922-3.809s21.8,27.778,16.078,66.809c-2.147,14.637-3.9,29.209-4,42-.028,3.4,2.95,4.923,3,8,.049,3.023-5.643,7.946-4,10a17.53,17.53,0,0,1,4,10c-1.981,4.716-61.956-20.834-87.164-17.042Z" transform="translate(-195.162 -218.711)" fill="#e4e4e4"/>
      <circle id="Elipse_17" data-name="Elipse 17" cx="25.255" cy="25.255" r="25.255" transform="matrix(0.511, -0.86, 0.86, 0.511, 633.174, 50.588)" fill="#fbe4c7"/>
      <path id="Trazado_146" data-name="Trazado 146" d="M879.095,251.424c-.048.665-.115,1.545-.192,2.54a13.19,13.19,0,0,0,2.2,7.68c1.413,2.389-.273,16.821-.273,16.821,41.368-28.836,8.681-57.807-4.1-55.232.267-3.667-10.161-2.214-10.161-2.214-3.973-6.188-12.682,2.026-12.682,2.026l1.68-2.827c-6.761,1.72-13.443,22.615-13.443,22.615C844.411,251.848,879.362,247.757,879.095,251.424Z" transform="translate(-195.162 -218.711)" fill="#705412"/>
      <path id="Trazado_147" data-name="Trazado 147" d="M718.615,341.7a231.855,231.855,0,0,0,33.323-62.191,5.955,5.955,0,0,0-2.812-7.169l-48.645-26.065a5.878,5.878,0,0,0-5.157-.209,5.978,5.978,0,0,0-3.407,3.992,141.635,141.635,0,0,1-31.067,57.982,5.976,5.976,0,0,0-1.437,5.047,5.878,5.878,0,0,0,3.03,4.177l48.645,26.065a5.955,5.955,0,0,0,7.526-1.629Z" transform="translate(-195.162 -218.711)" fill="#fc882e"/>
      <path id="Trazado_148" data-name="Trazado 148" d="M715.3,339.2a1.8,1.8,0,0,1-2.245.464L664.405,313.6a1.724,1.724,0,0,1-.9-1.242,1.825,1.825,0,0,1,.45-1.561,145.8,145.8,0,0,0,31.983-59.69,1.825,1.825,0,0,1,1.049-1.239,1.726,1.726,0,0,1,1.537.064L747.165,276a1.8,1.8,0,0,1,.858,2.128A227.7,227.7,0,0,1,715.3,339.2Z" transform="translate(-195.162 -218.711)" fill="#fff"/>
      <path id="Trazado_149" data-name="Trazado 149" d="M698.277,274.7l33.552,19.666c3.338,1.957,6.361-3.227,3.028-5.181L701.3,269.516c-3.338-1.957-6.361,3.227-3.028,5.181Z" transform="translate(-195.162 -218.711)" fill="#fff"/>
      <path id="Trazado_150" data-name="Trazado 150" d="M692.277,285.7l33.552,19.666c3.338,1.957,6.361-3.227,3.028-5.181L695.3,280.516c-3.338-1.957-6.361,3.227-3.028,5.181Z" transform="translate(-195.162 -218.711)" fill="#fff"/>
      <path id="Trazado_151" data-name="Trazado 151" d="M685.277,297.7l33.552,19.666c3.338,1.957,6.361-3.227,3.028-5.181L688.3,292.516c-3.338-1.957-6.361,3.227-3.028,5.181Z" transform="translate(-195.162 -218.711)" fill="#fff"/>
      <path id="Trazado_152" data-name="Trazado 152" d="M678.277,307.7l33.552,19.666c3.338,1.957,6.361-3.227,3.028-5.181L681.3,302.516c-3.338-1.957-6.361,3.227-3.028,5.181Z" transform="translate(-195.162 -218.711)" fill="#fff"/>
      <path id="Trazado_153" data-name="Trazado 153" d="M831.232,423.375l12.6,28.326a4.5,4.5,0,0,1-4.859,6.263,4.127,4.127,0,0,1-.868-.232,4.512,4.512,0,0,1-2.5-2.374l-12.6-28.326a4.5,4.5,0,0,1,8.224-3.657Z" transform="translate(-195.162 -218.711)" fill="#fff"/>
      <path id="Trazado_154" data-name="Trazado 154" d="M842.812,449.416l2.524,5.717,1.29,8.1a2.451,2.451,0,0,1-4.329,1.925l-5.222-6.5-2.487-5.592Z" transform="translate(-195.162 -218.711)" fill="#0079be"/>
      <path id="Trazado_155" data-name="Trazado 155" d="M820.209,415.495l1.805,11.34a2.452,2.452,0,0,0,3.419,1.856l1.789-.8,3.454,7.767a1,1,0,1,0,1.827-.813l-3.454-7.767,1.79-.8a2.447,2.447,0,0,0,.912-3.781l-7.212-8.936a2.453,2.453,0,0,0-4.33,1.926Z" transform="translate(-195.162 -218.711)" fill="#fc882e"/>
      <path id="Trazado_156" data-name="Trazado 156" d="M825.434,435.963a11.025,11.025,0,0,1,14.671-8.4l24.866-30.278,6.021,19.449L846.456,442.5a11.085,11.085,0,0,1-21.022-6.54Z" transform="translate(-195.162 -218.711)" fill="#fbe4c7"/>
      <path id="Trazado_157" data-name="Trazado 157" d="M856.739,433.995l-10.952-15.819,31.1-41.465-16.021-34.33,1.167-40.835,13.239-2.446.164.082a32.538,32.538,0,0,1,14.1,16.423c3.3,8.256,10.675,39.25,14.776,56.99a20.679,20.679,0,0,1-5.56,19.389Z" transform="translate(-195.162 -218.711)" fill="#e4e4e4"/>
      <path id="Trazado_158" data-name="Trazado 158" d="M548.376,357.557a14.729,14.729,0,0,0-.091,2.316l-56.073,40.794-15.4-6.818-13.327,21.9,26.1,14.719a11.186,11.186,0,0,0,13.311-1.741l56.435-55.123a14.677,14.677,0,1,0-10.949-16.051Z" transform="translate(-195.162 -218.711)" fill="#ffb6b6"/>
      <path id="Trazado_159" data-name="Trazado 159" d="M490.4,402.158l-16.352,27.248a6.292,6.292,0,0,1-9.388,1.625l-24.483-20.107a17.474,17.474,0,0,1,18.071-29.913l29.169,12.1a6.292,6.292,0,0,1,2.983,9.049Z" transform="translate(-195.162 -218.711)" fill="#fff"/>
      <rect id="Rectángulo_74" data-name="Rectángulo 74" width="32.052" height="53.116" transform="translate(257.227 420.283) rotate(180)" fill="#cecece"/>
      <circle id="Elipse_18" data-name="Elipse 18" cx="10.074" cy="10.074" r="10.074" transform="translate(320.415 440.43)" fill="#cacaca"/>
      <circle id="Elipse_19" data-name="Elipse 19" cx="10.074" cy="10.074" r="10.074" transform="translate(230.668 440.43)" fill="#5d5c5c"/>
      <circle id="Elipse_20" data-name="Elipse 20" cx="10.074" cy="10.074" r="10.074" transform="translate(141.837 440.43)" fill="#5d5c5c"/>
      <rect id="Rectángulo_78" data-name="Rectángulo 78" width="13.737" height="70.515" transform="translate(248.069 390.978) rotate(180)" fill="#cecece"/>
      <path id="Trazado_160" data-name="Trazado 160" d="M396.984,550.163V533.679a11.46,11.46,0,0,1,11.447-11.447h61.358a11.46,11.46,0,0,1,11.447,11.447v16.484a11.46,11.46,0,0,1-11.447,11.447H408.431A11.46,11.46,0,0,1,396.984,550.163Z" transform="translate(-195.162 -218.711)" fill="#b4b4b4"/>
      <path id="Trazado_161" data-name="Trazado 161" d="M312.641,444.129h16.968l8.074-44.011H312.639Z" fill="#ffb8b8"/>
      <path id="Trazado_162" data-name="Trazado 162" d="M503.476,679.289l54.715,0v-.692a21.3,21.3,0,0,0-21.3-21.3h-33.42Z" transform="translate(-195.162 -218.711)"/>
      <path id="Trazado_163" data-name="Trazado 163" d="M533.183,635.548l33.829-75.86A27.8,27.8,0,0,0,554.806,524l-73.377-39.347L447.946,481.8,417.06,479l-.223.377c-.285.481-6.926,11.952-2.437,24.529,3.4,9.54,12.262,16.992,26.324,22.149,32.824,12.035,70.741,22.322,85.52,26.185a4.776,4.776,0,0,1,3.061,2.436,4.842,4.842,0,0,1,.272,3.874l-31.429,70.61a6.228,6.228,0,0,0,5.273,8.345l23.484,1.71q.3.028.6.028A6.224,6.224,0,0,0,533.183,635.548Z" transform="translate(-195.162 -218.711)" fill="#1d2345"/>
      <path id="Trazado_164" data-name="Trazado 164" d="M301.568,444.129h16.968l8.074-44.011H301.566Z" fill="#ffb8b8"/>
      <path id="Trazado_165" data-name="Trazado 165" d="M492.4,679.289l54.715,0v-.692a21.3,21.3,0,0,0-21.3-21.3H492.4Z" transform="translate(-195.162 -218.711)" fill="#434343"/>
      <path id="Trazado_166" data-name="Trazado 166" d="M520.726,639.7l33.829-75.86a27.8,27.8,0,0,0-12.206-35.688L468.972,488.8l-33.483-2.848-24.192-2.1,0-.332c-.285.481-6.926,11.952-2.437,24.529,3.4,9.54,5.341,16.992,19.4,22.149,32.824,12.035,70.741,22.322,85.52,26.185a4.777,4.777,0,0,1,3.061,2.436,4.842,4.842,0,0,1,.272,3.874l-31.429,70.61a6.228,6.228,0,0,0,5.273,8.345l23.484,1.71q.3.028.6.028a6.224,6.224,0,0,0,5.683-3.691Z" transform="translate(-195.162 -218.711)" fill="#1d2345"/>
      <circle id="Elipse_21" data-name="Elipse 21" cx="33.995" cy="33.995" r="33.995" transform="translate(230.332 111.58) rotate(-76.623)" fill="#ffb8b8"/>
      <path id="Trazado_167" data-name="Trazado 167" d="M583.615,435.7a231.849,231.849,0,0,0,33.323-62.191,5.955,5.955,0,0,0-2.812-7.169l-48.645-26.065a5.878,5.878,0,0,0-5.157-.209,5.978,5.978,0,0,0-3.407,3.992,141.635,141.635,0,0,1-31.068,57.982,5.976,5.976,0,0,0-1.437,5.047,5.878,5.878,0,0,0,3.03,4.177l48.645,26.065a5.955,5.955,0,0,0,7.526-1.629Z" transform="translate(-195.162 -218.711)" fill="#ccc"/>
      <path id="Trazado_168" data-name="Trazado 168" d="M580.3,433.2a1.8,1.8,0,0,1-2.245.464L529.405,407.6a1.724,1.724,0,0,1-.9-1.242,1.825,1.825,0,0,1,.45-1.561,145.8,145.8,0,0,0,31.983-59.69,1.825,1.825,0,0,1,1.049-1.239,1.726,1.726,0,0,1,1.537.064L612.165,370a1.8,1.8,0,0,1,.858,2.128A227.7,227.7,0,0,1,580.3,433.2Z" transform="translate(-195.162 -218.711)" fill="#fff"/>
      <path id="Trazado_169" data-name="Trazado 169" d="M563.277,368.7l33.552,19.666c3.338,1.957,6.361-3.227,3.028-5.181L566.3,363.516c-3.338-1.957-6.361,3.227-3.028,5.181Z" transform="translate(-195.162 -218.711)" fill="#fc882e"/>
      <path id="Trazado_170" data-name="Trazado 170" d="M557.277,379.7l33.552,19.666c3.338,1.957,6.361-3.227,3.028-5.181L560.3,374.516c-3.338-1.957-6.361,3.227-3.028,5.181Z" transform="translate(-195.162 -218.711)"/>
      <path id="Trazado_171" data-name="Trazado 171" d="M552.563,390.654l30.514,18.115c3.036,1.8,6.283-1.924,3.252-3.723l-30.514-18.115c-3.036-1.8-6.283,1.924-3.252,3.723Z" transform="translate(-195.162 -218.711)"/>
      <path id="Trazado_172" data-name="Trazado 172" d="M543.277,401.7l33.552,19.666c3.338,1.957,6.361-3.227,3.028-5.181L546.3,396.516c-3.338-1.957-6.361,3.227-3.028,5.181Z" transform="translate(-195.162 -218.711)"/>
      <path id="Trazado_173" data-name="Trazado 173" d="M486.034,487.406,418.76,487l-.018-.479c-1.283-33.754,2.843-64.33,12.612-93.475.138-1.091.287-2.257.434-3.4,1.669-13.039,2.994-23.392,15.393-27.247a8.815,8.815,0,0,1-1.752-4.734,8.613,8.613,0,0,1,2.145-6.3,8.283,8.283,0,0,1,5.753-2.807l23.945-.815a5.6,5.6,0,0,1,3.477,1.179A9.559,9.559,0,0,1,483.531,361c-.282.562-.39.817-.431.929.851,4.46,3.377,9.758,6.05,15.364,3.827,8.027,8.165,17.125,9.28,26.858a49.127,49.127,0,0,1-.741,15.749,31.038,31.038,0,0,0-.342,8.453c.219,4.182.425,8.13-1.938,11.948-.6,1.035-1.292,2.139-2.1,3.361l-3.325,7.948Z" transform="translate(-195.162 -218.711)" fill="#fff"/>
      <path id="Trazado_174" data-name="Trazado 174" d="M385.079,534.642V397.18a16.914,16.914,0,0,1,16.9-16.9h4.673a16.914,16.914,0,0,1,16.9,16.9V534.642a16.914,16.914,0,0,1-16.9,16.9h-4.673a16.914,16.914,0,0,1-16.9-16.9Z" transform="translate(-195.162 -218.711)" fill="#b4b4b4"/>
      <path id="Trazado_175" data-name="Trazado 175" d="M565.483,410.9a14.709,14.709,0,0,0-1.3,1.919l-69.158,5.05-9.485-13.922L462.66,415.516l14.4,26.277a11.186,11.186,0,0,0,12.224,5.548l77.03-17.029a14.677,14.677,0,1,0-.827-19.412Z" transform="translate(-195.162 -218.711)" fill="#ffb6b6"/>
      <path id="Trazado_176" data-name="Trazado 176" d="M492.7,418.178l-28.271,14.511a6.292,6.292,0,0,1-8.831-3.575l-10.181-30a17.465,17.465,0,0,1,7.608-23.435c-12.532,6.433,13.569-11.84,23.53,7.568l18.388,25.673a6.292,6.292,0,0,1-2.243,9.26Z" transform="translate(-195.162 -218.711)" fill="#fff"/>
      <path id="Trazado_177" data-name="Trazado 177" d="M451.076,338.15c-2.046,0-4.3-.986-6.849-2.984a43.513,43.513,0,0,1-13.265-51.025c1.851-4.421,5.312-10.43,11.292-13.951,4.3-2.53,9.349-3.444,13.745-4.1,3.806-.57,7.659-1.024,11.453-1.348,4.533-.388,9.77-.649,14.546,1.165,3.5,1.33,6.478,3.679,9.358,5.95,1,.791,2.042,1.61,3.082,2.368a22.7,22.7,0,0,0,8.528,4.142,4.671,4.671,0,0,1,3.126,2.29,4.754,4.754,0,0,1,.334,3.929c-.449,1.26-.855,2.4-.034,3.626a3.24,3.24,0,0,0,2.706,1.379,1.677,1.677,0,0,1,1.418.74,1.709,1.709,0,0,1,.186,1.59l-.132.339a2.181,2.181,0,0,1,1.7,1.106,2.235,2.235,0,0,1-.411,2.768,22.4,22.4,0,0,1-10.918,5.714,21.82,21.82,0,0,1-8.5-.02l-.451-.088.055-.5c-11.344-4.046-21.584,2.82-27.422,10.67l-.843-.532a2.419,2.419,0,0,0,.107-1.9,2.941,2.941,0,0,0-1.455-1.721,3.808,3.808,0,0,0-4.144.827,5.652,5.652,0,0,0-1.55,4.286,15.34,15.34,0,0,0,1.251,4.806c.274.729.558,1.482.789,2.242a18.311,18.311,0,0,1-.967,13.035c-.884,1.86-2.481,4.232-5.076,4.968A6.071,6.071,0,0,1,451.076,338.15Z" transform="translate(-195.162 -218.711)"/>
      <path id="Trazado_178" data-name="Trazado 178" d="M1003.65,681.289h-807.3a1.191,1.191,0,1,1,0-2.381h807.294a1.191,1.191,0,0,1,0,2.381Z" transform="translate(-195.162 -218.711)" fill="#cacaca"/>
    </g>
  </g>
</svg>
